<svg width="873" height="96" viewBox="0 0 873 96" fill="none" xmlns="http://www.w3.org/2000/svg">
<mask id="path-1-outside-1_661_6035" maskUnits="userSpaceOnUse" x="-4" y="4" width="330" height="78" fill="black">
<rect fill="white" x="-4" y="4" width="330" height="78"/>
<path d="M0 78V8H60V18H20V38H60V48H70V68H60V78H0ZM20 68H50V48H20V68ZM104 78V68H94V58H84V28H94V18H104V8H144V18H154V28H134V18H114V28H104V58H114V68H134V58H154V68H144V78H104ZM168 78V8H228V18H188V38H228V48H238V68H228V78H168ZM188 68H218V48H188V68ZM262 48V38H322V48H262Z"/>
</mask>
<path d="M0 78V8H60V18H20V38H60V48H70V68H60V78H0ZM20 68H50V48H20V68ZM104 78V68H94V58H84V28H94V18H104V8H144V18H154V28H134V18H114V28H104V58H114V68H134V58H154V68H144V78H104ZM168 78V8H228V18H188V38H228V48H238V68H228V78H168ZM188 68H218V48H188V68ZM262 48V38H322V48H262Z" fill="url(#paint0_linear_661_6035)"/>
<path d="M0 78H-4V82H0V78ZM0 8V4H-4V8H0ZM60 8H64V4H60V8ZM60 18V22H64V18H60ZM20 18V14H16V18H20ZM20 38H16V42H20V38ZM60 38H64V34H60V38ZM60 48H56V52H60V48ZM70 48H74V44H70V48ZM70 68V72H74V68H70ZM60 68V64H56V68H60ZM60 78V82H64V78H60ZM20 68H16V72H20V68ZM50 68V72H54V68H50ZM50 48H54V44H50V48ZM20 48V44H16V48H20ZM4 78V8H-4V78H4ZM0 12H60V4H0V12ZM56 8V18H64V8H56ZM60 14H20V22H60V14ZM16 18V38H24V18H16ZM20 42H60V34H20V42ZM56 38V48H64V38H56ZM60 52H70V44H60V52ZM66 48V68H74V48H66ZM70 64H60V72H70V64ZM56 68V78H64V68H56ZM60 74H0V82H60V74ZM20 72H50V64H20V72ZM54 68V48H46V68H54ZM50 44H20V52H50V44ZM16 48V68H24V48H16ZM104 78H100V82H104V78ZM104 68H108V64H104V68ZM94 68H90V72H94V68ZM94 58H98V54H94V58ZM84 58H80V62H84V58ZM84 28V24H80V28H84ZM94 28V32H98V28H94ZM94 18V14H90V18H94ZM104 18V22H108V18H104ZM104 8V4H100V8H104ZM144 8H148V4H144V8ZM144 18H140V22H144V18ZM154 18H158V14H154V18ZM154 28V32H158V28H154ZM134 28H130V32H134V28ZM134 18H138V14H134V18ZM114 18V14H110V18H114ZM114 28V32H118V28H114ZM104 28V24H100V28H104ZM104 58H100V62H104V58ZM114 58H118V54H114V58ZM114 68H110V72H114V68ZM134 68V72H138V68H134ZM134 58V54H130V58H134ZM154 58H158V54H154V58ZM154 68V72H158V68H154ZM144 68V64H140V68H144ZM144 78V82H148V78H144ZM108 78V68H100V78H108ZM104 64H94V72H104V64ZM98 68V58H90V68H98ZM94 54H84V62H94V54ZM88 58V28H80V58H88ZM84 32H94V24H84V32ZM98 28V18H90V28H98ZM94 22H104V14H94V22ZM108 18V8H100V18H108ZM104 12H144V4H104V12ZM140 8V18H148V8H140ZM144 22H154V14H144V22ZM150 18V28H158V18H150ZM154 24H134V32H154V24ZM138 28V18H130V28H138ZM134 14H114V22H134V14ZM110 18V28H118V18H110ZM114 24H104V32H114V24ZM100 28V58H108V28H100ZM104 62H114V54H104V62ZM110 58V68H118V58H110ZM114 72H134V64H114V72ZM138 68V58H130V68H138ZM134 62H154V54H134V62ZM150 58V68H158V58H150ZM154 64H144V72H154V64ZM140 68V78H148V68H140ZM144 74H104V82H144V74ZM168 78H164V82H168V78ZM168 8V4H164V8H168ZM228 8H232V4H228V8ZM228 18V22H232V18H228ZM188 18V14H184V18H188ZM188 38H184V42H188V38ZM228 38H232V34H228V38ZM228 48H224V52H228V48ZM238 48H242V44H238V48ZM238 68V72H242V68H238ZM228 68V64H224V68H228ZM228 78V82H232V78H228ZM188 68H184V72H188V68ZM218 68V72H222V68H218ZM218 48H222V44H218V48ZM188 48V44H184V48H188ZM172 78V8H164V78H172ZM168 12H228V4H168V12ZM224 8V18H232V8H224ZM228 14H188V22H228V14ZM184 18V38H192V18H184ZM188 42H228V34H188V42ZM224 38V48H232V38H224ZM228 52H238V44H228V52ZM234 48V68H242V48H234ZM238 64H228V72H238V64ZM224 68V78H232V68H224ZM228 74H168V82H228V74ZM188 72H218V64H188V72ZM222 68V48H214V68H222ZM218 44H188V52H218V44ZM184 48V68H192V48H184ZM262 48H258V52H262V48ZM262 38V34H258V38H262ZM322 38H326V34H322V38ZM322 48V52H326V48H322ZM266 48V38H258V48H266ZM262 42H322V34H262V42ZM318 38V48H326V38H318ZM322 44H262V52H322V44Z" fill="#2D2650" mask="url(#path-1-outside-1_661_6035)"/>
<g clip-path="url(#clip0_661_6035)">
<mask id="path-3-outside-2_661_6035" maskUnits="userSpaceOnUse" x="357" y="20" width="255" height="45" fill="black">
<rect fill="white" x="357" y="20" width="255" height="45"/>
<path d="M362 60V25H392V30H372V40H392V45H397V55H392V60H362ZM372 55H387V45H372V55ZM404 60V25H414V45H419V40H424V35H429V25H439V60H429V45H424V50H419V55H414V60H404ZM451 60V55H446V50H456V55H471V45H456V40H471V30H456V35H446V30H451V25H476V30H481V40H476V45H481V55H476V60H451ZM488 60V25H498V40H513V25H523V60H513V45H498V60H488ZM530 60V25H565V30H540V40H560V45H540V55H565V60H530ZM582 60V55H577V50H572V35H577V30H582V25H602V30H607V35H597V30H587V35H582V50H587V55H597V50H607V55H602V60H582Z"/>
</mask>
<path d="M362 60H357V65H362V60ZM362 25V20H357V25H362ZM392 25H397V20H392V25ZM392 30V35H397V30H392ZM372 30V25H367V30H372ZM372 40H367V45H372V40ZM392 40H397V35H392V40ZM392 45H387V50H392V45ZM397 45H402V40H397V45ZM397 55V60H402V55H397ZM392 55V50H387V55H392ZM392 60V65H397V60H392ZM372 55H367V60H372V55ZM387 55V60H392V55H387ZM387 45H392V40H387V45ZM372 45V40H367V45H372ZM367 60V25H357V60H367ZM362 30H392V20H362V30ZM387 25V30H397V25H387ZM392 25H372V35H392V25ZM367 30V40H377V30H367ZM372 45H392V35H372V45ZM387 40V45H397V40H387ZM392 50H397V40H392V50ZM392 45V55H402V45H392ZM397 50H392V60H397V50ZM387 55V60H397V55H387ZM392 55H362V65H392V55ZM372 60H387V50H372V60ZM392 55V45H382V55H392ZM387 40H372V50H387V40ZM367 45V55H377V45H367ZM404 60H399V65H404V60ZM404 25V20H399V25H404ZM414 25H419V20H414V25ZM414 45H409V50H414V45ZM419 45V50H424V45H419ZM419 40V35H414V40H419ZM424 40V45H429V40H424ZM424 35V30H419V35H424ZM429 35V40H434V35H429ZM429 25V20H424V25H429ZM439 25H444V20H439V25ZM439 60V65H444V60H439ZM429 60H424V65H429V60ZM429 45H434V40H429V45ZM424 45V40H419V45H424ZM424 50V55H429V50H424ZM419 50V45H414V50H419ZM419 55V60H424V55H419ZM414 55V50H409V55H414ZM414 60V65H419V60H414ZM409 60V25H399V60H409ZM404 30H414V20H404V30ZM409 25V45H419V25H409ZM414 50H419V40H414V50ZM424 45V40H414V45H424ZM419 45H424V35H419V45ZM429 40V35H419V40H429ZM424 40H429V30H424V40ZM434 35V25H424V35H434ZM429 30H439V20H429V30ZM434 25V60H444V25H434ZM439 55H429V65H439V55ZM434 60V45H424V60H434ZM429 40H424V50H429V40ZM419 45V50H429V45H419ZM424 45H419V55H424V45ZM414 50V55H424V50H414ZM419 50H414V60H419V50ZM409 55V60H419V55H409ZM414 55H404V65H414V55ZM451 60H446V65H451V60ZM451 55H456V50H451V55ZM446 55H441V60H446V55ZM446 50V45H441V50H446ZM456 50H461V45H456V50ZM456 55H451V60H456V55ZM471 55V60H476V55H471ZM471 45H476V40H471V45ZM456 45H451V50H456V45ZM456 40V35H451V40H456ZM471 40V45H476V40H471ZM471 30H476V25H471V30ZM456 30V25H451V30H456ZM456 35V40H461V35H456ZM446 35H441V40H446V35ZM446 30V25H441V30H446ZM451 30V35H456V30H451ZM451 25V20H446V25H451ZM476 25H481V20H476V25ZM476 30H471V35H476V30ZM481 30H486V25H481V30ZM481 40V45H486V40H481ZM476 40V35H471V40H476ZM476 45H471V50H476V45ZM481 45H486V40H481V45ZM481 55V60H486V55H481ZM476 55V50H471V55H476ZM476 60V65H481V60H476ZM456 60V55H446V60H456ZM451 50H446V60H451V50ZM451 55V50H441V55H451ZM446 55H456V45H446V55ZM451 50V55H461V50H451ZM456 60H471V50H456V60ZM476 55V45H466V55H476ZM471 40H456V50H471V40ZM461 45V40H451V45H461ZM456 45H471V35H456V45ZM476 40V30H466V40H476ZM471 25H456V35H471V25ZM451 30V35H461V30H451ZM456 30H446V40H456V30ZM451 35V30H441V35H451ZM446 35H451V25H446V35ZM456 30V25H446V30H456ZM451 30H476V20H451V30ZM471 25V30H481V25H471ZM476 35H481V25H476V35ZM476 30V40H486V30H476ZM481 35H476V45H481V35ZM471 40V45H481V40H471ZM476 50H481V40H476V50ZM476 45V55H486V45H476ZM481 50H476V60H481V50ZM471 55V60H481V55H471ZM476 55H451V65H476V55ZM488 60H483V65H488V60ZM488 25V20H483V25H488ZM498 25H503V20H498V25ZM498 40H493V45H498V40ZM513 40V45H518V40H513ZM513 25V20H508V25H513ZM523 25H528V20H523V25ZM523 60V65H528V60H523ZM513 60H508V65H513V60ZM513 45H518V40H513V45ZM498 45V40H493V45H498ZM498 60V65H503V60H498ZM493 60V25H483V60H493ZM488 30H498V20H488V30ZM493 25V40H503V25H493ZM498 45H513V35H498V45ZM518 40V25H508V40H518ZM513 30H523V20H513V30ZM518 25V60H528V25H518ZM523 55H513V65H523V55ZM518 60V45H508V60H518ZM513 40H498V50H513V40ZM493 45V60H503V45H493ZM498 55H488V65H498V55ZM530 60H525V65H530V60ZM530 25V20H525V25H530ZM565 25H570V20H565V25ZM565 30V35H570V30H565ZM540 30V25H535V30H540ZM540 40H535V45H540V40ZM560 40H565V35H560V40ZM560 45V50H565V45H560ZM540 45V40H535V45H540ZM540 55H535V60H540V55ZM565 55H570V50H565V55ZM565 60V65H570V60H565ZM535 60V25H525V60H535ZM530 30H565V20H530V30ZM560 25V30H570V25H560ZM565 25H540V35H565V25ZM535 30V40H545V30H535ZM540 45H560V35H540V45ZM555 40V45H565V40H555ZM560 40H540V50H560V40ZM535 45V55H545V45H535ZM540 60H565V50H540V60ZM560 55V60H570V55H560ZM565 55H530V65H565V55ZM582 60H577V65H582V60ZM582 55H587V50H582V55ZM577 55H572V60H577V55ZM577 50H582V45H577V50ZM572 50H567V55H572V50ZM572 35V30H567V35H572ZM577 35V40H582V35H577ZM577 30V25H572V30H577ZM582 30V35H587V30H582ZM582 25V20H577V25H582ZM602 25H607V20H602V25ZM602 30H597V35H602V30ZM607 30H612V25H607V30ZM607 35V40H612V35H607ZM597 35H592V40H597V35ZM597 30H602V25H597V30ZM587 30V25H582V30H587ZM587 35V40H592V35H587ZM582 35V30H577V35H582ZM582 50H577V55H582V50ZM587 50H592V45H587V50ZM587 55H582V60H587V55ZM597 55V60H602V55H597ZM597 50V45H592V50H597ZM607 50H612V45H607V50ZM607 55V60H612V55H607ZM602 55V50H597V55H602ZM602 60V65H607V60H602ZM587 60V55H577V60H587ZM582 50H577V60H582V50ZM582 55V50H572V55H582ZM577 45H572V55H577V45ZM577 50V35H567V50H577ZM572 40H577V30H572V40ZM582 35V30H572V35H582ZM577 35H582V25H577V35ZM587 30V25H577V30H587ZM582 30H602V20H582V30ZM597 25V30H607V25H597ZM602 35H607V25H602V35ZM602 30V35H612V30H602ZM607 30H597V40H607V30ZM602 35V30H592V35H602ZM597 25H587V35H597V25ZM582 30V35H592V30H582ZM587 30H582V40H587V30ZM577 35V50H587V35H577ZM582 55H587V45H582V55ZM582 50V55H592V50H582ZM587 60H597V50H587V60ZM602 55V50H592V55H602ZM597 55H607V45H597V55ZM602 50V55H612V50H602ZM607 50H602V60H607V50ZM597 55V60H607V55H597ZM602 55H582V65H602V55Z" fill="white" mask="url(#path-3-outside-2_661_6035)"/>
</g>
<defs>
<linearGradient id="paint0_linear_661_6035" x1="153" y1="-103.5" x2="31.5" y2="276" gradientUnits="userSpaceOnUse">
<stop offset="0.359275" stop-color="#2D2650"/>
<stop offset="0.359375" stop-color="#DFDC01"/>
</linearGradient>
<clipPath id="clip0_661_6035">
<rect width="521" height="96" fill="white" transform="translate(352)"/>
</clipPath>
</defs>
</svg>
