<svg width="229" height="104" viewBox="0 0 229 104" fill="none" xmlns="http://www.w3.org/2000/svg">
<path d="M135.512 53.5154H121.634C121.634 41.8487 114.973 35.7376 107.201 35.7376C84.9973 35.7376 87.2177 66.8487 107.201 66.8487H226.548V79.6265C195.647 79.8117 128.522 79.6265 107.201 79.6265C81.1116 79.6265 77.781 55.1821 77.781 53.5154C77.781 50.7376 77.781 22.4043 107.201 22.4043C130.738 22.4043 135.882 43.145 135.512 53.5154Z" stroke="#2B2A28" stroke-width="3"/>
<path d="M157.16 53.5154H144.393C142.728 25.7376 121.634 14.071 107.201 14.071C91.1061 14.071 67.6641 25.7652 68.8994 53.5154C69.6908 71.2932 85.5551 87.9599 107.201 87.9599H226.548V101.849H107.201C70.0123 101.849 56.132 69.6265 55.5769 53.5154C55.2069 34.4413 70.009 1.84875 107.201 1.84875C144.394 1.84875 158.828 36.2932 157.16 53.5154Z" stroke="#2B2A28" stroke-width="3"/>
</svg>
