<svg width="40" height="40" viewBox="0 0 40 40" fill="none" xmlns="http://www.w3.org/2000/svg">
<path d="M21.6666 26.6667H18.3333V30H21.6666V26.6667Z" fill="#DFDC01"/>
<path d="M25 26.6667V23.3333H21.6666V26.6667H25Z" fill="#DFDC01"/>
<path d="M28.3333 23.3333V20H25V23.3333H28.3333Z" fill="#DFDC01"/>
<path d="M31.6666 20V16.6667H28.3333V20H31.6666Z" fill="#DFDC01"/>
<path d="M35 13.3333H31.6666V16.6667H35V13.3333Z" fill="#DFDC01"/>
<path fill-rule="evenodd" clip-rule="evenodd" d="M25 10H28.3333V13.3333H25V10ZM21.6666 16.6667V13.3333H25V16.6667H21.6666ZM18.3333 20V16.6667H21.6666V20H18.3333ZM15 23.3333V20H18.3333V23.3333H15ZM11.6666 26.6667V23.3333H15V26.6667H11.6666ZM8.33329 26.6667H11.6666V30H8.33329V26.6667ZM4.99996 23.3333H8.33329V26.6667H4.99996V23.3333ZM4.99996 23.3333H1.66663V20H4.99996V23.3333Z" fill="#2D2650"/>
<path d="M35 13.3333H38.3333V10H35V13.3333Z" fill="#DFDC01"/>
</svg>
