<svg width="107" height="107" viewBox="0 0 107 107" fill="none" xmlns="http://www.w3.org/2000/svg">
<path d="M65.55 39.665C62.5134 37.0671 59.0168 35.6774 56.4106 35.33L56.3838 41.2082C59.9654 41.9627 62.3885 43.779 63.9098 46.0659C65.5727 48.5659 66.0687 51.4896 66.0388 53.8862C65.9915 57.6656 64.4618 60.5938 62.1299 62.5549C59.8293 64.4897 56.8283 65.4201 53.8789 65.4201C50.9292 65.4201 47.9212 64.4897 45.6025 62.5599C43.2534 60.6049 41.6882 57.6835 41.5938 53.905L41.5934 53.8915L41.5934 53.878L41.2496 4.78768L41.2423 3.7455L42.2164 3.3751C46.38 1.79204 52.3885 1.32327 58.9726 2.14747C65.5867 2.97543 72.9149 5.12375 79.7565 8.90996C93.4945 16.5127 105.244 30.7216 105.244 53.8675C105.244 77.0139 91.7579 93.4004 74.4367 100.639C57.1571 107.861 35.9755 106.015 20.5018 92.7019L20.4828 92.6856L20.4645 92.6687C5.44911 78.8546 0.963328 62.8846 2.54342 48.4476C4.1157 34.0821 11.6843 21.2954 20.6788 13.6847L23.0932 11.6418L23.1475 14.8041L23.8176 53.8417L23.8179 53.8584L23.8179 53.8751C23.7671 63.8975 28.3312 71.4011 34.429 76.4342C40.5679 81.5011 48.2029 84.0098 54.0858 84.0098C59.6951 84.0098 67.3139 81.507 73.5353 76.4296C79.715 71.3863 84.4338 63.8756 84.4845 53.8599C84.5354 43.8128 80.1584 36.3278 74.4635 31.1817C68.7604 26.0281 61.7821 23.268 56.7484 22.6965L56.334 22.6965C56.3274 22.7358 56.3217 22.7905 56.3213 22.8636L56.3992 28.6225C73.3316 31.5851 78.6476 45.3814 78.6047 53.8751C78.5554 63.6091 71.4442 77.0964 54.228 77.9838C48.8195 78.2626 42.7113 75.8982 37.9366 71.7105C33.1361 67.5001 29.5608 61.3397 29.4029 53.8993L29.4025 53.8834L29.4025 53.8675L29.4025 8.79823L29.4025 7.86931L30.2341 7.45539C30.6839 7.23152 31.3912 6.88656 32.0571 6.57659C32.6662 6.29308 33.3959 5.96418 33.8005 5.84831L35.7362 5.29393L35.7134 7.30732C35.6143 16.0548 35.6143 27.6903 35.6391 37.144C35.6515 41.8697 35.6701 46.0483 35.6856 49.0454C35.6933 50.5439 35.7003 51.7471 35.7053 52.5755L35.7113 53.5271L35.7129 53.7736L35.7133 53.8312C36.1899 65.0972 45.5935 71.4674 54.1508 71.4674C55.098 71.4674 59.599 70.9329 63.8344 68.4115C67.9744 65.9467 71.8412 61.6125 71.9188 53.8525C71.9833 47.4037 69.136 42.7328 65.55 39.665Z" stroke="#2D2650" stroke-width="3"/>
</svg>
