<svg width="187" height="61" viewBox="0 0 187 61" fill="none" xmlns="http://www.w3.org/2000/svg">
<path fill-rule="evenodd" clip-rule="evenodd" d="M4 4H22L39.5 11.5H19V26.5H49V34H56.5V49H49V56.5H4V4ZM41.5 34H19V49H41.5V34Z" fill="#DFDC01"/>
<path fill-rule="evenodd" clip-rule="evenodd" d="M0 0H53V15.5H23V22.5H53V30H60.5V53H53V60.5H0V0ZM22 4H4V56.5H49V49H56.5V34H49V26.5H19V11.5H39.5L22 4Z" fill="#2D2650"/>
<path fill-rule="evenodd" clip-rule="evenodd" d="M19 34H41.5V49H19V34ZM37.5 38H23V45H37.5V38Z" fill="#2D2650"/>
<path fill-rule="evenodd" clip-rule="evenodd" d="M63 15H70.5V7.5H78V0H116V7.5H123.5V23H100.5V15.5H93.5V23H86V37.5H93.5V45H100.5V37.5H123.5V53H116V60.5H78V53H70.5V45.5H63V15ZM82 29.5L67 23V41.5H74.5V49H82V56.5H112V49H119.5V46L109.5 41.5H104.5V49H89.5V41.5H82V29.5Z" fill="#2D2650"/>
<path d="M67 23L82 29.5V41.5H89.5V49H104.5V41.5H109.5L119.5 46V49H112V56.5H82V49H74.5V41.5H67V23Z" fill="#DFDC01"/>
<path d="M144.5 56.5H130V50.5L144.5 56.5Z" fill="#DFDC01"/>
<path fill-rule="evenodd" clip-rule="evenodd" d="M126 0H179V15.5H149V22.5H179V30H186.5V53H179V60.5H126V0ZM163.5 38H149V45H163.5V38ZM130 56.5H144.5L130 50.5V56.5Z" fill="#2D2650"/>
</svg>
