<svg width="322" height="70" viewBox="0 0 322 70" fill="none" xmlns="http://www.w3.org/2000/svg">
<mask id="path-1-outside-1_1915_782" maskUnits="userSpaceOnUse" x="-4" y="-4" width="330" height="78" fill="black">
<rect fill="white" x="-4" y="-4" width="330" height="78"/>
<path d="M0 70V0H60V10H20V30H60V40H70V60H60V70H0ZM20 60H50V40H20V60ZM104 70V60H94V50H84V20H94V10H104V0H144V10H154V20H134V10H114V20H104V50H114V60H134V50H154V60H144V70H104ZM168 70V0H228V10H188V30H228V40H238V60H228V70H168ZM188 60H218V40H188V60ZM262 40V30H322V40H262Z"/>
</mask>
<path d="M0 70V0H60V10H20V30H60V40H70V60H60V70H0ZM20 60H50V40H20V60ZM104 70V60H94V50H84V20H94V10H104V0H144V10H154V20H134V10H114V20H104V50H114V60H134V50H154V60H144V70H104ZM168 70V0H228V10H188V30H228V40H238V60H228V70H168ZM188 60H218V40H188V60ZM262 40V30H322V40H262Z" fill="url(#paint0_linear_1915_782)"/>
<path d="M0 70H-4V74H0V70ZM0 0V-4H-4V0H0ZM60 0H64V-4H60V0ZM60 10V14H64V10H60ZM20 10V6H16V10H20ZM20 30H16V34H20V30ZM60 30H64V26H60V30ZM60 40H56V44H60V40ZM70 40H74V36H70V40ZM70 60V64H74V60H70ZM60 60V56H56V60H60ZM60 70V74H64V70H60ZM20 60H16V64H20V60ZM50 60V64H54V60H50ZM50 40H54V36H50V40ZM20 40V36H16V40H20ZM4 70V0H-4V70H4ZM0 4H60V-4H0V4ZM56 0V10H64V0H56ZM60 6H20V14H60V6ZM16 10V30H24V10H16ZM20 34H60V26H20V34ZM56 30V40H64V30H56ZM60 44H70V36H60V44ZM66 40V60H74V40H66ZM70 56H60V64H70V56ZM56 60V70H64V60H56ZM60 66H0V74H60V66ZM20 64H50V56H20V64ZM54 60V40H46V60H54ZM50 36H20V44H50V36ZM16 40V60H24V40H16ZM104 70H100V74H104V70ZM104 60H108V56H104V60ZM94 60H90V64H94V60ZM94 50H98V46H94V50ZM84 50H80V54H84V50ZM84 20V16H80V20H84ZM94 20V24H98V20H94ZM94 10V6H90V10H94ZM104 10V14H108V10H104ZM104 0V-4H100V0H104ZM144 0H148V-4H144V0ZM144 10H140V14H144V10ZM154 10H158V6H154V10ZM154 20V24H158V20H154ZM134 20H130V24H134V20ZM134 10H138V6H134V10ZM114 10V6H110V10H114ZM114 20V24H118V20H114ZM104 20V16H100V20H104ZM104 50H100V54H104V50ZM114 50H118V46H114V50ZM114 60H110V64H114V60ZM134 60V64H138V60H134ZM134 50V46H130V50H134ZM154 50H158V46H154V50ZM154 60V64H158V60H154ZM144 60V56H140V60H144ZM144 70V74H148V70H144ZM108 70V60H100V70H108ZM104 56H94V64H104V56ZM98 60V50H90V60H98ZM94 46H84V54H94V46ZM88 50V20H80V50H88ZM84 24H94V16H84V24ZM98 20V10H90V20H98ZM94 14H104V6H94V14ZM108 10V0H100V10H108ZM104 4H144V-4H104V4ZM140 0V10H148V0H140ZM144 14H154V6H144V14ZM150 10V20H158V10H150ZM154 16H134V24H154V16ZM138 20V10H130V20H138ZM134 6H114V14H134V6ZM110 10V20H118V10H110ZM114 16H104V24H114V16ZM100 20V50H108V20H100ZM104 54H114V46H104V54ZM110 50V60H118V50H110ZM114 64H134V56H114V64ZM138 60V50H130V60H138ZM134 54H154V46H134V54ZM150 50V60H158V50H150ZM154 56H144V64H154V56ZM140 60V70H148V60H140ZM144 66H104V74H144V66ZM168 70H164V74H168V70ZM168 0V-4H164V0H168ZM228 0H232V-4H228V0ZM228 10V14H232V10H228ZM188 10V6H184V10H188ZM188 30H184V34H188V30ZM228 30H232V26H228V30ZM228 40H224V44H228V40ZM238 40H242V36H238V40ZM238 60V64H242V60H238ZM228 60V56H224V60H228ZM228 70V74H232V70H228ZM188 60H184V64H188V60ZM218 60V64H222V60H218ZM218 40H222V36H218V40ZM188 40V36H184V40H188ZM172 70V0H164V70H172ZM168 4H228V-4H168V4ZM224 0V10H232V0H224ZM228 6H188V14H228V6ZM184 10V30H192V10H184ZM188 34H228V26H188V34ZM224 30V40H232V30H224ZM228 44H238V36H228V44ZM234 40V60H242V40H234ZM238 56H228V64H238V56ZM224 60V70H232V60H224ZM228 66H168V74H228V66ZM188 64H218V56H188V64ZM222 60V40H214V60H222ZM218 36H188V44H218V36ZM184 40V60H192V40H184ZM262 40H258V44H262V40ZM262 30V26H258V30H262ZM322 30H326V26H322V30ZM322 40V44H326V40H322ZM266 40V30H258V40H266ZM262 34H322V26H262V34ZM318 30V40H326V30H318ZM322 36H262V44H322V36Z" fill="#2D2650" mask="url(#path-1-outside-1_1915_782)"/>
<defs>
<linearGradient id="paint0_linear_1915_782" x1="153" y1="-111.5" x2="31.5" y2="268" gradientUnits="userSpaceOnUse">
<stop offset="0.359275" stop-color="#2D2650"/>
<stop offset="0.359375" stop-color="#DFDC01"/>
</linearGradient>
</defs>
</svg>
