<svg width="521" height="96" viewBox="0 0 521 96" fill="none" xmlns="http://www.w3.org/2000/svg">
<g clip-path="url(#clip0_661_5983)">
<mask id="path-1-outside-1_661_5983" maskUnits="userSpaceOnUse" x="5" y="20" width="255" height="45" fill="black">
<rect fill="white" x="5" y="20" width="255" height="45"/>
<path d="M10 60V25H40V30H20V40H40V45H45V55H40V60H10ZM20 55H35V45H20V55ZM52 60V25H62V45H67V40H72V35H77V25H87V60H77V45H72V50H67V55H62V60H52ZM99 60V55H94V50H104V55H119V45H104V40H119V30H104V35H94V30H99V25H124V30H129V40H124V45H129V55H124V60H99ZM136 60V25H146V40H161V25H171V60H161V45H146V60H136ZM178 60V25H213V30H188V40H208V45H188V55H213V60H178ZM230 60V55H225V50H220V35H225V30H230V25H250V30H255V35H245V30H235V35H230V50H235V55H245V50H255V55H250V60H230Z"/>
</mask>
<path d="M10 60H5V65H10V60ZM10 25V20H5V25H10ZM40 25H45V20H40V25ZM40 30V35H45V30H40ZM20 30V25H15V30H20ZM20 40H15V45H20V40ZM40 40H45V35H40V40ZM40 45H35V50H40V45ZM45 45H50V40H45V45ZM45 55V60H50V55H45ZM40 55V50H35V55H40ZM40 60V65H45V60H40ZM20 55H15V60H20V55ZM35 55V60H40V55H35ZM35 45H40V40H35V45ZM20 45V40H15V45H20ZM15 60V25H5V60H15ZM10 30H40V20H10V30ZM35 25V30H45V25H35ZM40 25H20V35H40V25ZM15 30V40H25V30H15ZM20 45H40V35H20V45ZM35 40V45H45V40H35ZM40 50H45V40H40V50ZM40 45V55H50V45H40ZM45 50H40V60H45V50ZM35 55V60H45V55H35ZM40 55H10V65H40V55ZM20 60H35V50H20V60ZM40 55V45H30V55H40ZM35 40H20V50H35V40ZM15 45V55H25V45H15ZM52 60H47V65H52V60ZM52 25V20H47V25H52ZM62 25H67V20H62V25ZM62 45H57V50H62V45ZM67 45V50H72V45H67ZM67 40V35H62V40H67ZM72 40V45H77V40H72ZM72 35V30H67V35H72ZM77 35V40H82V35H77ZM77 25V20H72V25H77ZM87 25H92V20H87V25ZM87 60V65H92V60H87ZM77 60H72V65H77V60ZM77 45H82V40H77V45ZM72 45V40H67V45H72ZM72 50V55H77V50H72ZM67 50V45H62V50H67ZM67 55V60H72V55H67ZM62 55V50H57V55H62ZM62 60V65H67V60H62ZM57 60V25H47V60H57ZM52 30H62V20H52V30ZM57 25V45H67V25H57ZM62 50H67V40H62V50ZM72 45V40H62V45H72ZM67 45H72V35H67V45ZM77 40V35H67V40H77ZM72 40H77V30H72V40ZM82 35V25H72V35H82ZM77 30H87V20H77V30ZM82 25V60H92V25H82ZM87 55H77V65H87V55ZM82 60V45H72V60H82ZM77 40H72V50H77V40ZM67 45V50H77V45H67ZM72 45H67V55H72V45ZM62 50V55H72V50H62ZM67 50H62V60H67V50ZM57 55V60H67V55H57ZM62 55H52V65H62V55ZM99 60H94V65H99V60ZM99 55H104V50H99V55ZM94 55H89V60H94V55ZM94 50V45H89V50H94ZM104 50H109V45H104V50ZM104 55H99V60H104V55ZM119 55V60H124V55H119ZM119 45H124V40H119V45ZM104 45H99V50H104V45ZM104 40V35H99V40H104ZM119 40V45H124V40H119ZM119 30H124V25H119V30ZM104 30V25H99V30H104ZM104 35V40H109V35H104ZM94 35H89V40H94V35ZM94 30V25H89V30H94ZM99 30V35H104V30H99ZM99 25V20H94V25H99ZM124 25H129V20H124V25ZM124 30H119V35H124V30ZM129 30H134V25H129V30ZM129 40V45H134V40H129ZM124 40V35H119V40H124ZM124 45H119V50H124V45ZM129 45H134V40H129V45ZM129 55V60H134V55H129ZM124 55V50H119V55H124ZM124 60V65H129V60H124ZM104 60V55H94V60H104ZM99 50H94V60H99V50ZM99 55V50H89V55H99ZM94 55H104V45H94V55ZM99 50V55H109V50H99ZM104 60H119V50H104V60ZM124 55V45H114V55H124ZM119 40H104V50H119V40ZM109 45V40H99V45H109ZM104 45H119V35H104V45ZM124 40V30H114V40H124ZM119 25H104V35H119V25ZM99 30V35H109V30H99ZM104 30H94V40H104V30ZM99 35V30H89V35H99ZM94 35H99V25H94V35ZM104 30V25H94V30H104ZM99 30H124V20H99V30ZM119 25V30H129V25H119ZM124 35H129V25H124V35ZM124 30V40H134V30H124ZM129 35H124V45H129V35ZM119 40V45H129V40H119ZM124 50H129V40H124V50ZM124 45V55H134V45H124ZM129 50H124V60H129V50ZM119 55V60H129V55H119ZM124 55H99V65H124V55ZM136 60H131V65H136V60ZM136 25V20H131V25H136ZM146 25H151V20H146V25ZM146 40H141V45H146V40ZM161 40V45H166V40H161ZM161 25V20H156V25H161ZM171 25H176V20H171V25ZM171 60V65H176V60H171ZM161 60H156V65H161V60ZM161 45H166V40H161V45ZM146 45V40H141V45H146ZM146 60V65H151V60H146ZM141 60V25H131V60H141ZM136 30H146V20H136V30ZM141 25V40H151V25H141ZM146 45H161V35H146V45ZM166 40V25H156V40H166ZM161 30H171V20H161V30ZM166 25V60H176V25H166ZM171 55H161V65H171V55ZM166 60V45H156V60H166ZM161 40H146V50H161V40ZM141 45V60H151V45H141ZM146 55H136V65H146V55ZM178 60H173V65H178V60ZM178 25V20H173V25H178ZM213 25H218V20H213V25ZM213 30V35H218V30H213ZM188 30V25H183V30H188ZM188 40H183V45H188V40ZM208 40H213V35H208V40ZM208 45V50H213V45H208ZM188 45V40H183V45H188ZM188 55H183V60H188V55ZM213 55H218V50H213V55ZM213 60V65H218V60H213ZM183 60V25H173V60H183ZM178 30H213V20H178V30ZM208 25V30H218V25H208ZM213 25H188V35H213V25ZM183 30V40H193V30H183ZM188 45H208V35H188V45ZM203 40V45H213V40H203ZM208 40H188V50H208V40ZM183 45V55H193V45H183ZM188 60H213V50H188V60ZM208 55V60H218V55H208ZM213 55H178V65H213V55ZM230 60H225V65H230V60ZM230 55H235V50H230V55ZM225 55H220V60H225V55ZM225 50H230V45H225V50ZM220 50H215V55H220V50ZM220 35V30H215V35H220ZM225 35V40H230V35H225ZM225 30V25H220V30H225ZM230 30V35H235V30H230ZM230 25V20H225V25H230ZM250 25H255V20H250V25ZM250 30H245V35H250V30ZM255 30H260V25H255V30ZM255 35V40H260V35H255ZM245 35H240V40H245V35ZM245 30H250V25H245V30ZM235 30V25H230V30H235ZM235 35V40H240V35H235ZM230 35V30H225V35H230ZM230 50H225V55H230V50ZM235 50H240V45H235V50ZM235 55H230V60H235V55ZM245 55V60H250V55H245ZM245 50V45H240V50H245ZM255 50H260V45H255V50ZM255 55V60H260V55H255ZM250 55V50H245V55H250ZM250 60V65H255V60H250ZM235 60V55H225V60H235ZM230 50H225V60H230V50ZM230 55V50H220V55H230ZM225 45H220V55H225V45ZM225 50V35H215V50H225ZM220 40H225V30H220V40ZM230 35V30H220V35H230ZM225 35H230V25H225V35ZM235 30V25H225V30H235ZM230 30H250V20H230V30ZM245 25V30H255V25H245ZM250 35H255V25H250V35ZM250 30V35H260V30H250ZM255 30H245V40H255V30ZM250 35V30H240V35H250ZM245 25H235V35H245V25ZM230 30V35H240V30H230ZM235 30H230V40H235V30ZM225 35V50H235V35H225ZM230 55H235V45H230V55ZM230 50V55H240V50H230ZM235 60H245V50H235V60ZM250 55V50H240V55H250ZM245 55H255V45H245V55ZM250 50V55H260V50H250ZM255 50H250V60H255V50ZM245 55V60H255V55H245ZM250 55H230V65H250V55Z" fill="white" mask="url(#path-1-outside-1_661_5983)"/>
</g>
<defs>
<clipPath id="clip0_661_5983">
<rect width="521" height="96" fill="white"/>
</clipPath>
</defs>
</svg>
