<svg width="16" height="9" viewBox="0 0 16 9" fill="none" xmlns="http://www.w3.org/2000/svg">
<path d="M8.53333 0V1.125L9.6 1.125V2.25L10.6667 2.25V3.375H11.7333L11.7333 4.5H12.8V5.625H13.8667V6.75H14.9333V7.875L16 7.875L16 9H13.6L13.12 9V7.875H12.0533V6.75L10.9867 6.75V5.625H9.92V4.5H8L6.08 4.5V5.625H5.06667L5.06667 6.75H4V7.875H2.93333V9H1.86667H0L0 7.875H1.06667L1.06667 6.75H2.13333V5.625L3.2 5.625L3.2 4.5H4.26667V3.375H5.33333V2.25L6.4 2.25L6.4 1.125L7.46667 1.125V0L8.53333 0Z" fill="#2D2650"/>
</svg>
