<svg width="353" height="588" viewBox="0 0 353 588" fill="none" xmlns="http://www.w3.org/2000/svg">
<g clip-path="url(#clip0_589_4443)">
<rect width="353" height="588" fill="#EBE965"/>
<g filter="url(#filter0_f_589_4443)">
<path d="M-27.5 420C-60.7288 473.518 -48 580 -48 580C-48 580 202.2 763.8 247 611C291.8 458.2 225.333 363 186.5 334.5C147.667 306 19.9713 343.543 -27.5 420Z" fill="#4A399D"/>
<path d="M186.5 -49.5001C135.667 -16.0001 217.355 387 377.855 255.5C483.077 169.29 583.355 31.4999 583.355 31.4999C583.355 31.4999 478.189 -139.223 371.355 -141.5C290.736 -143.218 237.333 -83.0001 186.5 -49.5001Z" fill="#9283DB"/>
<path d="M-206.927 513.536C-104.927 504.536 90.6727 517.336 57.0727 640.536C23.4727 763.736 -89.2606 743.869 -141.427 718.536C-170.094 681.202 -223.327 587.936 -206.927 513.536Z" fill="#9283DB"/>
<path d="M198.855 267.567C101.355 121.567 34.2273 -78.5327 -48.5727 63.0673C-131.373 204.667 -58.0727 271.067 -11.0727 286.567C137.927 515.067 271.955 317.667 316.355 356.067C360.755 394.467 181.261 417.4 109.927 468.067C52.594 516.734 496.2 648.5 645 628.5C793.8 608.5 396.927 404.734 440.427 325.067C483.927 245.4 296.355 413.567 198.855 267.567Z" fill="#DFDC01"/>
</g>
</g>
<defs>
<filter id="filter0_f_589_4443" x="-410" y="-341.536" width="1288.56" height="1279.06" filterUnits="userSpaceOnUse" color-interpolation-filters="sRGB">
<feFlood flood-opacity="0" result="BackgroundImageFix"/>
<feBlend mode="normal" in="SourceGraphic" in2="BackgroundImageFix" result="shape"/>
<feGaussianBlur stdDeviation="100" result="effect1_foregroundBlur_589_4443"/>
</filter>
<clipPath id="clip0_589_4443">
<rect width="353" height="588" fill="white"/>
</clipPath>
</defs>
</svg>
