<svg width="286" height="286" viewBox="0 0 286 286" fill="none" xmlns="http://www.w3.org/2000/svg">
<path d="M125.109 1.12355C100.533 4.22267 77.1824 13.6529 57.3463 28.4904C37.5102 43.3279 21.8686 63.0638 11.9538 85.7645C2.03911 108.465 -1.80864 133.352 0.787525 157.987C3.38369 182.622 12.3347 206.16 26.7637 226.295C41.1927 246.431 60.6048 262.472 83.0981 272.849C105.591 283.226 130.394 287.581 155.077 285.489C179.76 283.397 203.476 274.929 223.902 260.914C244.328 246.9 260.763 227.82 271.598 205.543L234.285 187.397C226.595 203.21 214.928 216.754 200.429 226.702C185.929 236.65 169.094 242.661 151.573 244.146C134.052 245.631 116.445 242.54 100.478 235.174C84.5115 227.808 70.7318 216.421 60.4893 202.128C50.2468 187.834 43.8929 171.126 42.05 153.639C40.2071 136.151 42.9384 118.485 49.9765 102.371C57.0144 86.257 68.1177 72.2475 82.1984 61.715C96.2792 51.1825 112.854 44.4885 130.3 42.2885L125.109 1.12355Z" fill="#F5F5F5"/>
<path d="M99 99L186 99V186H99L99 99Z" fill="#F5F5F5"/>
</svg>
