<svg width="286" height="286" viewBox="0 0 286 286" fill="none" xmlns="http://www.w3.org/2000/svg">
<path d="M1.12353 160.89C4.38869 186.784 14.6779 211.29 30.8762 231.754C47.0746 252.217 68.5643 267.858 93.0168 276.98C117.469 286.103 143.952 288.359 169.595 283.505C195.239 278.651 219.065 266.872 238.492 249.444L210.785 218.56C196.995 230.931 180.082 239.292 161.879 242.738C143.676 246.184 124.877 244.582 107.519 238.106C90.1616 231.631 74.907 220.528 63.4086 206.002C51.9101 191.476 44.6063 174.08 42.2885 155.7L1.12353 160.89Z" fill="#F5F5F5"/>
<path d="M99 99L186 99V186H99L99 99Z" fill="#F5F5F5"/>
</svg>
