<svg width="116" height="116" viewBox="0 0 116 116" fill="none" xmlns="http://www.w3.org/2000/svg">
<circle cx="58" cy="58" r="58" fill="#DFDC01"/>
<path d="M48.4853 79.0588V76.2353V73.4118H51.3015H54.1324V76.2353V79.0588H51.3015H48.4853ZM52.0147 79.0588V76.2353V73.4118H54.8309H57.6618V76.2353V79.0588H54.8309H52.0147ZM55.5441 79.0588V76.2353V73.4118H58.3603H61.1912V76.2353V79.0588H58.3603H55.5441ZM59.0735 79.0588V76.2353V73.4118H61.8897H64.7206V76.2353V79.0588H61.8897H59.0735ZM62.6029 79.0588V76.2353V73.4118H65.4191H68.25V76.2353V79.0588H65.4191H62.6029ZM55.5441 75.5294V72.7059V69.8824H58.3603H61.1912V72.7059V75.5294H58.3603H55.5441ZM55.5441 72V69.1765V66.3529H58.3603H61.1912V69.1765V72H58.3603H55.5441ZM55.5441 68.4706V65.6471V62.8235H58.3603H61.1912V65.6471V68.4706H58.3603H55.5441ZM55.5441 64.9412V62.1176V59.2941H58.3603H61.1912V62.1176V64.9412H58.3603H55.5441ZM55.5441 61.4118V58.5882V55.7647H58.3603H61.1912V58.5882V61.4118H58.3603H55.5441ZM55.5441 57.8824V55.0588V52.2353H58.3603H61.1912V55.0588V57.8824H58.3603H55.5441ZM55.5441 54.3529V51.5294V48.7059H58.3603H61.1912V51.5294V54.3529H58.3603H55.5441ZM55.5441 50.8235V48V45.1765H58.3603H61.1912V48V50.8235H58.3603H55.5441ZM48.4853 47.2941V44.4706V41.6471H51.3015H54.1324V44.4706V47.2941H51.3015H48.4853ZM55.5441 47.2941V44.4706V41.6471H58.3603H61.1912V44.4706V47.2941H58.3603H55.5441ZM52.0147 45.5294V42.7059V39.8824H54.8309H57.6618V42.7059V45.5294H54.8309H52.0147ZM55.5441 43.7647V40.9412V38.1176H58.3603H61.1912V40.9412V43.7647H58.3603H55.5441Z" fill="white"/>
</svg>
