<svg width="195" height="48" viewBox="0 0 195 48" fill="none" xmlns="http://www.w3.org/2000/svg">
<path d="M78.9839 46.9787C78.9839 47.5428 78.5399 48 77.9923 48C77.4446 48 77.0007 47.5428 77.0007 46.9787C77.0007 46.4147 77.4446 45.9575 77.9923 45.9575C78.5399 45.9575 78.9839 46.4147 78.9839 46.9787Z" fill="#4A399D"/>
<path d="M78.9839 43.9149C78.9839 44.4789 78.5399 44.9362 77.9923 44.9362C77.4446 44.9362 77.0007 44.4789 77.0007 43.9149C77.0007 43.3509 77.4446 42.8936 77.9923 42.8936C78.5399 42.8936 78.9839 43.3509 78.9839 43.9149Z" fill="#4A399D"/>
<path d="M78.9839 40.8511C78.9839 41.4151 78.5399 41.8724 77.9923 41.8724C77.4446 41.8724 77.0007 41.4151 77.0007 40.8511C77.0007 40.2871 77.4446 39.8298 77.9923 39.8298C78.5399 39.8298 78.9839 40.2871 78.9839 40.8511Z" fill="#4A399D"/>
<path d="M81.9587 46.9787C81.9587 47.5428 81.5147 48 80.9671 48C80.4194 48 79.9755 47.5428 79.9755 46.9787C79.9755 46.4147 80.4194 45.9575 80.9671 45.9575C81.5147 45.9575 81.9587 46.4147 81.9587 46.9787Z" fill="#4A399D"/>
<path d="M81.9587 43.9149C81.9587 44.4789 81.5147 44.9362 80.9671 44.9362C80.4194 44.9362 79.9755 44.4789 79.9755 43.9149C79.9755 43.3509 80.4194 42.8936 80.9671 42.8936C81.5147 42.8936 81.9587 43.3509 81.9587 43.9149Z" fill="#4A399D"/>
<path d="M81.9587 40.8511C81.9587 41.4151 81.5147 41.8724 80.9671 41.8724C80.4194 41.8724 79.9755 41.4151 79.9755 40.8511C79.9755 40.2871 80.4194 39.8298 80.9671 39.8298C81.5147 39.8298 81.9587 40.2871 81.9587 40.8511Z" fill="#4A399D"/>
<path d="M84.9335 46.9787C84.9335 47.5428 84.4895 48 83.9419 48C83.3942 48 82.9503 47.5428 82.9503 46.9787C82.9503 46.4147 83.3942 45.9575 83.9419 45.9575C84.4895 45.9575 84.9335 46.4147 84.9335 46.9787Z" fill="#4A399D"/>
<path d="M84.9335 43.9149C84.9335 44.4789 84.4895 44.9362 83.9419 44.9362C83.3942 44.9362 82.9503 44.4789 82.9503 43.9149C82.9503 43.3509 83.3942 42.8936 83.9419 42.8936C84.4895 42.8936 84.9335 43.3509 84.9335 43.9149Z" fill="#4A399D"/>
<path d="M84.9335 40.8511C84.9335 41.4151 84.4895 41.8724 83.9419 41.8724C83.3942 41.8724 82.9503 41.4151 82.9503 40.8511C82.9503 40.2871 83.3942 39.8298 83.9419 39.8298C84.4895 39.8298 84.9335 40.2871 84.9335 40.8511Z" fill="#4A399D"/>
<path d="M87.9083 46.9787C87.9083 47.5428 87.4643 48 86.9166 48C86.369 48 85.9251 47.5428 85.9251 46.9787C85.9251 46.4147 86.369 45.9575 86.9166 45.9575C87.4643 45.9575 87.9083 46.4147 87.9083 46.9787Z" fill="#4A399D"/>
<path d="M87.9083 43.9149C87.9083 44.4789 87.4643 44.9362 86.9166 44.9362C86.369 44.9362 85.9251 44.4789 85.9251 43.9149C85.9251 43.3509 86.369 42.8936 86.9166 42.8936C87.4643 42.8936 87.9083 43.3509 87.9083 43.9149Z" fill="#4A399D"/>
<path d="M87.9083 40.8511C87.9083 41.4151 87.4643 41.8724 86.9166 41.8724C86.369 41.8724 85.9251 41.4151 85.9251 40.8511C85.9251 40.2871 86.369 39.8298 86.9166 39.8298C87.4643 39.8298 87.9083 40.2871 87.9083 40.8511Z" fill="#4A399D"/>
<path d="M90.883 46.9787C90.883 47.5428 90.4391 48 89.8914 48C89.3438 48 88.8998 47.5428 88.8998 46.9787C88.8998 46.4147 89.3438 45.9575 89.8914 45.9575C90.4391 45.9575 90.883 46.4147 90.883 46.9787Z" fill="#4A399D"/>
<path d="M90.883 43.9149C90.883 44.4789 90.4391 44.9362 89.8914 44.9362C89.3438 44.9362 88.8998 44.4789 88.8998 43.9149C88.8998 43.3509 89.3438 42.8936 89.8914 42.8936C90.4391 42.8936 90.883 43.3509 90.883 43.9149Z" fill="#4A399D"/>
<path d="M90.883 40.8511C90.883 41.4151 90.4391 41.8724 89.8914 41.8724C89.3438 41.8724 88.8998 41.4151 88.8998 40.8511C88.8998 40.2871 89.3438 39.8298 89.8914 39.8298C90.4391 39.8298 90.883 40.2871 90.883 40.8511Z" fill="#4A399D"/>
<path d="M93.8578 46.9787C93.8578 47.5428 93.4139 48 92.8662 48C92.3186 48 91.8746 47.5428 91.8746 46.9787C91.8746 46.4147 92.3186 45.9575 92.8662 45.9575C93.4139 45.9575 93.8578 46.4147 93.8578 46.9787Z" fill="#4A399D"/>
<path d="M93.8578 43.9149C93.8578 44.4789 93.4139 44.9362 92.8662 44.9362C92.3186 44.9362 91.8746 44.4789 91.8746 43.9149C91.8746 43.3509 92.3186 42.8936 92.8662 42.8936C93.4139 42.8936 93.8578 43.3509 93.8578 43.9149Z" fill="#4A399D"/>
<path d="M93.8578 40.8511C93.8578 41.4151 93.4139 41.8724 92.8662 41.8724C92.3186 41.8724 91.8746 41.4151 91.8746 40.8511C91.8746 40.2871 92.3186 39.8298 92.8662 39.8298C93.4139 39.8298 93.8578 40.2871 93.8578 40.8511Z" fill="#4A399D"/>
<path d="M96.8326 46.9787C96.8326 47.5428 96.3887 48 95.841 48C95.2934 48 94.8494 47.5428 94.8494 46.9787C94.8494 46.4147 95.2934 45.9575 95.841 45.9575C96.3887 45.9575 96.8326 46.4147 96.8326 46.9787Z" fill="#4A399D"/>
<path d="M96.8326 43.9149C96.8326 44.4789 96.3887 44.9362 95.841 44.9362C95.2934 44.9362 94.8494 44.4789 94.8494 43.9149C94.8494 43.3509 95.2934 42.8936 95.841 42.8936C96.3887 42.8936 96.8326 43.3509 96.8326 43.9149Z" fill="#4A399D"/>
<path d="M96.8326 40.8511C96.8326 41.4151 96.3887 41.8724 95.841 41.8724C95.2934 41.8724 94.8494 41.4151 94.8494 40.8511C94.8494 40.2871 95.2934 39.8298 95.841 39.8298C96.3887 39.8298 96.8326 40.2871 96.8326 40.8511Z" fill="#4A399D"/>
<path d="M99.8074 46.9787C99.8074 47.5428 99.3634 48 98.8158 48C98.2682 48 97.8242 47.5428 97.8242 46.9787C97.8242 46.4147 98.2682 45.9575 98.8158 45.9575C99.3634 45.9575 99.8074 46.4147 99.8074 46.9787Z" fill="#4A399D"/>
<path d="M99.8074 43.9149C99.8074 44.4789 99.3634 44.9362 98.8158 44.9362C98.2682 44.9362 97.8242 44.4789 97.8242 43.9149C97.8242 43.3509 98.2682 42.8936 98.8158 42.8936C99.3634 42.8936 99.8074 43.3509 99.8074 43.9149Z" fill="#4A399D"/>
<path d="M99.8074 40.8511C99.8074 41.4151 99.3634 41.8724 98.8158 41.8724C98.2682 41.8724 97.8242 41.4151 97.8242 40.8511C97.8242 40.2871 98.2682 39.8298 98.8158 39.8298C99.3634 39.8298 99.8074 40.2871 99.8074 40.8511Z" fill="#4A399D"/>
<path d="M102.782 46.9787C102.782 47.5428 102.338 48 101.791 48C101.243 48 100.799 47.5428 100.799 46.9787C100.799 46.4147 101.243 45.9575 101.791 45.9575C102.338 45.9575 102.782 46.4147 102.782 46.9787Z" fill="#4A399D"/>
<path d="M102.782 43.9149C102.782 44.4789 102.338 44.9362 101.791 44.9362C101.243 44.9362 100.799 44.4789 100.799 43.9149C100.799 43.3509 101.243 42.8936 101.791 42.8936C102.338 42.8936 102.782 43.3509 102.782 43.9149Z" fill="#4A399D"/>
<path d="M102.782 40.8511C102.782 41.4151 102.338 41.8724 101.791 41.8724C101.243 41.8724 100.799 41.4151 100.799 40.8511C100.799 40.2871 101.243 39.8298 101.791 39.8298C102.338 39.8298 102.782 40.2871 102.782 40.8511Z" fill="#4A399D"/>
<path d="M105.757 46.9787C105.757 47.5428 105.313 48 104.765 48C104.218 48 103.774 47.5428 103.774 46.9787C103.774 46.4147 104.218 45.9575 104.765 45.9575C105.313 45.9575 105.757 46.4147 105.757 46.9787Z" fill="#4A399D"/>
<path d="M105.757 43.9149C105.757 44.4789 105.313 44.9362 104.765 44.9362C104.218 44.9362 103.774 44.4789 103.774 43.9149C103.774 43.3509 104.218 42.8936 104.765 42.8936C105.313 42.8936 105.757 43.3509 105.757 43.9149Z" fill="#4A399D"/>
<path d="M105.757 40.8511C105.757 41.4151 105.313 41.8724 104.765 41.8724C104.218 41.8724 103.774 41.4151 103.774 40.8511C103.774 40.2871 104.218 39.8298 104.765 39.8298C105.313 39.8298 105.757 40.2871 105.757 40.8511Z" fill="#4A399D"/>
<path d="M108.732 46.9787C108.732 47.5428 108.288 48 107.74 48C107.193 48 106.749 47.5428 106.749 46.9787C106.749 46.4147 107.193 45.9575 107.74 45.9575C108.288 45.9575 108.732 46.4147 108.732 46.9787Z" fill="#4A399D"/>
<path d="M108.732 43.9149C108.732 44.4789 108.288 44.9362 107.74 44.9362C107.193 44.9362 106.749 44.4789 106.749 43.9149C106.749 43.3509 107.193 42.8936 107.74 42.8936C108.288 42.8936 108.732 43.3509 108.732 43.9149Z" fill="#4A399D"/>
<path d="M108.732 40.8511C108.732 41.4151 108.288 41.8724 107.74 41.8724C107.193 41.8724 106.749 41.4151 106.749 40.8511C106.749 40.2871 107.193 39.8298 107.74 39.8298C108.288 39.8298 108.732 40.2871 108.732 40.8511Z" fill="#4A399D"/>
<path d="M111.707 46.9787C111.707 47.5428 111.263 48 110.715 48C110.167 48 109.723 47.5428 109.723 46.9787C109.723 46.4147 110.167 45.9575 110.715 45.9575C111.263 45.9575 111.707 46.4147 111.707 46.9787Z" fill="#4A399D"/>
<path d="M111.707 43.9149C111.707 44.4789 111.263 44.9362 110.715 44.9362C110.167 44.9362 109.723 44.4789 109.723 43.9149C109.723 43.3509 110.167 42.8936 110.715 42.8936C111.263 42.8936 111.707 43.3509 111.707 43.9149Z" fill="#4A399D"/>
<path d="M111.707 40.8511C111.707 41.4151 111.263 41.8724 110.715 41.8724C110.167 41.8724 109.723 41.4151 109.723 40.8511C109.723 40.2871 110.167 39.8298 110.715 39.8298C111.263 39.8298 111.707 40.2871 111.707 40.8511Z" fill="#4A399D"/>
<path d="M114.681 46.9787C114.681 47.5428 114.237 48 113.69 48C113.142 48 112.698 47.5428 112.698 46.9787C112.698 46.4147 113.142 45.9575 113.69 45.9575C114.237 45.9575 114.681 46.4147 114.681 46.9787Z" fill="#4A399D"/>
<path d="M114.681 43.9149C114.681 44.4789 114.237 44.9362 113.69 44.9362C113.142 44.9362 112.698 44.4789 112.698 43.9149C112.698 43.3509 113.142 42.8936 113.69 42.8936C114.237 42.8936 114.681 43.3509 114.681 43.9149Z" fill="#4A399D"/>
<path d="M114.681 40.8511C114.681 41.4151 114.237 41.8724 113.69 41.8724C113.142 41.8724 112.698 41.4151 112.698 40.8511C112.698 40.2871 113.142 39.8298 113.69 39.8298C114.237 39.8298 114.681 40.2871 114.681 40.8511Z" fill="#4A399D"/>
<path d="M117.656 46.9787C117.656 47.5428 117.212 48 116.665 48C116.117 48 115.673 47.5428 115.673 46.9787C115.673 46.4147 116.117 45.9575 116.665 45.9575C117.212 45.9575 117.656 46.4147 117.656 46.9787Z" fill="#4A399D"/>
<path d="M117.656 43.9149C117.656 44.4789 117.212 44.9362 116.665 44.9362C116.117 44.9362 115.673 44.4789 115.673 43.9149C115.673 43.3509 116.117 42.8936 116.665 42.8936C117.212 42.8936 117.656 43.3509 117.656 43.9149Z" fill="#4A399D"/>
<path d="M117.656 40.8511C117.656 41.4151 117.212 41.8724 116.665 41.8724C116.117 41.8724 115.673 41.4151 115.673 40.8511C115.673 40.2871 116.117 39.8298 116.665 39.8298C117.212 39.8298 117.656 40.2871 117.656 40.8511Z" fill="#4A399D"/>
<path d="M120.631 46.9787C120.631 47.5428 120.187 48 119.639 48C119.092 48 118.648 47.5428 118.648 46.9787C118.648 46.4147 119.092 45.9575 119.639 45.9575C120.187 45.9575 120.631 46.4147 120.631 46.9787Z" fill="#4A399D"/>
<path d="M120.631 43.9149C120.631 44.4789 120.187 44.9362 119.639 44.9362C119.092 44.9362 118.648 44.4789 118.648 43.9149C118.648 43.3509 119.092 42.8936 119.639 42.8936C120.187 42.8936 120.631 43.3509 120.631 43.9149Z" fill="#4A399D"/>
<path d="M120.631 40.8511C120.631 41.4151 120.187 41.8724 119.639 41.8724C119.092 41.8724 118.648 41.4151 118.648 40.8511C118.648 40.2871 119.092 39.8298 119.639 39.8298C120.187 39.8298 120.631 40.2871 120.631 40.8511Z" fill="#4A399D"/>
<path d="M123.606 46.9787C123.606 47.5428 123.162 48 122.614 48C122.066 48 121.623 47.5428 121.623 46.9787C121.623 46.4147 122.066 45.9575 122.614 45.9575C123.162 45.9575 123.606 46.4147 123.606 46.9787Z" fill="#4A399D"/>
<path d="M123.606 43.9149C123.606 44.4789 123.162 44.9362 122.614 44.9362C122.066 44.9362 121.623 44.4789 121.623 43.9149C121.623 43.3509 122.066 42.8936 122.614 42.8936C123.162 42.8936 123.606 43.3509 123.606 43.9149Z" fill="#4A399D"/>
<path d="M123.606 40.8511C123.606 41.4151 123.162 41.8724 122.614 41.8724C122.066 41.8724 121.623 41.4151 121.623 40.8511C121.623 40.2871 122.066 39.8298 122.614 39.8298C123.162 39.8298 123.606 40.2871 123.606 40.8511Z" fill="#4A399D"/>
<path d="M126.581 46.9787C126.581 47.5428 126.137 48 125.589 48C125.041 48 124.597 47.5428 124.597 46.9787C124.597 46.4147 125.041 45.9575 125.589 45.9575C126.137 45.9575 126.581 46.4147 126.581 46.9787Z" fill="#4A399D"/>
<path d="M126.581 43.9149C126.581 44.4789 126.137 44.9362 125.589 44.9362C125.041 44.9362 124.597 44.4789 124.597 43.9149C124.597 43.3509 125.041 42.8936 125.589 42.8936C126.137 42.8936 126.581 43.3509 126.581 43.9149Z" fill="#4A399D"/>
<path d="M126.581 40.8511C126.581 41.4151 126.137 41.8724 125.589 41.8724C125.041 41.8724 124.597 41.4151 124.597 40.8511C124.597 40.2871 125.041 39.8298 125.589 39.8298C126.137 39.8298 126.581 40.2871 126.581 40.8511Z" fill="#4A399D"/>
<path d="M129.555 46.9787C129.555 47.5428 129.111 48 128.564 48C128.016 48 127.572 47.5428 127.572 46.9787C127.572 46.4147 128.016 45.9575 128.564 45.9575C129.111 45.9575 129.555 46.4147 129.555 46.9787Z" fill="#4A399D"/>
<path d="M129.555 43.9149C129.555 44.4789 129.111 44.9362 128.564 44.9362C128.016 44.9362 127.572 44.4789 127.572 43.9149C127.572 43.3509 128.016 42.8936 128.564 42.8936C129.111 42.8936 129.555 43.3509 129.555 43.9149Z" fill="#4A399D"/>
<path d="M129.555 40.8511C129.555 41.4151 129.111 41.8724 128.564 41.8724C128.016 41.8724 127.572 41.4151 127.572 40.8511C127.572 40.2871 128.016 39.8298 128.564 39.8298C129.111 39.8298 129.555 40.2871 129.555 40.8511Z" fill="#4A399D"/>
<path d="M132.53 46.9787C132.53 47.5428 132.086 48 131.539 48C130.991 48 130.547 47.5428 130.547 46.9787C130.547 46.4147 130.991 45.9575 131.539 45.9575C132.086 45.9575 132.53 46.4147 132.53 46.9787Z" fill="#4A399D"/>
<path d="M132.53 43.9149C132.53 44.4789 132.086 44.9362 131.539 44.9362C130.991 44.9362 130.547 44.4789 130.547 43.9149C130.547 43.3509 130.991 42.8936 131.539 42.8936C132.086 42.8936 132.53 43.3509 132.53 43.9149Z" fill="#4A399D"/>
<path d="M132.53 40.8511C132.53 41.4151 132.086 41.8724 131.539 41.8724C130.991 41.8724 130.547 41.4151 130.547 40.8511C130.547 40.2871 130.991 39.8298 131.539 39.8298C132.086 39.8298 132.53 40.2871 132.53 40.8511Z" fill="#4A399D"/>
<path d="M135.505 46.9787C135.505 47.5428 135.061 48 134.513 48C133.966 48 133.522 47.5428 133.522 46.9787C133.522 46.4147 133.966 45.9575 134.513 45.9575C135.061 45.9575 135.505 46.4147 135.505 46.9787Z" fill="#4A399D"/>
<path d="M135.505 43.9149C135.505 44.4789 135.061 44.9362 134.513 44.9362C133.966 44.9362 133.522 44.4789 133.522 43.9149C133.522 43.3509 133.966 42.8936 134.513 42.8936C135.061 42.8936 135.505 43.3509 135.505 43.9149Z" fill="#4A399D"/>
<path d="M135.505 40.8511C135.505 41.4151 135.061 41.8724 134.513 41.8724C133.966 41.8724 133.522 41.4151 133.522 40.8511C133.522 40.2871 133.966 39.8298 134.513 39.8298C135.061 39.8298 135.505 40.2871 135.505 40.8511Z" fill="#4A399D"/>
<path d="M138.48 46.9787C138.48 47.5428 138.036 48 137.488 48C136.941 48 136.497 47.5428 136.497 46.9787C136.497 46.4147 136.941 45.9575 137.488 45.9575C138.036 45.9575 138.48 46.4147 138.48 46.9787Z" fill="#4A399D"/>
<path d="M138.48 43.9149C138.48 44.4789 138.036 44.9362 137.488 44.9362C136.941 44.9362 136.497 44.4789 136.497 43.9149C136.497 43.3509 136.941 42.8936 137.488 42.8936C138.036 42.8936 138.48 43.3509 138.48 43.9149Z" fill="#4A399D"/>
<path d="M138.48 40.8511C138.48 41.4151 138.036 41.8724 137.488 41.8724C136.941 41.8724 136.497 41.4151 136.497 40.8511C136.497 40.2871 136.941 39.8298 137.488 39.8298C138.036 39.8298 138.48 40.2871 138.48 40.8511Z" fill="#4A399D"/>
<path d="M141.455 46.9787C141.455 47.5428 141.011 48 140.463 48C139.915 48 139.471 47.5428 139.471 46.9787C139.471 46.4147 139.915 45.9575 140.463 45.9575C141.011 45.9575 141.455 46.4147 141.455 46.9787Z" fill="#4A399D"/>
<path d="M141.455 43.9149C141.455 44.4789 141.011 44.9362 140.463 44.9362C139.915 44.9362 139.471 44.4789 139.471 43.9149C139.471 43.3509 139.915 42.8936 140.463 42.8936C141.011 42.8936 141.455 43.3509 141.455 43.9149Z" fill="#4A399D"/>
<path d="M141.455 40.8511C141.455 41.4151 141.011 41.8724 140.463 41.8724C139.915 41.8724 139.471 41.4151 139.471 40.8511C139.471 40.2871 139.915 39.8298 140.463 39.8298C141.011 39.8298 141.455 40.2871 141.455 40.8511Z" fill="#4A399D"/>
<path d="M144.429 46.9787C144.429 47.5428 143.985 48 143.438 48C142.89 48 142.446 47.5428 142.446 46.9787C142.446 46.4147 142.89 45.9575 143.438 45.9575C143.985 45.9575 144.429 46.4147 144.429 46.9787Z" fill="#4A399D"/>
<path d="M144.429 43.9149C144.429 44.4789 143.985 44.9362 143.438 44.9362C142.89 44.9362 142.446 44.4789 142.446 43.9149C142.446 43.3509 142.89 42.8936 143.438 42.8936C143.985 42.8936 144.429 43.3509 144.429 43.9149Z" fill="#4A399D"/>
<path d="M144.429 40.8511C144.429 41.4151 143.985 41.8724 143.438 41.8724C142.89 41.8724 142.446 41.4151 142.446 40.8511C142.446 40.2871 142.89 39.8298 143.438 39.8298C143.985 39.8298 144.429 40.2871 144.429 40.8511Z" fill="#4A399D"/>
<path d="M147.404 46.9787C147.404 47.5428 146.96 48 146.413 48C145.865 48 145.421 47.5428 145.421 46.9787C145.421 46.4147 145.865 45.9575 146.413 45.9575C146.96 45.9575 147.404 46.4147 147.404 46.9787Z" fill="#4A399D"/>
<path d="M147.404 43.9149C147.404 44.4789 146.96 44.9362 146.413 44.9362C145.865 44.9362 145.421 44.4789 145.421 43.9149C145.421 43.3509 145.865 42.8936 146.413 42.8936C146.96 42.8936 147.404 43.3509 147.404 43.9149Z" fill="#4A399D"/>
<path d="M147.404 40.8511C147.404 41.4151 146.96 41.8724 146.413 41.8724C145.865 41.8724 145.421 41.4151 145.421 40.8511C145.421 40.2871 145.865 39.8298 146.413 39.8298C146.96 39.8298 147.404 40.2871 147.404 40.8511Z" fill="#4A399D"/>
<path d="M150.379 46.9787C150.379 47.5428 149.935 48 149.387 48C148.84 48 148.396 47.5428 148.396 46.9787C148.396 46.4147 148.84 45.9575 149.387 45.9575C149.935 45.9575 150.379 46.4147 150.379 46.9787Z" fill="#4A399D"/>
<path d="M150.379 43.9149C150.379 44.4789 149.935 44.9362 149.387 44.9362C148.84 44.9362 148.396 44.4789 148.396 43.9149C148.396 43.3509 148.84 42.8936 149.387 42.8936C149.935 42.8936 150.379 43.3509 150.379 43.9149Z" fill="#4A399D"/>
<path d="M150.379 40.8511C150.379 41.4151 149.935 41.8724 149.387 41.8724C148.84 41.8724 148.396 41.4151 148.396 40.8511C148.396 40.2871 148.84 39.8298 149.387 39.8298C149.935 39.8298 150.379 40.2871 150.379 40.8511Z" fill="#4A399D"/>
<path d="M153.354 46.9787C153.354 47.5428 152.91 48 152.362 48C151.814 48 151.37 47.5428 151.37 46.9787C151.37 46.4147 151.814 45.9575 152.362 45.9575C152.91 45.9575 153.354 46.4147 153.354 46.9787Z" fill="#4A399D"/>
<path d="M153.354 43.9149C153.354 44.4789 152.91 44.9362 152.362 44.9362C151.814 44.9362 151.37 44.4789 151.37 43.9149C151.37 43.3509 151.814 42.8936 152.362 42.8936C152.91 42.8936 153.354 43.3509 153.354 43.9149Z" fill="#4A399D"/>
<path d="M153.354 40.8511C153.354 41.4151 152.91 41.8724 152.362 41.8724C151.814 41.8724 151.37 41.4151 151.37 40.8511C151.37 40.2871 151.814 39.8298 152.362 39.8298C152.91 39.8298 153.354 40.2871 153.354 40.8511Z" fill="#4A399D"/>
<path d="M156.328 46.9787C156.328 47.5428 155.885 48 155.337 48C154.789 48 154.345 47.5428 154.345 46.9787C154.345 46.4147 154.789 45.9575 155.337 45.9575C155.885 45.9575 156.328 46.4147 156.328 46.9787Z" fill="#4A399D"/>
<path d="M156.328 43.9149C156.328 44.4789 155.885 44.9362 155.337 44.9362C154.789 44.9362 154.345 44.4789 154.345 43.9149C154.345 43.3509 154.789 42.8936 155.337 42.8936C155.885 42.8936 156.328 43.3509 156.328 43.9149Z" fill="#4A399D"/>
<path d="M156.328 40.8511C156.328 41.4151 155.885 41.8724 155.337 41.8724C154.789 41.8724 154.345 41.4151 154.345 40.8511C154.345 40.2871 154.789 39.8298 155.337 39.8298C155.885 39.8298 156.328 40.2871 156.328 40.8511Z" fill="#4A399D"/>
<path d="M159.303 46.9787C159.303 47.5428 158.859 48 158.312 48C157.764 48 157.32 47.5428 157.32 46.9787C157.32 46.4147 157.764 45.9575 158.312 45.9575C158.859 45.9575 159.303 46.4147 159.303 46.9787Z" fill="#4A399D"/>
<path d="M159.303 43.9149C159.303 44.4789 158.859 44.9362 158.312 44.9362C157.764 44.9362 157.32 44.4789 157.32 43.9149C157.32 43.3509 157.764 42.8936 158.312 42.8936C158.859 42.8936 159.303 43.3509 159.303 43.9149Z" fill="#4A399D"/>
<path d="M159.303 40.8511C159.303 41.4151 158.859 41.8724 158.312 41.8724C157.764 41.8724 157.32 41.4151 157.32 40.8511C157.32 40.2871 157.764 39.8298 158.312 39.8298C158.859 39.8298 159.303 40.2871 159.303 40.8511Z" fill="#4A399D"/>
<path d="M162.278 46.9787C162.278 47.5428 161.834 48 161.286 48C160.739 48 160.295 47.5428 160.295 46.9787C160.295 46.4147 160.739 45.9575 161.286 45.9575C161.834 45.9575 162.278 46.4147 162.278 46.9787Z" fill="#4A399D"/>
<path d="M162.278 43.9149C162.278 44.4789 161.834 44.9362 161.286 44.9362C160.739 44.9362 160.295 44.4789 160.295 43.9149C160.295 43.3509 160.739 42.8936 161.286 42.8936C161.834 42.8936 162.278 43.3509 162.278 43.9149Z" fill="#4A399D"/>
<path d="M162.278 40.8511C162.278 41.4151 161.834 41.8724 161.286 41.8724C160.739 41.8724 160.295 41.4151 160.295 40.8511C160.295 40.2871 160.739 39.8298 161.286 39.8298C161.834 39.8298 162.278 40.2871 162.278 40.8511Z" fill="#4A399D"/>
<path d="M165.253 46.9787C165.253 47.5428 164.809 48 164.261 48C163.714 48 163.27 47.5428 163.27 46.9787C163.27 46.4147 163.714 45.9575 164.261 45.9575C164.809 45.9575 165.253 46.4147 165.253 46.9787Z" fill="#4A399D"/>
<path d="M165.253 43.9149C165.253 44.4789 164.809 44.9362 164.261 44.9362C163.714 44.9362 163.27 44.4789 163.27 43.9149C163.27 43.3509 163.714 42.8936 164.261 42.8936C164.809 42.8936 165.253 43.3509 165.253 43.9149Z" fill="#4A399D"/>
<path d="M165.253 40.8511C165.253 41.4151 164.809 41.8724 164.261 41.8724C163.714 41.8724 163.27 41.4151 163.27 40.8511C163.27 40.2871 163.714 39.8298 164.261 39.8298C164.809 39.8298 165.253 40.2871 165.253 40.8511Z" fill="#4A399D"/>
<path d="M168.228 46.9787C168.228 47.5428 167.784 48 167.236 48C166.688 48 166.244 47.5428 166.244 46.9787C166.244 46.4147 166.688 45.9575 167.236 45.9575C167.784 45.9575 168.228 46.4147 168.228 46.9787Z" fill="#4A399D"/>
<path d="M168.228 43.9149C168.228 44.4789 167.784 44.9362 167.236 44.9362C166.688 44.9362 166.244 44.4789 166.244 43.9149C166.244 43.3509 166.688 42.8936 167.236 42.8936C167.784 42.8936 168.228 43.3509 168.228 43.9149Z" fill="#4A399D"/>
<path d="M168.228 40.8511C168.228 41.4151 167.784 41.8724 167.236 41.8724C166.688 41.8724 166.244 41.4151 166.244 40.8511C166.244 40.2871 166.688 39.8298 167.236 39.8298C167.784 39.8298 168.228 40.2871 168.228 40.8511Z" fill="#4A399D"/>
<path d="M171.202 46.9787C171.202 47.5428 170.758 48 170.211 48C169.663 48 169.219 47.5428 169.219 46.9787C169.219 46.4147 169.663 45.9575 170.211 45.9575C170.758 45.9575 171.202 46.4147 171.202 46.9787Z" fill="#4A399D"/>
<path d="M171.202 43.9149C171.202 44.4789 170.758 44.9362 170.211 44.9362C169.663 44.9362 169.219 44.4789 169.219 43.9149C169.219 43.3509 169.663 42.8936 170.211 42.8936C170.758 42.8936 171.202 43.3509 171.202 43.9149Z" fill="#4A399D"/>
<path d="M171.202 40.8511C171.202 41.4151 170.758 41.8724 170.211 41.8724C169.663 41.8724 169.219 41.4151 169.219 40.8511C169.219 40.2871 169.663 39.8298 170.211 39.8298C170.758 39.8298 171.202 40.2871 171.202 40.8511Z" fill="#4A399D"/>
<path d="M174.177 46.9787C174.177 47.5428 173.733 48 173.186 48C172.638 48 172.194 47.5428 172.194 46.9787C172.194 46.4147 172.638 45.9575 173.186 45.9575C173.733 45.9575 174.177 46.4147 174.177 46.9787Z" fill="#4A399D"/>
<path d="M174.177 43.9149C174.177 44.4789 173.733 44.9362 173.186 44.9362C172.638 44.9362 172.194 44.4789 172.194 43.9149C172.194 43.3509 172.638 42.8936 173.186 42.8936C173.733 42.8936 174.177 43.3509 174.177 43.9149Z" fill="#4A399D"/>
<path d="M174.177 40.8511C174.177 41.4151 173.733 41.8724 173.186 41.8724C172.638 41.8724 172.194 41.4151 172.194 40.8511C172.194 40.2871 172.638 39.8298 173.186 39.8298C173.733 39.8298 174.177 40.2871 174.177 40.8511Z" fill="#4A399D"/>
<path d="M177.152 46.9787C177.152 47.5428 176.708 48 176.16 48C175.613 48 175.169 47.5428 175.169 46.9787C175.169 46.4147 175.613 45.9575 176.16 45.9575C176.708 45.9575 177.152 46.4147 177.152 46.9787Z" fill="#4A399D"/>
<path d="M177.152 43.9149C177.152 44.4789 176.708 44.9362 176.16 44.9362C175.613 44.9362 175.169 44.4789 175.169 43.9149C175.169 43.3509 175.613 42.8936 176.16 42.8936C176.708 42.8936 177.152 43.3509 177.152 43.9149Z" fill="#4A399D"/>
<path d="M177.152 40.8511C177.152 41.4151 176.708 41.8724 176.16 41.8724C175.613 41.8724 175.169 41.4151 175.169 40.8511C175.169 40.2871 175.613 39.8298 176.16 39.8298C176.708 39.8298 177.152 40.2871 177.152 40.8511Z" fill="#4A399D"/>
<path d="M180.127 46.9787C180.127 47.5428 179.683 48 179.135 48C178.588 48 178.144 47.5428 178.144 46.9787C178.144 46.4147 178.588 45.9575 179.135 45.9575C179.683 45.9575 180.127 46.4147 180.127 46.9787Z" fill="#4A399D"/>
<path d="M180.127 43.9149C180.127 44.4789 179.683 44.9362 179.135 44.9362C178.588 44.9362 178.144 44.4789 178.144 43.9149C178.144 43.3509 178.588 42.8936 179.135 42.8936C179.683 42.8936 180.127 43.3509 180.127 43.9149Z" fill="#4A399D"/>
<path d="M180.127 40.8511C180.127 41.4151 179.683 41.8724 179.135 41.8724C178.588 41.8724 178.144 41.4151 178.144 40.8511C178.144 40.2871 178.588 39.8298 179.135 39.8298C179.683 39.8298 180.127 40.2871 180.127 40.8511Z" fill="#4A399D"/>
<path d="M183.102 46.9787C183.102 47.5428 182.658 48 182.11 48C181.562 48 181.118 47.5428 181.118 46.9787C181.118 46.4147 181.562 45.9575 182.11 45.9575C182.658 45.9575 183.102 46.4147 183.102 46.9787Z" fill="#4A399D"/>
<path d="M183.102 43.9149C183.102 44.4789 182.658 44.9362 182.11 44.9362C181.562 44.9362 181.118 44.4789 181.118 43.9149C181.118 43.3509 181.562 42.8936 182.11 42.8936C182.658 42.8936 183.102 43.3509 183.102 43.9149Z" fill="#4A399D"/>
<path d="M183.102 40.8511C183.102 41.4151 182.658 41.8724 182.11 41.8724C181.562 41.8724 181.118 41.4151 181.118 40.8511C181.118 40.2871 181.562 39.8298 182.11 39.8298C182.658 39.8298 183.102 40.2871 183.102 40.8511Z" fill="#4A399D"/>
<path d="M186.076 46.9787C186.076 47.5428 185.632 48 185.085 48C184.537 48 184.093 47.5428 184.093 46.9787C184.093 46.4147 184.537 45.9575 185.085 45.9575C185.632 45.9575 186.076 46.4147 186.076 46.9787Z" fill="#4A399D"/>
<path d="M186.076 43.9149C186.076 44.4789 185.632 44.9362 185.085 44.9362C184.537 44.9362 184.093 44.4789 184.093 43.9149C184.093 43.3509 184.537 42.8936 185.085 42.8936C185.632 42.8936 186.076 43.3509 186.076 43.9149Z" fill="#4A399D"/>
<path d="M186.076 40.8511C186.076 41.4151 185.632 41.8724 185.085 41.8724C184.537 41.8724 184.093 41.4151 184.093 40.8511C184.093 40.2871 184.537 39.8298 185.085 39.8298C185.632 39.8298 186.076 40.2871 186.076 40.8511Z" fill="#4A399D"/>
<path d="M189.051 46.9787C189.051 47.5428 188.607 48 188.06 48C187.512 48 187.068 47.5428 187.068 46.9787C187.068 46.4147 187.512 45.9575 188.06 45.9575C188.607 45.9575 189.051 46.4147 189.051 46.9787Z" fill="#4A399D"/>
<path d="M189.051 43.9149C189.051 44.4789 188.607 44.9362 188.06 44.9362C187.512 44.9362 187.068 44.4789 187.068 43.9149C187.068 43.3509 187.512 42.8936 188.06 42.8936C188.607 42.8936 189.051 43.3509 189.051 43.9149Z" fill="#4A399D"/>
<path d="M189.051 40.8511C189.051 41.4151 188.607 41.8724 188.06 41.8724C187.512 41.8724 187.068 41.4151 187.068 40.8511C187.068 40.2871 187.512 39.8298 188.06 39.8298C188.607 39.8298 189.051 40.2871 189.051 40.8511Z" fill="#4A399D"/>
<path d="M192.026 46.9787C192.026 47.5428 191.582 48 191.034 48C190.487 48 190.043 47.5428 190.043 46.9787C190.043 46.4147 190.487 45.9575 191.034 45.9575C191.582 45.9575 192.026 46.4147 192.026 46.9787Z" fill="#4A399D"/>
<path d="M192.026 43.9149C192.026 44.4789 191.582 44.9362 191.034 44.9362C190.487 44.9362 190.043 44.4789 190.043 43.9149C190.043 43.3509 190.487 42.8936 191.034 42.8936C191.582 42.8936 192.026 43.3509 192.026 43.9149Z" fill="#4A399D"/>
<path d="M192.026 40.8511C192.026 41.4151 191.582 41.8724 191.034 41.8724C190.487 41.8724 190.043 41.4151 190.043 40.8511C190.043 40.2871 190.487 39.8298 191.034 39.8298C191.582 39.8298 192.026 40.2871 192.026 40.8511Z" fill="#4A399D"/>
<path d="M195.001 46.9787C195.001 47.5428 194.557 48 194.009 48C193.462 48 193.018 47.5428 193.018 46.9787C193.018 46.4147 193.462 45.9575 194.009 45.9575C194.557 45.9575 195.001 46.4147 195.001 46.9787Z" fill="#4A399D"/>
<path d="M195.001 43.9149C195.001 44.4789 194.557 44.9362 194.009 44.9362C193.462 44.9362 193.018 44.4789 193.018 43.9149C193.018 43.3509 193.462 42.8936 194.009 42.8936C194.557 42.8936 195.001 43.3509 195.001 43.9149Z" fill="#4A399D"/>
<path d="M195.001 40.8511C195.001 41.4151 194.557 41.8724 194.009 41.8724C193.462 41.8724 193.018 41.4151 193.018 40.8511C193.018 40.2871 193.462 39.8298 194.009 39.8298C194.557 39.8298 195.001 40.2871 195.001 40.8511Z" fill="#4A399D"/>
<path d="M189.051 37.7873C189.051 38.3513 188.607 38.8086 188.06 38.8086C187.512 38.8086 187.068 38.3513 187.068 37.7873C187.068 37.2233 187.512 36.766 188.06 36.766C188.607 36.766 189.051 37.2233 189.051 37.7873Z" fill="#4A399D"/>
<path d="M189.051 34.7235C189.051 35.2875 188.607 35.7447 188.06 35.7447C187.512 35.7447 187.068 35.2875 187.068 34.7235C187.068 34.1594 187.512 33.7022 188.06 33.7022C188.607 33.7022 189.051 34.1594 189.051 34.7235Z" fill="#4A399D"/>
<path d="M189.051 31.6597C189.051 32.2237 188.607 32.6809 188.06 32.6809C187.512 32.6809 187.068 32.2237 187.068 31.6597C187.068 31.0956 187.512 30.6384 188.06 30.6384C188.607 30.6384 189.051 31.0956 189.051 31.6597Z" fill="#4A399D"/>
<path d="M192.026 37.7873C192.026 38.3513 191.582 38.8086 191.034 38.8086C190.487 38.8086 190.043 38.3513 190.043 37.7873C190.043 37.2233 190.487 36.766 191.034 36.766C191.582 36.766 192.026 37.2233 192.026 37.7873Z" fill="#4A399D"/>
<path d="M192.026 34.7235C192.026 35.2875 191.582 35.7447 191.034 35.7447C190.487 35.7447 190.043 35.2875 190.043 34.7235C190.043 34.1594 190.487 33.7022 191.034 33.7022C191.582 33.7022 192.026 34.1594 192.026 34.7235Z" fill="#4A399D"/>
<path d="M192.026 31.6597C192.026 32.2237 191.582 32.6809 191.034 32.6809C190.487 32.6809 190.043 32.2237 190.043 31.6597C190.043 31.0956 190.487 30.6384 191.034 30.6384C191.582 30.6384 192.026 31.0956 192.026 31.6597Z" fill="#4A399D"/>
<path d="M195.001 37.7873C195.001 38.3513 194.557 38.8086 194.009 38.8086C193.462 38.8086 193.018 38.3513 193.018 37.7873C193.018 37.2233 193.462 36.766 194.009 36.766C194.557 36.766 195.001 37.2233 195.001 37.7873Z" fill="#4A399D"/>
<path d="M195.001 34.7235C195.001 35.2875 194.557 35.7447 194.009 35.7447C193.462 35.7447 193.018 35.2875 193.018 34.7235C193.018 34.1594 193.462 33.7022 194.009 33.7022C194.557 33.7022 195.001 34.1594 195.001 34.7235Z" fill="#4A399D"/>
<path d="M195.001 31.6597C195.001 32.2237 194.557 32.6809 194.009 32.6809C193.462 32.6809 193.018 32.2237 193.018 31.6597C193.018 31.0956 193.462 30.6384 194.009 30.6384C194.557 30.6384 195.001 31.0956 195.001 31.6597Z" fill="#4A399D"/>
<path d="M189.051 28.5958C189.051 29.1599 188.607 29.6171 188.06 29.6171C187.512 29.6171 187.068 29.1599 187.068 28.5958C187.068 28.0318 187.512 27.5746 188.06 27.5746C188.607 27.5746 189.051 28.0318 189.051 28.5958Z" fill="#4A399D"/>
<path d="M189.051 25.532C189.051 26.0961 188.607 26.5533 188.06 26.5533C187.512 26.5533 187.068 26.0961 187.068 25.532C187.068 24.968 187.512 24.5108 188.06 24.5108C188.607 24.5108 189.051 24.968 189.051 25.532Z" fill="#4A399D"/>
<path d="M189.051 22.4682C189.051 23.0322 188.607 23.4895 188.06 23.4895C187.512 23.4895 187.068 23.0322 187.068 22.4682C187.068 21.9042 187.512 21.4469 188.06 21.4469C188.607 21.4469 189.051 21.9042 189.051 22.4682Z" fill="#4A399D"/>
<path d="M192.026 28.5958C192.026 29.1599 191.582 29.6171 191.034 29.6171C190.487 29.6171 190.043 29.1599 190.043 28.5958C190.043 28.0318 190.487 27.5746 191.034 27.5746C191.582 27.5746 192.026 28.0318 192.026 28.5958Z" fill="#4A399D"/>
<path d="M192.026 25.532C192.026 26.0961 191.582 26.5533 191.034 26.5533C190.487 26.5533 190.043 26.0961 190.043 25.532C190.043 24.968 190.487 24.5108 191.034 24.5108C191.582 24.5108 192.026 24.968 192.026 25.532Z" fill="#4A399D"/>
<path d="M192.026 22.4682C192.026 23.0322 191.582 23.4895 191.034 23.4895C190.487 23.4895 190.043 23.0322 190.043 22.4682C190.043 21.9042 190.487 21.4469 191.034 21.4469C191.582 21.4469 192.026 21.9042 192.026 22.4682Z" fill="#4A399D"/>
<path d="M195.001 28.5958C195.001 29.1599 194.557 29.6171 194.009 29.6171C193.462 29.6171 193.018 29.1599 193.018 28.5958C193.018 28.0318 193.462 27.5746 194.009 27.5746C194.557 27.5746 195.001 28.0318 195.001 28.5958Z" fill="#4A399D"/>
<path d="M195.001 25.532C195.001 26.0961 194.557 26.5533 194.009 26.5533C193.462 26.5533 193.018 26.0961 193.018 25.532C193.018 24.968 193.462 24.5108 194.009 24.5108C194.557 24.5108 195.001 24.968 195.001 25.532Z" fill="#4A399D"/>
<path d="M195.001 22.4682C195.001 23.0322 194.557 23.4895 194.009 23.4895C193.462 23.4895 193.018 23.0322 193.018 22.4682C193.018 21.9042 193.462 21.4469 194.009 21.4469C194.557 21.4469 195.001 21.9042 195.001 22.4682Z" fill="#4A399D"/>
<path d="M189.051 19.4044C189.051 19.9684 188.607 20.4257 188.06 20.4257C187.512 20.4257 187.068 19.9684 187.068 19.4044C187.068 18.8404 187.512 18.3831 188.06 18.3831C188.607 18.3831 189.051 18.8404 189.051 19.4044Z" fill="#4A399D"/>
<path d="M189.051 16.3406C189.051 16.9046 188.607 17.3619 188.06 17.3619C187.512 17.3619 187.068 16.9046 187.068 16.3406C187.068 15.7766 187.512 15.3193 188.06 15.3193C188.607 15.3193 189.051 15.7766 189.051 16.3406Z" fill="#4A399D"/>
<path d="M189.051 13.2768C189.051 13.8408 188.607 14.298 188.06 14.298C187.512 14.298 187.068 13.8408 187.068 13.2768C187.068 12.7127 187.512 12.2555 188.06 12.2555C188.607 12.2555 189.051 12.7127 189.051 13.2768Z" fill="#4A399D"/>
<path d="M192.026 19.4044C192.026 19.9684 191.582 20.4257 191.034 20.4257C190.487 20.4257 190.043 19.9684 190.043 19.4044C190.043 18.8404 190.487 18.3831 191.034 18.3831C191.582 18.3831 192.026 18.8404 192.026 19.4044Z" fill="#4A399D"/>
<path d="M192.026 16.3406C192.026 16.9046 191.582 17.3619 191.034 17.3619C190.487 17.3619 190.043 16.9046 190.043 16.3406C190.043 15.7766 190.487 15.3193 191.034 15.3193C191.582 15.3193 192.026 15.7766 192.026 16.3406Z" fill="#4A399D"/>
<path d="M192.026 13.2768C192.026 13.8408 191.582 14.298 191.034 14.298C190.487 14.298 190.043 13.8408 190.043 13.2768C190.043 12.7127 190.487 12.2555 191.034 12.2555C191.582 12.2555 192.026 12.7127 192.026 13.2768Z" fill="#4A399D"/>
<path d="M195.001 19.4044C195.001 19.9684 194.557 20.4257 194.009 20.4257C193.462 20.4257 193.018 19.9684 193.018 19.4044C193.018 18.8404 193.462 18.3831 194.009 18.3831C194.557 18.3831 195.001 18.8404 195.001 19.4044Z" fill="#4A399D"/>
<path d="M195.001 16.3406C195.001 16.9046 194.557 17.3619 194.009 17.3619C193.462 17.3619 193.018 16.9046 193.018 16.3406C193.018 15.7766 193.462 15.3193 194.009 15.3193C194.557 15.3193 195.001 15.7766 195.001 16.3406Z" fill="#4A399D"/>
<path d="M195.001 13.2768C195.001 13.8408 194.557 14.298 194.009 14.298C193.462 14.298 193.018 13.8408 193.018 13.2768C193.018 12.7127 193.462 12.2555 194.009 12.2555C194.557 12.2555 195.001 12.7127 195.001 13.2768Z" fill="#4A399D"/>
<path d="M189.051 10.213C189.051 10.777 188.607 11.2342 188.06 11.2342C187.512 11.2342 187.068 10.777 187.068 10.213C187.068 9.64893 187.512 9.19169 188.06 9.19169C188.607 9.19169 189.051 9.64893 189.051 10.213Z" fill="#4A399D"/>
<path d="M189.051 7.14915C189.051 7.71318 188.607 8.17042 188.06 8.17042C187.512 8.17042 187.068 7.71318 187.068 7.14915C187.068 6.58511 187.512 6.12788 188.06 6.12788C188.607 6.12788 189.051 6.58511 189.051 7.14915Z" fill="#4A399D"/>
<path d="M189.051 4.08533C189.051 4.64937 188.607 5.1066 188.06 5.1066C187.512 5.1066 187.068 4.64937 187.068 4.08533C187.068 3.5213 187.512 3.06406 188.06 3.06406C188.607 3.06406 189.051 3.5213 189.051 4.08533Z" fill="#4A399D"/>
<path d="M192.026 10.213C192.026 10.777 191.582 11.2342 191.034 11.2342C190.487 11.2342 190.043 10.777 190.043 10.213C190.043 9.64893 190.487 9.19169 191.034 9.19169C191.582 9.19169 192.026 9.64893 192.026 10.213Z" fill="#4A399D"/>
<path d="M192.026 7.14915C192.026 7.71318 191.582 8.17042 191.034 8.17042C190.487 8.17042 190.043 7.71318 190.043 7.14915C190.043 6.58511 190.487 6.12788 191.034 6.12788C191.582 6.12788 192.026 6.58511 192.026 7.14915Z" fill="#4A399D"/>
<path d="M192.026 4.08533C192.026 4.64937 191.582 5.1066 191.034 5.1066C190.487 5.1066 190.043 4.64937 190.043 4.08533C190.043 3.5213 190.487 3.06406 191.034 3.06406C191.582 3.06406 192.026 3.5213 192.026 4.08533Z" fill="#4A399D"/>
<path d="M195.001 10.213C195.001 10.777 194.557 11.2342 194.009 11.2342C193.462 11.2342 193.018 10.777 193.018 10.213C193.018 9.64893 193.462 9.19169 194.009 9.19169C194.557 9.19169 195.001 9.64893 195.001 10.213Z" fill="#4A399D"/>
<path d="M195.001 7.14915C195.001 7.71318 194.557 8.17042 194.009 8.17042C193.462 8.17042 193.018 7.71318 193.018 7.14915C193.018 6.58511 193.462 6.12788 194.009 6.12788C194.557 6.12788 195.001 6.58511 195.001 7.14915Z" fill="#4A399D"/>
<path d="M195.001 4.08533C195.001 4.64937 194.557 5.1066 194.009 5.1066C193.462 5.1066 193.018 4.64937 193.018 4.08533C193.018 3.5213 193.462 3.06406 194.009 3.06406C194.557 3.06406 195.001 3.5213 195.001 4.08533Z" fill="#4A399D"/>
<path d="M189.051 1.02152C189.051 1.58555 188.607 2.04279 188.06 2.04279C187.512 2.04279 187.068 1.58555 187.068 1.02152C187.068 0.457487 187.512 0.00024839 188.06 0.00024839C188.607 0.00024839 189.051 0.457487 189.051 1.02152Z" fill="#4A399D"/>
<path d="M192.026 1.02152C192.026 1.58555 191.582 2.04279 191.034 2.04279C190.487 2.04279 190.043 1.58555 190.043 1.02152C190.043 0.457487 190.487 0.00024839 191.034 0.00024839C191.582 0.00024839 192.026 0.457487 192.026 1.02152Z" fill="#4A399D"/>
<path d="M195.001 1.02152C195.001 1.58555 194.557 2.04279 194.009 2.04279C193.462 2.04279 193.018 1.58555 193.018 1.02152C193.018 0.457487 193.462 0.00024839 194.009 0.00024839C194.557 0.00024839 195.001 0.457487 195.001 1.02152Z" fill="#4A399D"/>
<path fill-rule="evenodd" clip-rule="evenodd" d="M185.085 8.17042V6.12788C185.632 6.12788 186.076 6.58511 186.076 7.14915C186.076 7.71318 185.632 8.17042 185.085 8.17042ZM186.076 4.08533C186.076 4.64937 185.632 5.1066 185.085 5.1066V3.06406C185.632 3.06406 186.076 3.5213 186.076 4.08533ZM186.076 1.02152C186.076 1.58555 185.632 2.04279 185.085 2.04279V0C185.632 0 186.076 0.457487 186.076 1.02152ZM186.076 10.213C186.076 10.777 185.632 11.2342 185.085 11.2342V9.19169C185.632 9.19169 186.076 9.64893 186.076 10.213ZM186.076 13.2768C186.076 13.8408 185.632 14.298 185.085 14.298V12.2555C185.632 12.2555 186.076 12.7127 186.076 13.2768ZM186.076 16.3406C186.076 16.9046 185.632 17.3619 185.085 17.3619V15.3193C185.632 15.3193 186.076 15.7766 186.076 16.3406ZM186.076 19.4044C186.076 19.9684 185.632 20.4257 185.085 20.4257V18.3831C185.632 18.3831 186.076 18.8404 186.076 19.4044ZM186.076 22.4682C186.076 23.0322 185.632 23.4895 185.085 23.4895V21.4469C185.632 21.4469 186.076 21.9042 186.076 22.4682ZM186.076 25.532C186.076 26.0961 185.632 26.5533 185.085 26.5533V24.5108C185.632 24.5108 186.076 24.968 186.076 25.532ZM186.076 28.5958C186.076 29.1599 185.632 29.6171 185.085 29.6171V27.5746C185.632 27.5746 186.076 28.0318 186.076 28.5958ZM186.076 31.6597C186.076 32.2237 185.632 32.6809 185.085 32.6809V30.6384C185.632 30.6384 186.076 31.0956 186.076 31.6597ZM186.076 34.7235C186.076 35.2875 185.632 35.7447 185.085 35.7447V33.7022C185.632 33.7022 186.076 34.1594 186.076 34.7235ZM186.076 37.7873C186.076 38.3513 185.632 38.8086 185.085 38.8086V36.766C185.632 36.766 186.076 37.2233 186.076 37.7873ZM77.9923 41.8724C77.4446 41.8724 77.0007 41.4151 77.0007 40.8511C77.0007 40.2871 77.4446 39.8298 77.9923 39.8298C78.5399 39.8298 78.9839 40.2871 78.9839 40.8511C78.9839 41.4151 78.5399 41.8724 77.9923 41.8724ZM77.0007 46.9787C77.0007 46.4147 77.4446 45.9575 77.9923 45.9575C78.5399 45.9575 78.9839 46.4147 78.9839 46.9787C78.9839 47.5428 78.5399 48 77.9923 48C77.4446 48 77.0007 47.5428 77.0007 46.9787ZM194.009 45.9575C194.557 45.9575 195.001 46.4147 195.001 46.9787C195.001 47.5428 194.557 48 194.009 48C193.462 48 193.018 47.5428 193.018 46.9787C193.018 46.4147 193.462 45.9575 194.009 45.9575ZM194.009 0.00024839C194.557 0.00024839 195.001 0.457487 195.001 1.02152C195.001 1.58555 194.557 2.04279 194.009 2.04279C193.462 2.04279 193.018 1.58555 193.018 1.02152C193.018 0.457487 193.462 0.00024839 194.009 0.00024839ZM194.009 5.1066C194.557 5.1066 195.001 4.64937 195.001 4.08533C195.001 3.5213 194.557 3.06406 194.009 3.06406C193.462 3.06406 193.018 3.5213 193.018 4.08533C193.018 4.64937 193.462 5.1066 194.009 5.1066ZM194.009 8.17042C194.557 8.17042 195.001 7.71318 195.001 7.14915C195.001 6.58511 194.557 6.12788 194.009 6.12788C193.462 6.12788 193.018 6.58511 193.018 7.14915C193.018 7.71318 193.462 8.17042 194.009 8.17042ZM194.009 11.2342C194.557 11.2342 195.001 10.777 195.001 10.213C195.001 9.64893 194.557 9.19169 194.009 9.19169C193.462 9.19169 193.018 9.64893 193.018 10.213C193.018 10.777 193.462 11.2342 194.009 11.2342ZM194.009 14.298C194.557 14.298 195.001 13.8408 195.001 13.2768C195.001 12.7127 194.557 12.2555 194.009 12.2555C193.462 12.2555 193.018 12.7127 193.018 13.2768C193.018 13.8408 193.462 14.298 194.009 14.298ZM194.009 17.3619C194.557 17.3619 195.001 16.9046 195.001 16.3406C195.001 15.7766 194.557 15.3193 194.009 15.3193C193.462 15.3193 193.018 15.7766 193.018 16.3406C193.018 16.9046 193.462 17.3619 194.009 17.3619ZM194.009 20.4257C194.557 20.4257 195.001 19.9684 195.001 19.4044C195.001 18.8404 194.557 18.3831 194.009 18.3831C193.462 18.3831 193.018 18.8404 193.018 19.4044C193.018 19.9684 193.462 20.4257 194.009 20.4257ZM194.009 23.4895C194.557 23.4895 195.001 23.0322 195.001 22.4682C195.001 21.9042 194.557 21.4469 194.009 21.4469C193.462 21.4469 193.018 21.9042 193.018 22.4682C193.018 23.0322 193.462 23.4895 194.009 23.4895ZM194.009 26.5533C194.557 26.5533 195.001 26.0961 195.001 25.532C195.001 24.968 194.557 24.5108 194.009 24.5108C193.462 24.5108 193.018 24.968 193.018 25.532C193.018 26.0961 193.462 26.5533 194.009 26.5533ZM194.009 29.6171C194.557 29.6171 195.001 29.1599 195.001 28.5958C195.001 28.0318 194.557 27.5746 194.009 27.5746C193.462 27.5746 193.018 28.0318 193.018 28.5958C193.018 29.1599 193.462 29.6171 194.009 29.6171ZM194.009 32.6809C194.557 32.6809 195.001 32.2237 195.001 31.6597C195.001 31.0956 194.557 30.6384 194.009 30.6384C193.462 30.6384 193.018 31.0956 193.018 31.6597C193.018 32.2237 193.462 32.6809 194.009 32.6809ZM194.009 35.7447C194.557 35.7447 195.001 35.2875 195.001 34.7235C195.001 34.1594 194.557 33.7022 194.009 33.7022C193.462 33.7022 193.018 34.1594 193.018 34.7235C193.018 35.2875 193.462 35.7447 194.009 35.7447ZM194.009 38.8086C194.557 38.8086 195.001 38.3513 195.001 37.7873C195.001 37.2233 194.557 36.766 194.009 36.766C193.462 36.766 193.018 37.2233 193.018 37.7873C193.018 38.3513 193.462 38.8086 194.009 38.8086ZM194.009 41.8724C194.557 41.8724 195.001 41.4151 195.001 40.8511C195.001 40.2871 194.557 39.8298 194.009 39.8298C193.462 39.8298 193.018 40.2871 193.018 40.8511C193.018 41.4151 193.462 41.8724 194.009 41.8724ZM194.009 44.9362C194.557 44.9362 195.001 44.4789 195.001 43.9149C195.001 43.3509 194.557 42.8936 194.009 42.8936C193.462 42.8936 193.018 43.3509 193.018 43.9149C193.018 44.4789 193.462 44.9362 194.009 44.9362ZM190.043 46.9787C190.043 47.5428 190.487 48 191.034 48C191.582 48 192.026 47.5428 192.026 46.9787C192.026 46.4147 191.582 45.9575 191.034 45.9575C190.487 45.9575 190.043 46.4147 190.043 46.9787ZM187.068 46.9787C187.068 47.5428 187.512 48 188.06 48C188.607 48 189.051 47.5428 189.051 46.9787C189.051 46.4147 188.607 45.9575 188.06 45.9575C187.512 45.9575 187.068 46.4147 187.068 46.9787ZM184.093 46.9787C184.093 47.5428 184.537 48 185.085 48C185.632 48 186.076 47.5428 186.076 46.9787C186.076 46.4147 185.632 45.9575 185.085 45.9575C184.537 45.9575 184.093 46.4147 184.093 46.9787ZM181.118 46.9787C181.118 47.5428 181.562 48 182.11 48C182.658 48 183.102 47.5428 183.102 46.9787C183.102 46.4147 182.658 45.9575 182.11 45.9575C181.562 45.9575 181.118 46.4147 181.118 46.9787ZM178.144 46.9787C178.144 47.5428 178.588 48 179.135 48C179.683 48 180.127 47.5428 180.127 46.9787C180.127 46.4147 179.683 45.9575 179.135 45.9575C178.588 45.9575 178.144 46.4147 178.144 46.9787ZM175.169 46.9787C175.169 47.5428 175.613 48 176.16 48C176.708 48 177.152 47.5428 177.152 46.9787C177.152 46.4147 176.708 45.9575 176.16 45.9575C175.613 45.9575 175.169 46.4147 175.169 46.9787ZM172.194 46.9787C172.194 47.5428 172.638 48 173.186 48C173.733 48 174.177 47.5428 174.177 46.9787C174.177 46.4147 173.733 45.9575 173.186 45.9575C172.638 45.9575 172.194 46.4147 172.194 46.9787ZM169.219 46.9787C169.219 47.5428 169.663 48 170.211 48C170.758 48 171.202 47.5428 171.202 46.9787C171.202 46.4147 170.758 45.9575 170.211 45.9575C169.663 45.9575 169.219 46.4147 169.219 46.9787ZM166.244 46.9787C166.244 47.5428 166.688 48 167.236 48C167.784 48 168.228 47.5428 168.228 46.9787C168.228 46.4147 167.784 45.9575 167.236 45.9575C166.688 45.9575 166.244 46.4147 166.244 46.9787ZM163.27 46.9787C163.27 47.5428 163.714 48 164.261 48C164.809 48 165.253 47.5428 165.253 46.9787C165.253 46.4147 164.809 45.9575 164.261 45.9575C163.714 45.9575 163.27 46.4147 163.27 46.9787ZM160.295 46.9787C160.295 47.5428 160.739 48 161.286 48C161.834 48 162.278 47.5428 162.278 46.9787C162.278 46.4147 161.834 45.9575 161.286 45.9575C160.739 45.9575 160.295 46.4147 160.295 46.9787ZM157.32 46.9787C157.32 47.5428 157.764 48 158.312 48C158.859 48 159.303 47.5428 159.303 46.9787C159.303 46.4147 158.859 45.9575 158.312 45.9575C157.764 45.9575 157.32 46.4147 157.32 46.9787ZM154.345 46.9787C154.345 47.5428 154.789 48 155.337 48C155.885 48 156.328 47.5428 156.328 46.9787C156.328 46.4147 155.885 45.9575 155.337 45.9575C154.789 45.9575 154.345 46.4147 154.345 46.9787ZM151.37 46.9787C151.37 47.5428 151.814 48 152.362 48C152.91 48 153.354 47.5428 153.354 46.9787C153.354 46.4147 152.91 45.9575 152.362 45.9575C151.814 45.9575 151.37 46.4147 151.37 46.9787ZM148.396 46.9787C148.396 47.5428 148.84 48 149.387 48C149.935 48 150.379 47.5428 150.379 46.9787C150.379 46.4147 149.935 45.9575 149.387 45.9575C148.84 45.9575 148.396 46.4147 148.396 46.9787ZM145.421 46.9787C145.421 47.5428 145.865 48 146.413 48C146.96 48 147.404 47.5428 147.404 46.9787C147.404 46.4147 146.96 45.9575 146.413 45.9575C145.865 45.9575 145.421 46.4147 145.421 46.9787ZM142.446 46.9787C142.446 47.5428 142.89 48 143.438 48C143.985 48 144.429 47.5428 144.429 46.9787C144.429 46.4147 143.985 45.9575 143.438 45.9575C142.89 45.9575 142.446 46.4147 142.446 46.9787ZM139.471 46.9787C139.471 47.5428 139.915 48 140.463 48C141.011 48 141.455 47.5428 141.455 46.9787C141.455 46.4147 141.011 45.9575 140.463 45.9575C139.915 45.9575 139.471 46.4147 139.471 46.9787ZM136.497 46.9787C136.497 47.5428 136.941 48 137.488 48C138.036 48 138.48 47.5428 138.48 46.9787C138.48 46.4147 138.036 45.9575 137.488 45.9575C136.941 45.9575 136.497 46.4147 136.497 46.9787ZM133.522 46.9787C133.522 47.5428 133.966 48 134.513 48C135.061 48 135.505 47.5428 135.505 46.9787C135.505 46.4147 135.061 45.9575 134.513 45.9575C133.966 45.9575 133.522 46.4147 133.522 46.9787ZM130.547 46.9787C130.547 47.5428 130.991 48 131.539 48C132.086 48 132.53 47.5428 132.53 46.9787C132.53 46.4147 132.086 45.9575 131.539 45.9575C130.991 45.9575 130.547 46.4147 130.547 46.9787ZM127.572 46.9787C127.572 47.5428 128.016 48 128.564 48C129.111 48 129.555 47.5428 129.555 46.9787C129.555 46.4147 129.111 45.9575 128.564 45.9575C128.016 45.9575 127.572 46.4147 127.572 46.9787ZM124.597 46.9787C124.597 47.5428 125.041 48 125.589 48C126.137 48 126.581 47.5428 126.581 46.9787C126.581 46.4147 126.137 45.9575 125.589 45.9575C125.041 45.9575 124.597 46.4147 124.597 46.9787ZM121.623 46.9787C121.623 47.5428 122.066 48 122.614 48C123.162 48 123.606 47.5428 123.606 46.9787C123.606 46.4147 123.162 45.9575 122.614 45.9575C122.066 45.9575 121.623 46.4147 121.623 46.9787ZM118.648 46.9787C118.648 47.5428 119.092 48 119.639 48C120.187 48 120.631 47.5428 120.631 46.9787C120.631 46.4147 120.187 45.9575 119.639 45.9575C119.092 45.9575 118.648 46.4147 118.648 46.9787ZM115.673 46.9787C115.673 47.5428 116.117 48 116.665 48C117.212 48 117.656 47.5428 117.656 46.9787C117.656 46.4147 117.212 45.9575 116.665 45.9575C116.117 45.9575 115.673 46.4147 115.673 46.9787ZM112.698 46.9787C112.698 47.5428 113.142 48 113.69 48C114.237 48 114.681 47.5428 114.681 46.9787C114.681 46.4147 114.237 45.9575 113.69 45.9575C113.142 45.9575 112.698 46.4147 112.698 46.9787ZM109.723 46.9787C109.723 47.5428 110.167 48 110.715 48C111.263 48 111.707 47.5428 111.707 46.9787C111.707 46.4147 111.263 45.9575 110.715 45.9575C110.167 45.9575 109.723 46.4147 109.723 46.9787ZM106.749 46.9787C106.749 47.5428 107.193 48 107.74 48C108.288 48 108.732 47.5428 108.732 46.9787C108.732 46.4147 108.288 45.9575 107.74 45.9575C107.193 45.9575 106.749 46.4147 106.749 46.9787ZM103.774 46.9787C103.774 47.5428 104.218 48 104.765 48C105.313 48 105.757 47.5428 105.757 46.9787C105.757 46.4147 105.313 45.9575 104.765 45.9575C104.218 45.9575 103.774 46.4147 103.774 46.9787ZM100.799 46.9787C100.799 47.5428 101.243 48 101.791 48C102.338 48 102.782 47.5428 102.782 46.9787C102.782 46.4147 102.338 45.9575 101.791 45.9575C101.243 45.9575 100.799 46.4147 100.799 46.9787ZM97.8242 46.9787C97.8242 47.5428 98.2682 48 98.8158 48C99.3634 48 99.8074 47.5428 99.8074 46.9787C99.8074 46.4147 99.3634 45.9575 98.8158 45.9575C98.2682 45.9575 97.8242 46.4147 97.8242 46.9787ZM94.8494 46.9787C94.8494 47.5428 95.2934 48 95.841 48C96.3887 48 96.8326 47.5428 96.8326 46.9787C96.8326 46.4147 96.3887 45.9575 95.841 45.9575C95.2934 45.9575 94.8494 46.4147 94.8494 46.9787ZM91.8746 46.9787C91.8746 47.5428 92.3186 48 92.8662 48C93.4139 48 93.8578 47.5428 93.8578 46.9787C93.8578 46.4147 93.4139 45.9575 92.8662 45.9575C92.3186 45.9575 91.8746 46.4147 91.8746 46.9787ZM88.8998 46.9787C88.8998 47.5428 89.3438 48 89.8914 48C90.4391 48 90.883 47.5428 90.883 46.9787C90.883 46.4147 90.4391 45.9575 89.8914 45.9575C89.3438 45.9575 88.8998 46.4147 88.8998 46.9787ZM85.9251 46.9787C85.9251 47.5428 86.369 48 86.9166 48C87.4643 48 87.9083 47.5428 87.9083 46.9787C87.9083 46.4147 87.4643 45.9575 86.9166 45.9575C86.369 45.9575 85.9251 46.4147 85.9251 46.9787ZM82.9503 46.9787C82.9503 47.5428 83.3942 48 83.9419 48C84.4895 48 84.9335 47.5428 84.9335 46.9787C84.9335 46.4147 84.4895 45.9575 83.9419 45.9575C83.3942 45.9575 82.9503 46.4147 82.9503 46.9787ZM79.9755 46.9787C79.9755 47.5428 80.4194 48 80.9671 48C81.5147 48 81.9587 47.5428 81.9587 46.9787C81.9587 46.4147 81.5147 45.9575 80.9671 45.9575C80.4194 45.9575 79.9755 46.4147 79.9755 46.9787ZM77.9923 42.8936C77.4446 42.8936 77.0007 43.3509 77.0007 43.9149C77.0007 44.4789 77.4446 44.9362 77.9923 44.9362C78.5399 44.9362 78.9839 44.4789 78.9839 43.9149C78.9839 43.3509 78.5399 42.8936 77.9923 42.8936ZM81.9587 40.8511C81.9587 40.2871 81.5147 39.8298 80.9671 39.8298C80.4194 39.8298 79.9755 40.2871 79.9755 40.8511C79.9755 41.4151 80.4194 41.8724 80.9671 41.8724C81.5147 41.8724 81.9587 41.4151 81.9587 40.8511ZM84.9335 40.8511C84.9335 40.2871 84.4895 39.8298 83.9419 39.8298C83.3942 39.8298 82.9503 40.2871 82.9503 40.8511C82.9503 41.4151 83.3942 41.8724 83.9419 41.8724C84.4895 41.8724 84.9335 41.4151 84.9335 40.8511ZM87.9083 40.8511C87.9083 40.2871 87.4643 39.8298 86.9166 39.8298C86.369 39.8298 85.9251 40.2871 85.9251 40.8511C85.9251 41.4151 86.369 41.8724 86.9166 41.8724C87.4643 41.8724 87.9083 41.4151 87.9083 40.8511ZM90.883 40.8511C90.883 40.2871 90.4391 39.8298 89.8914 39.8298C89.3438 39.8298 88.8998 40.2871 88.8998 40.8511C88.8998 41.4151 89.3438 41.8724 89.8914 41.8724C90.4391 41.8724 90.883 41.4151 90.883 40.8511ZM93.8578 40.8511C93.8578 40.2871 93.4139 39.8298 92.8662 39.8298C92.3186 39.8298 91.8746 40.2871 91.8746 40.8511C91.8746 41.4151 92.3186 41.8724 92.8662 41.8724C93.4139 41.8724 93.8578 41.4151 93.8578 40.8511ZM96.8326 40.8511C96.8326 40.2871 96.3887 39.8298 95.841 39.8298C95.2934 39.8298 94.8494 40.2871 94.8494 40.8511C94.8494 41.4151 95.2934 41.8724 95.841 41.8724C96.3887 41.8724 96.8326 41.4151 96.8326 40.8511ZM99.8074 40.8511C99.8074 40.2871 99.3634 39.8298 98.8158 39.8298C98.2682 39.8298 97.8242 40.2871 97.8242 40.8511C97.8242 41.4151 98.2682 41.8724 98.8158 41.8724C99.3634 41.8724 99.8074 41.4151 99.8074 40.8511ZM102.782 40.8511C102.782 40.2871 102.338 39.8298 101.791 39.8298C101.243 39.8298 100.799 40.2871 100.799 40.8511C100.799 41.4151 101.243 41.8724 101.791 41.8724C102.338 41.8724 102.782 41.4151 102.782 40.8511ZM105.757 40.8511C105.757 40.2871 105.313 39.8298 104.765 39.8298C104.218 39.8298 103.774 40.2871 103.774 40.8511C103.774 41.4151 104.218 41.8724 104.765 41.8724C105.313 41.8724 105.757 41.4151 105.757 40.8511ZM108.732 40.8511C108.732 40.2871 108.288 39.8298 107.74 39.8298C107.193 39.8298 106.749 40.2871 106.749 40.8511C106.749 41.4151 107.193 41.8724 107.74 41.8724C108.288 41.8724 108.732 41.4151 108.732 40.8511ZM111.707 40.8511C111.707 40.2871 111.263 39.8298 110.715 39.8298C110.167 39.8298 109.723 40.2871 109.723 40.8511C109.723 41.4151 110.167 41.8724 110.715 41.8724C111.263 41.8724 111.707 41.4151 111.707 40.8511ZM114.681 40.8511C114.681 40.2871 114.237 39.8298 113.69 39.8298C113.142 39.8298 112.698 40.2871 112.698 40.8511C112.698 41.4151 113.142 41.8724 113.69 41.8724C114.237 41.8724 114.681 41.4151 114.681 40.8511ZM117.656 40.8511C117.656 40.2871 117.212 39.8298 116.665 39.8298C116.117 39.8298 115.673 40.2871 115.673 40.8511C115.673 41.4151 116.117 41.8724 116.665 41.8724C117.212 41.8724 117.656 41.4151 117.656 40.8511ZM120.631 40.8511C120.631 40.2871 120.187 39.8298 119.639 39.8298C119.092 39.8298 118.648 40.2871 118.648 40.8511C118.648 41.4151 119.092 41.8724 119.639 41.8724C120.187 41.8724 120.631 41.4151 120.631 40.8511ZM123.606 40.8511C123.606 40.2871 123.162 39.8298 122.614 39.8298C122.066 39.8298 121.623 40.2871 121.623 40.8511C121.623 41.4151 122.066 41.8724 122.614 41.8724C123.162 41.8724 123.606 41.4151 123.606 40.8511ZM126.581 40.8511C126.581 40.2871 126.137 39.8298 125.589 39.8298C125.041 39.8298 124.597 40.2871 124.597 40.8511C124.597 41.4151 125.041 41.8724 125.589 41.8724C126.137 41.8724 126.581 41.4151 126.581 40.8511ZM129.555 40.8511C129.555 40.2871 129.111 39.8298 128.564 39.8298C128.016 39.8298 127.572 40.2871 127.572 40.8511C127.572 41.4151 128.016 41.8724 128.564 41.8724C129.111 41.8724 129.555 41.4151 129.555 40.8511ZM132.53 40.8511C132.53 40.2871 132.086 39.8298 131.539 39.8298C130.991 39.8298 130.547 40.2871 130.547 40.8511C130.547 41.4151 130.991 41.8724 131.539 41.8724C132.086 41.8724 132.53 41.4151 132.53 40.8511ZM135.505 40.8511C135.505 40.2871 135.061 39.8298 134.513 39.8298C133.966 39.8298 133.522 40.2871 133.522 40.8511C133.522 41.4151 133.966 41.8724 134.513 41.8724C135.061 41.8724 135.505 41.4151 135.505 40.8511ZM138.48 40.8511C138.48 40.2871 138.036 39.8298 137.488 39.8298C136.941 39.8298 136.497 40.2871 136.497 40.8511C136.497 41.4151 136.941 41.8724 137.488 41.8724C138.036 41.8724 138.48 41.4151 138.48 40.8511ZM141.455 40.8511C141.455 40.2871 141.011 39.8298 140.463 39.8298C139.915 39.8298 139.471 40.2871 139.471 40.8511C139.471 41.4151 139.915 41.8724 140.463 41.8724C141.011 41.8724 141.455 41.4151 141.455 40.8511ZM144.429 40.8511C144.429 40.2871 143.985 39.8298 143.438 39.8298C142.89 39.8298 142.446 40.2871 142.446 40.8511C142.446 41.4151 142.89 41.8724 143.438 41.8724C143.985 41.8724 144.429 41.4151 144.429 40.8511ZM147.404 40.8511C147.404 40.2871 146.96 39.8298 146.413 39.8298C145.865 39.8298 145.421 40.2871 145.421 40.8511C145.421 41.4151 145.865 41.8724 146.413 41.8724C146.96 41.8724 147.404 41.4151 147.404 40.8511ZM150.379 40.8511C150.379 40.2871 149.935 39.8298 149.387 39.8298C148.84 39.8298 148.396 40.2871 148.396 40.8511C148.396 41.4151 148.84 41.8724 149.387 41.8724C149.935 41.8724 150.379 41.4151 150.379 40.8511ZM153.354 40.8511C153.354 40.2871 152.91 39.8298 152.362 39.8298C151.814 39.8298 151.37 40.2871 151.37 40.8511C151.37 41.4151 151.814 41.8724 152.362 41.8724C152.91 41.8724 153.354 41.4151 153.354 40.8511ZM156.328 40.8511C156.328 40.2871 155.885 39.8298 155.337 39.8298C154.789 39.8298 154.345 40.2871 154.345 40.8511C154.345 41.4151 154.789 41.8724 155.337 41.8724C155.885 41.8724 156.328 41.4151 156.328 40.8511ZM159.303 40.8511C159.303 40.2871 158.859 39.8298 158.312 39.8298C157.764 39.8298 157.32 40.2871 157.32 40.8511C157.32 41.4151 157.764 41.8724 158.312 41.8724C158.859 41.8724 159.303 41.4151 159.303 40.8511ZM162.278 40.8511C162.278 40.2871 161.834 39.8298 161.286 39.8298C160.739 39.8298 160.295 40.2871 160.295 40.8511C160.295 41.4151 160.739 41.8724 161.286 41.8724C161.834 41.8724 162.278 41.4151 162.278 40.8511ZM165.253 40.8511C165.253 40.2871 164.809 39.8298 164.261 39.8298C163.714 39.8298 163.27 40.2871 163.27 40.8511C163.27 41.4151 163.714 41.8724 164.261 41.8724C164.809 41.8724 165.253 41.4151 165.253 40.8511ZM168.228 40.8511C168.228 40.2871 167.784 39.8298 167.236 39.8298C166.688 39.8298 166.244 40.2871 166.244 40.8511C166.244 41.4151 166.688 41.8724 167.236 41.8724C167.784 41.8724 168.228 41.4151 168.228 40.8511ZM171.202 40.8511C171.202 40.2871 170.758 39.8298 170.211 39.8298C169.663 39.8298 169.219 40.2871 169.219 40.8511C169.219 41.4151 169.663 41.8724 170.211 41.8724C170.758 41.8724 171.202 41.4151 171.202 40.8511ZM174.177 40.8511C174.177 40.2871 173.733 39.8298 173.186 39.8298C172.638 39.8298 172.194 40.2871 172.194 40.8511C172.194 41.4151 172.638 41.8724 173.186 41.8724C173.733 41.8724 174.177 41.4151 174.177 40.8511ZM177.152 40.8511C177.152 40.2871 176.708 39.8298 176.16 39.8298C175.613 39.8298 175.169 40.2871 175.169 40.8511C175.169 41.4151 175.613 41.8724 176.16 41.8724C176.708 41.8724 177.152 41.4151 177.152 40.8511ZM180.127 40.8511C180.127 40.2871 179.683 39.8298 179.135 39.8298C178.588 39.8298 178.144 40.2871 178.144 40.8511C178.144 41.4151 178.588 41.8724 179.135 41.8724C179.683 41.8724 180.127 41.4151 180.127 40.8511ZM183.102 40.8511C183.102 40.2871 182.658 39.8298 182.11 39.8298C181.562 39.8298 181.118 40.2871 181.118 40.8511C181.118 41.4151 181.562 41.8724 182.11 41.8724C182.658 41.8724 183.102 41.4151 183.102 40.8511ZM186.076 40.8511C186.076 40.2871 185.632 39.8298 185.085 39.8298C184.537 39.8298 184.093 40.2871 184.093 40.8511C184.093 41.4151 184.537 41.8724 185.085 41.8724C185.632 41.8724 186.076 41.4151 186.076 40.8511ZM80.9671 44.9362C81.5147 44.9362 81.9587 44.4789 81.9587 43.9149C81.9587 43.3509 81.5147 42.8936 80.9671 42.8936C80.4194 42.8936 79.9755 43.3509 79.9755 43.9149C79.9755 44.4789 80.4194 44.9362 80.9671 44.9362ZM83.9419 44.9362C84.4895 44.9362 84.9335 44.4789 84.9335 43.9149C84.9335 43.3509 84.4895 42.8936 83.9419 42.8936C83.3942 42.8936 82.9503 43.3509 82.9503 43.9149C82.9503 44.4789 83.3942 44.9362 83.9419 44.9362ZM86.9166 44.9362C87.4643 44.9362 87.9083 44.4789 87.9083 43.9149C87.9083 43.3509 87.4643 42.8936 86.9166 42.8936C86.369 42.8936 85.9251 43.3509 85.9251 43.9149C85.9251 44.4789 86.369 44.9362 86.9166 44.9362ZM89.8914 44.9362C90.4391 44.9362 90.883 44.4789 90.883 43.9149C90.883 43.3509 90.4391 42.8936 89.8914 42.8936C89.3438 42.8936 88.8998 43.3509 88.8998 43.9149C88.8998 44.4789 89.3438 44.9362 89.8914 44.9362ZM92.8662 44.9362C93.4139 44.9362 93.8578 44.4789 93.8578 43.9149C93.8578 43.3509 93.4139 42.8936 92.8662 42.8936C92.3186 42.8936 91.8746 43.3509 91.8746 43.9149C91.8746 44.4789 92.3186 44.9362 92.8662 44.9362ZM95.841 44.9362C96.3887 44.9362 96.8326 44.4789 96.8326 43.9149C96.8326 43.3509 96.3887 42.8936 95.841 42.8936C95.2934 42.8936 94.8494 43.3509 94.8494 43.9149C94.8494 44.4789 95.2934 44.9362 95.841 44.9362ZM98.8158 44.9362C99.3634 44.9362 99.8074 44.4789 99.8074 43.9149C99.8074 43.3509 99.3634 42.8936 98.8158 42.8936C98.2682 42.8936 97.8242 43.3509 97.8242 43.9149C97.8242 44.4789 98.2682 44.9362 98.8158 44.9362ZM101.791 44.9362C102.338 44.9362 102.782 44.4789 102.782 43.9149C102.782 43.3509 102.338 42.8936 101.791 42.8936C101.243 42.8936 100.799 43.3509 100.799 43.9149C100.799 44.4789 101.243 44.9362 101.791 44.9362ZM104.765 44.9362C105.313 44.9362 105.757 44.4789 105.757 43.9149C105.757 43.3509 105.313 42.8936 104.765 42.8936C104.218 42.8936 103.774 43.3509 103.774 43.9149C103.774 44.4789 104.218 44.9362 104.765 44.9362ZM107.74 44.9362C108.288 44.9362 108.732 44.4789 108.732 43.9149C108.732 43.3509 108.288 42.8936 107.74 42.8936C107.193 42.8936 106.749 43.3509 106.749 43.9149C106.749 44.4789 107.193 44.9362 107.74 44.9362ZM110.715 44.9362C111.263 44.9362 111.707 44.4789 111.707 43.9149C111.707 43.3509 111.263 42.8936 110.715 42.8936C110.167 42.8936 109.723 43.3509 109.723 43.9149C109.723 44.4789 110.167 44.9362 110.715 44.9362ZM113.69 44.9362C114.237 44.9362 114.681 44.4789 114.681 43.9149C114.681 43.3509 114.237 42.8936 113.69 42.8936C113.142 42.8936 112.698 43.3509 112.698 43.9149C112.698 44.4789 113.142 44.9362 113.69 44.9362ZM116.665 44.9362C117.212 44.9362 117.656 44.4789 117.656 43.9149C117.656 43.3509 117.212 42.8936 116.665 42.8936C116.117 42.8936 115.673 43.3509 115.673 43.9149C115.673 44.4789 116.117 44.9362 116.665 44.9362ZM119.639 44.9362C120.187 44.9362 120.631 44.4789 120.631 43.9149C120.631 43.3509 120.187 42.8936 119.639 42.8936C119.092 42.8936 118.648 43.3509 118.648 43.9149C118.648 44.4789 119.092 44.9362 119.639 44.9362ZM122.614 44.9362C123.162 44.9362 123.606 44.4789 123.606 43.9149C123.606 43.3509 123.162 42.8936 122.614 42.8936C122.066 42.8936 121.623 43.3509 121.623 43.9149C121.623 44.4789 122.066 44.9362 122.614 44.9362ZM125.589 44.9362C126.137 44.9362 126.581 44.4789 126.581 43.9149C126.581 43.3509 126.137 42.8936 125.589 42.8936C125.041 42.8936 124.597 43.3509 124.597 43.9149C124.597 44.4789 125.041 44.9362 125.589 44.9362ZM128.564 44.9362C129.111 44.9362 129.555 44.4789 129.555 43.9149C129.555 43.3509 129.111 42.8936 128.564 42.8936C128.016 42.8936 127.572 43.3509 127.572 43.9149C127.572 44.4789 128.016 44.9362 128.564 44.9362ZM131.539 44.9362C132.086 44.9362 132.53 44.4789 132.53 43.9149C132.53 43.3509 132.086 42.8936 131.539 42.8936C130.991 42.8936 130.547 43.3509 130.547 43.9149C130.547 44.4789 130.991 44.9362 131.539 44.9362ZM134.513 44.9362C135.061 44.9362 135.505 44.4789 135.505 43.9149C135.505 43.3509 135.061 42.8936 134.513 42.8936C133.966 42.8936 133.522 43.3509 133.522 43.9149C133.522 44.4789 133.966 44.9362 134.513 44.9362ZM137.488 44.9362C138.036 44.9362 138.48 44.4789 138.48 43.9149C138.48 43.3509 138.036 42.8936 137.488 42.8936C136.941 42.8936 136.497 43.3509 136.497 43.9149C136.497 44.4789 136.941 44.9362 137.488 44.9362ZM140.463 44.9362C141.011 44.9362 141.455 44.4789 141.455 43.9149C141.455 43.3509 141.011 42.8936 140.463 42.8936C139.915 42.8936 139.471 43.3509 139.471 43.9149C139.471 44.4789 139.915 44.9362 140.463 44.9362ZM143.438 44.9362C143.985 44.9362 144.429 44.4789 144.429 43.9149C144.429 43.3509 143.985 42.8936 143.438 42.8936C142.89 42.8936 142.446 43.3509 142.446 43.9149C142.446 44.4789 142.89 44.9362 143.438 44.9362ZM146.413 44.9362C146.96 44.9362 147.404 44.4789 147.404 43.9149C147.404 43.3509 146.96 42.8936 146.413 42.8936C145.865 42.8936 145.421 43.3509 145.421 43.9149C145.421 44.4789 145.865 44.9362 146.413 44.9362ZM149.387 44.9362C149.935 44.9362 150.379 44.4789 150.379 43.9149C150.379 43.3509 149.935 42.8936 149.387 42.8936C148.84 42.8936 148.396 43.3509 148.396 43.9149C148.396 44.4789 148.84 44.9362 149.387 44.9362ZM152.362 44.9362C152.91 44.9362 153.354 44.4789 153.354 43.9149C153.354 43.3509 152.91 42.8936 152.362 42.8936C151.814 42.8936 151.37 43.3509 151.37 43.9149C151.37 44.4789 151.814 44.9362 152.362 44.9362ZM155.337 44.9362C155.885 44.9362 156.328 44.4789 156.328 43.9149C156.328 43.3509 155.885 42.8936 155.337 42.8936C154.789 42.8936 154.345 43.3509 154.345 43.9149C154.345 44.4789 154.789 44.9362 155.337 44.9362ZM158.312 44.9362C158.859 44.9362 159.303 44.4789 159.303 43.9149C159.303 43.3509 158.859 42.8936 158.312 42.8936C157.764 42.8936 157.32 43.3509 157.32 43.9149C157.32 44.4789 157.764 44.9362 158.312 44.9362ZM161.286 44.9362C161.834 44.9362 162.278 44.4789 162.278 43.9149C162.278 43.3509 161.834 42.8936 161.286 42.8936C160.739 42.8936 160.295 43.3509 160.295 43.9149C160.295 44.4789 160.739 44.9362 161.286 44.9362ZM164.261 44.9362C164.809 44.9362 165.253 44.4789 165.253 43.9149C165.253 43.3509 164.809 42.8936 164.261 42.8936C163.714 42.8936 163.27 43.3509 163.27 43.9149C163.27 44.4789 163.714 44.9362 164.261 44.9362ZM167.236 44.9362C167.784 44.9362 168.228 44.4789 168.228 43.9149C168.228 43.3509 167.784 42.8936 167.236 42.8936C166.688 42.8936 166.244 43.3509 166.244 43.9149C166.244 44.4789 166.688 44.9362 167.236 44.9362ZM170.211 44.9362C170.758 44.9362 171.202 44.4789 171.202 43.9149C171.202 43.3509 170.758 42.8936 170.211 42.8936C169.663 42.8936 169.219 43.3509 169.219 43.9149C169.219 44.4789 169.663 44.9362 170.211 44.9362ZM173.186 44.9362C173.733 44.9362 174.177 44.4789 174.177 43.9149C174.177 43.3509 173.733 42.8936 173.186 42.8936C172.638 42.8936 172.194 43.3509 172.194 43.9149C172.194 44.4789 172.638 44.9362 173.186 44.9362ZM176.16 44.9362C176.708 44.9362 177.152 44.4789 177.152 43.9149C177.152 43.3509 176.708 42.8936 176.16 42.8936C175.613 42.8936 175.169 43.3509 175.169 43.9149C175.169 44.4789 175.613 44.9362 176.16 44.9362ZM179.135 44.9362C179.683 44.9362 180.127 44.4789 180.127 43.9149C180.127 43.3509 179.683 42.8936 179.135 42.8936C178.588 42.8936 178.144 43.3509 178.144 43.9149C178.144 44.4789 178.588 44.9362 179.135 44.9362ZM182.11 44.9362C182.658 44.9362 183.102 44.4789 183.102 43.9149C183.102 43.3509 182.658 42.8936 182.11 42.8936C181.562 42.8936 181.118 43.3509 181.118 43.9149C181.118 44.4789 181.562 44.9362 182.11 44.9362ZM185.085 44.9362C185.632 44.9362 186.076 44.4789 186.076 43.9149C186.076 43.3509 185.632 42.8936 185.085 42.8936C184.537 42.8936 184.093 43.3509 184.093 43.9149C184.093 44.4789 184.537 44.9362 185.085 44.9362ZM188.06 44.9362C188.607 44.9362 189.051 44.4789 189.051 43.9149C189.051 43.3509 188.607 42.8936 188.06 42.8936C187.512 42.8936 187.068 43.3509 187.068 43.9149C187.068 44.4789 187.512 44.9362 188.06 44.9362ZM188.06 41.8724C188.607 41.8724 189.051 41.4151 189.051 40.8511C189.051 40.2871 188.607 39.8298 188.06 39.8298C187.512 39.8298 187.068 40.2871 187.068 40.8511C187.068 41.4151 187.512 41.8724 188.06 41.8724ZM191.034 44.9362C191.582 44.9362 192.026 44.4789 192.026 43.9149C192.026 43.3509 191.582 42.8936 191.034 42.8936C190.487 42.8936 190.043 43.3509 190.043 43.9149C190.043 44.4789 190.487 44.9362 191.034 44.9362ZM191.034 41.8724C191.582 41.8724 192.026 41.4151 192.026 40.8511C192.026 40.2871 191.582 39.8298 191.034 39.8298C190.487 39.8298 190.043 40.2871 190.043 40.8511C190.043 41.4151 190.487 41.8724 191.034 41.8724ZM188.06 38.8086C188.607 38.8086 189.051 38.3513 189.051 37.7873C189.051 37.2233 188.607 36.766 188.06 36.766C187.512 36.766 187.068 37.2233 187.068 37.7873C187.068 38.3513 187.512 38.8086 188.06 38.8086ZM188.06 35.7447C188.607 35.7447 189.051 35.2875 189.051 34.7235C189.051 34.1594 188.607 33.7022 188.06 33.7022C187.512 33.7022 187.068 34.1594 187.068 34.7235C187.068 35.2875 187.512 35.7447 188.06 35.7447ZM188.06 32.6809C188.607 32.6809 189.051 32.2237 189.051 31.6597C189.051 31.0956 188.607 30.6384 188.06 30.6384C187.512 30.6384 187.068 31.0956 187.068 31.6597C187.068 32.2237 187.512 32.6809 188.06 32.6809ZM191.034 38.8086C191.582 38.8086 192.026 38.3513 192.026 37.7873C192.026 37.2233 191.582 36.766 191.034 36.766C190.487 36.766 190.043 37.2233 190.043 37.7873C190.043 38.3513 190.487 38.8086 191.034 38.8086ZM191.034 35.7447C191.582 35.7447 192.026 35.2875 192.026 34.7235C192.026 34.1594 191.582 33.7022 191.034 33.7022C190.487 33.7022 190.043 34.1594 190.043 34.7235C190.043 35.2875 190.487 35.7447 191.034 35.7447ZM191.034 32.6809C191.582 32.6809 192.026 32.2237 192.026 31.6597C192.026 31.0956 191.582 30.6384 191.034 30.6384C190.487 30.6384 190.043 31.0956 190.043 31.6597C190.043 32.2237 190.487 32.6809 191.034 32.6809ZM188.06 29.6171C188.607 29.6171 189.051 29.1599 189.051 28.5958C189.051 28.0318 188.607 27.5746 188.06 27.5746C187.512 27.5746 187.068 28.0318 187.068 28.5958C187.068 29.1599 187.512 29.6171 188.06 29.6171ZM188.06 26.5533C188.607 26.5533 189.051 26.0961 189.051 25.532C189.051 24.968 188.607 24.5108 188.06 24.5108C187.512 24.5108 187.068 24.968 187.068 25.532C187.068 26.0961 187.512 26.5533 188.06 26.5533ZM188.06 23.4895C188.607 23.4895 189.051 23.0322 189.051 22.4682C189.051 21.9042 188.607 21.4469 188.06 21.4469C187.512 21.4469 187.068 21.9042 187.068 22.4682C187.068 23.0322 187.512 23.4895 188.06 23.4895ZM191.034 29.6171C191.582 29.6171 192.026 29.1599 192.026 28.5958C192.026 28.0318 191.582 27.5746 191.034 27.5746C190.487 27.5746 190.043 28.0318 190.043 28.5958C190.043 29.1599 190.487 29.6171 191.034 29.6171ZM191.034 26.5533C191.582 26.5533 192.026 26.0961 192.026 25.532C192.026 24.968 191.582 24.5108 191.034 24.5108C190.487 24.5108 190.043 24.968 190.043 25.532C190.043 26.0961 190.487 26.5533 191.034 26.5533ZM191.034 23.4895C191.582 23.4895 192.026 23.0322 192.026 22.4682C192.026 21.9042 191.582 21.4469 191.034 21.4469C190.487 21.4469 190.043 21.9042 190.043 22.4682C190.043 23.0322 190.487 23.4895 191.034 23.4895ZM188.06 20.4257C188.607 20.4257 189.051 19.9684 189.051 19.4044C189.051 18.8404 188.607 18.3831 188.06 18.3831C187.512 18.3831 187.068 18.8404 187.068 19.4044C187.068 19.9684 187.512 20.4257 188.06 20.4257ZM188.06 17.3619C188.607 17.3619 189.051 16.9046 189.051 16.3406C189.051 15.7766 188.607 15.3193 188.06 15.3193C187.512 15.3193 187.068 15.7766 187.068 16.3406C187.068 16.9046 187.512 17.3619 188.06 17.3619ZM188.06 14.298C188.607 14.298 189.051 13.8408 189.051 13.2768C189.051 12.7127 188.607 12.2555 188.06 12.2555C187.512 12.2555 187.068 12.7127 187.068 13.2768C187.068 13.8408 187.512 14.298 188.06 14.298ZM191.034 20.4257C191.582 20.4257 192.026 19.9684 192.026 19.4044C192.026 18.8404 191.582 18.3831 191.034 18.3831C190.487 18.3831 190.043 18.8404 190.043 19.4044C190.043 19.9684 190.487 20.4257 191.034 20.4257ZM191.034 17.3619C191.582 17.3619 192.026 16.9046 192.026 16.3406C192.026 15.7766 191.582 15.3193 191.034 15.3193C190.487 15.3193 190.043 15.7766 190.043 16.3406C190.043 16.9046 190.487 17.3619 191.034 17.3619ZM191.034 14.298C191.582 14.298 192.026 13.8408 192.026 13.2768C192.026 12.7127 191.582 12.2555 191.034 12.2555C190.487 12.2555 190.043 12.7127 190.043 13.2768C190.043 13.8408 190.487 14.298 191.034 14.298ZM188.06 11.2342C188.607 11.2342 189.051 10.777 189.051 10.213C189.051 9.64893 188.607 9.19169 188.06 9.19169C187.512 9.19169 187.068 9.64893 187.068 10.213C187.068 10.777 187.512 11.2342 188.06 11.2342ZM188.06 8.17042C188.607 8.17042 189.051 7.71318 189.051 7.14915C189.051 6.58511 188.607 6.12788 188.06 6.12788C187.512 6.12788 187.068 6.58511 187.068 7.14915C187.068 7.71318 187.512 8.17042 188.06 8.17042ZM188.06 5.1066C188.607 5.1066 189.051 4.64937 189.051 4.08533C189.051 3.5213 188.607 3.06406 188.06 3.06406C187.512 3.06406 187.068 3.5213 187.068 4.08533C187.068 4.64937 187.512 5.1066 188.06 5.1066ZM191.034 11.2342C191.582 11.2342 192.026 10.777 192.026 10.213C192.026 9.64893 191.582 9.19169 191.034 9.19169C190.487 9.19169 190.043 9.64893 190.043 10.213C190.043 10.777 190.487 11.2342 191.034 11.2342ZM191.034 8.17042C191.582 8.17042 192.026 7.71318 192.026 7.14915C192.026 6.58511 191.582 6.12788 191.034 6.12788C190.487 6.12788 190.043 6.58511 190.043 7.14915C190.043 7.71318 190.487 8.17042 191.034 8.17042ZM191.034 5.1066C191.582 5.1066 192.026 4.64937 192.026 4.08533C192.026 3.5213 191.582 3.06406 191.034 3.06406C190.487 3.06406 190.043 3.5213 190.043 4.08533C190.043 4.64937 190.487 5.1066 191.034 5.1066ZM188.06 2.04279C188.607 2.04279 189.051 1.58555 189.051 1.02152C189.051 0.457487 188.607 0.00024839 188.06 0.00024839C187.512 0.00024839 187.068 0.457487 187.068 1.02152C187.068 1.58555 187.512 2.04279 188.06 2.04279ZM191.034 2.04279C191.582 2.04279 192.026 1.58555 192.026 1.02152C192.026 0.457487 191.582 0.00024839 191.034 0.00024839C190.487 0.00024839 190.043 0.457487 190.043 1.02152C190.043 1.58555 190.487 2.04279 191.034 2.04279Z" fill="#4A399D"/>
<path d="M19.5148 46.9787C19.5148 47.5428 19.0709 48 18.5232 48C17.9756 48 17.5316 47.5428 17.5316 46.9787C17.5316 46.4147 17.9756 45.9575 18.5232 45.9575C19.0709 45.9575 19.5148 46.4147 19.5148 46.9787Z" fill="#4A399D"/>
<path d="M19.5148 43.9149C19.5148 44.4789 19.0709 44.9362 18.5232 44.9362C17.9756 44.9362 17.5316 44.4789 17.5316 43.9149C17.5316 43.3509 17.9756 42.8936 18.5232 42.8936C19.0709 42.8936 19.5148 43.3509 19.5148 43.9149Z" fill="#4A399D"/>
<path d="M19.5148 40.8511C19.5148 41.4151 19.0709 41.8724 18.5232 41.8724C17.9756 41.8724 17.5316 41.4151 17.5316 40.8511C17.5316 40.2871 17.9756 39.8298 18.5232 39.8298C19.0709 39.8298 19.5148 40.2871 19.5148 40.8511Z" fill="#4A399D"/>
<path d="M22.4896 46.9787C22.4896 47.5428 22.0457 48 21.498 48C20.9504 48 20.5064 47.5428 20.5064 46.9787C20.5064 46.4147 20.9504 45.9575 21.498 45.9575C22.0457 45.9575 22.4896 46.4147 22.4896 46.9787Z" fill="#4A399D"/>
<path d="M22.4896 43.9149C22.4896 44.4789 22.0457 44.9362 21.498 44.9362C20.9504 44.9362 20.5064 44.4789 20.5064 43.9149C20.5064 43.3509 20.9504 42.8936 21.498 42.8936C22.0457 42.8936 22.4896 43.3509 22.4896 43.9149Z" fill="#4A399D"/>
<path d="M22.4896 40.8511C22.4896 41.4151 22.0457 41.8724 21.498 41.8724C20.9504 41.8724 20.5064 41.4151 20.5064 40.8511C20.5064 40.2871 20.9504 39.8298 21.498 39.8298C22.0457 39.8298 22.4896 40.2871 22.4896 40.8511Z" fill="#4A399D"/>
<path d="M25.4644 46.9787C25.4644 47.5428 25.0205 48 24.4728 48C23.9252 48 23.4812 47.5428 23.4812 46.9787C23.4812 46.4147 23.9252 45.9575 24.4728 45.9575C25.0205 45.9575 25.4644 46.4147 25.4644 46.9787Z" fill="#4A399D"/>
<path d="M25.4644 43.9149C25.4644 44.4789 25.0205 44.9362 24.4728 44.9362C23.9252 44.9362 23.4812 44.4789 23.4812 43.9149C23.4812 43.3509 23.9252 42.8936 24.4728 42.8936C25.0205 42.8936 25.4644 43.3509 25.4644 43.9149Z" fill="#4A399D"/>
<path d="M25.4644 40.8511C25.4644 41.4151 25.0205 41.8724 24.4728 41.8724C23.9252 41.8724 23.4812 41.4151 23.4812 40.8511C23.4812 40.2871 23.9252 39.8298 24.4728 39.8298C25.0205 39.8298 25.4644 40.2871 25.4644 40.8511Z" fill="#4A399D"/>
<path d="M28.4392 46.9787C28.4392 47.5428 27.9953 48 27.4476 48C26.9 48 26.456 47.5428 26.456 46.9787C26.456 46.4147 26.9 45.9575 27.4476 45.9575C27.9953 45.9575 28.4392 46.4147 28.4392 46.9787Z" fill="#4A399D"/>
<path d="M28.4392 43.9149C28.4392 44.4789 27.9953 44.9362 27.4476 44.9362C26.9 44.9362 26.456 44.4789 26.456 43.9149C26.456 43.3509 26.9 42.8936 27.4476 42.8936C27.9953 42.8936 28.4392 43.3509 28.4392 43.9149Z" fill="#4A399D"/>
<path d="M28.4392 40.8511C28.4392 41.4151 27.9953 41.8724 27.4476 41.8724C26.9 41.8724 26.456 41.4151 26.456 40.8511C26.456 40.2871 26.9 39.8298 27.4476 39.8298C27.9953 39.8298 28.4392 40.2871 28.4392 40.8511Z" fill="#4A399D"/>
<path d="M31.414 46.9787C31.414 47.5428 30.97 48 30.4224 48C29.8748 48 29.4308 47.5428 29.4308 46.9787C29.4308 46.4147 29.8748 45.9575 30.4224 45.9575C30.97 45.9575 31.414 46.4147 31.414 46.9787Z" fill="#4A399D"/>
<path d="M31.414 43.9149C31.414 44.4789 30.97 44.9362 30.4224 44.9362C29.8748 44.9362 29.4308 44.4789 29.4308 43.9149C29.4308 43.3509 29.8748 42.8936 30.4224 42.8936C30.97 42.8936 31.414 43.3509 31.414 43.9149Z" fill="#4A399D"/>
<path d="M31.414 40.8511C31.414 41.4151 30.97 41.8724 30.4224 41.8724C29.8748 41.8724 29.4308 41.4151 29.4308 40.8511C29.4308 40.2871 29.8748 39.8298 30.4224 39.8298C30.97 39.8298 31.414 40.2871 31.414 40.8511Z" fill="#4A399D"/>
<path d="M34.3888 46.9787C34.3888 47.5428 33.9448 48 33.3972 48C32.8495 48 32.4056 47.5428 32.4056 46.9787C32.4056 46.4147 32.8495 45.9575 33.3972 45.9575C33.9448 45.9575 34.3888 46.4147 34.3888 46.9787Z" fill="#4A399D"/>
<path d="M34.3888 43.9149C34.3888 44.4789 33.9448 44.9362 33.3972 44.9362C32.8495 44.9362 32.4056 44.4789 32.4056 43.9149C32.4056 43.3509 32.8495 42.8936 33.3972 42.8936C33.9448 42.8936 34.3888 43.3509 34.3888 43.9149Z" fill="#4A399D"/>
<path d="M34.3888 40.8511C34.3888 41.4151 33.9448 41.8724 33.3972 41.8724C32.8495 41.8724 32.4056 41.4151 32.4056 40.8511C32.4056 40.2871 32.8495 39.8298 33.3972 39.8298C33.9448 39.8298 34.3888 40.2871 34.3888 40.8511Z" fill="#4A399D"/>
<path d="M37.3636 46.9787C37.3636 47.5428 36.9196 48 36.372 48C35.8243 48 35.3804 47.5428 35.3804 46.9787C35.3804 46.4147 35.8243 45.9575 36.372 45.9575C36.9196 45.9575 37.3636 46.4147 37.3636 46.9787Z" fill="#4A399D"/>
<path d="M37.3636 43.9149C37.3636 44.4789 36.9196 44.9362 36.372 44.9362C35.8243 44.9362 35.3804 44.4789 35.3804 43.9149C35.3804 43.3509 35.8243 42.8936 36.372 42.8936C36.9196 42.8936 37.3636 43.3509 37.3636 43.9149Z" fill="#4A399D"/>
<path d="M37.3636 40.8511C37.3636 41.4151 36.9196 41.8724 36.372 41.8724C35.8243 41.8724 35.3804 41.4151 35.3804 40.8511C35.3804 40.2871 35.8243 39.8298 36.372 39.8298C36.9196 39.8298 37.3636 40.2871 37.3636 40.8511Z" fill="#4A399D"/>
<path d="M40.3383 46.9787C40.3383 47.5428 39.8944 48 39.3467 48C38.7991 48 38.3551 47.5428 38.3551 46.9787C38.3551 46.4147 38.7991 45.9575 39.3467 45.9575C39.8944 45.9575 40.3383 46.4147 40.3383 46.9787Z" fill="#4A399D"/>
<path d="M40.3383 43.9149C40.3383 44.4789 39.8944 44.9362 39.3467 44.9362C38.7991 44.9362 38.3551 44.4789 38.3551 43.9149C38.3551 43.3509 38.7991 42.8936 39.3467 42.8936C39.8944 42.8936 40.3383 43.3509 40.3383 43.9149Z" fill="#4A399D"/>
<path d="M40.3383 40.8511C40.3383 41.4151 39.8944 41.8724 39.3467 41.8724C38.7991 41.8724 38.3551 41.4151 38.3551 40.8511C38.3551 40.2871 38.7991 39.8298 39.3467 39.8298C39.8944 39.8298 40.3383 40.2871 40.3383 40.8511Z" fill="#4A399D"/>
<path d="M43.3131 46.9787C43.3131 47.5428 42.8692 48 42.3215 48C41.7739 48 41.3299 47.5428 41.3299 46.9787C41.3299 46.4147 41.7739 45.9575 42.3215 45.9575C42.8692 45.9575 43.3131 46.4147 43.3131 46.9787Z" fill="#4A399D"/>
<path d="M43.3131 43.9149C43.3131 44.4789 42.8692 44.9362 42.3215 44.9362C41.7739 44.9362 41.3299 44.4789 41.3299 43.9149C41.3299 43.3509 41.7739 42.8936 42.3215 42.8936C42.8692 42.8936 43.3131 43.3509 43.3131 43.9149Z" fill="#4A399D"/>
<path d="M43.3131 40.8511C43.3131 41.4151 42.8692 41.8724 42.3215 41.8724C41.7739 41.8724 41.3299 41.4151 41.3299 40.8511C41.3299 40.2871 41.7739 39.8298 42.3215 39.8298C42.8692 39.8298 43.3131 40.2871 43.3131 40.8511Z" fill="#4A399D"/>
<path d="M46.2879 46.9787C46.2879 47.5428 45.844 48 45.2963 48C44.7487 48 44.3047 47.5428 44.3047 46.9787C44.3047 46.4147 44.7487 45.9575 45.2963 45.9575C45.844 45.9575 46.2879 46.4147 46.2879 46.9787Z" fill="#4A399D"/>
<path d="M46.2879 43.9149C46.2879 44.4789 45.844 44.9362 45.2963 44.9362C44.7487 44.9362 44.3047 44.4789 44.3047 43.9149C44.3047 43.3509 44.7487 42.8936 45.2963 42.8936C45.844 42.8936 46.2879 43.3509 46.2879 43.9149Z" fill="#4A399D"/>
<path d="M46.2879 40.8511C46.2879 41.4151 45.844 41.8724 45.2963 41.8724C44.7487 41.8724 44.3047 41.4151 44.3047 40.8511C44.3047 40.2871 44.7487 39.8298 45.2963 39.8298C45.844 39.8298 46.2879 40.2871 46.2879 40.8511Z" fill="#4A399D"/>
<path d="M49.2627 46.9787C49.2627 47.5428 48.8188 48 48.2711 48C47.7235 48 47.2795 47.5428 47.2795 46.9787C47.2795 46.4147 47.7235 45.9575 48.2711 45.9575C48.8188 45.9575 49.2627 46.4147 49.2627 46.9787Z" fill="#4A399D"/>
<path d="M49.2627 43.9149C49.2627 44.4789 48.8188 44.9362 48.2711 44.9362C47.7235 44.9362 47.2795 44.4789 47.2795 43.9149C47.2795 43.3509 47.7235 42.8936 48.2711 42.8936C48.8188 42.8936 49.2627 43.3509 49.2627 43.9149Z" fill="#4A399D"/>
<path d="M49.2627 40.8511C49.2627 41.4151 48.8188 41.8724 48.2711 41.8724C47.7235 41.8724 47.2795 41.4151 47.2795 40.8511C47.2795 40.2871 47.7235 39.8298 48.2711 39.8298C48.8188 39.8298 49.2627 40.2871 49.2627 40.8511Z" fill="#4A399D"/>
<path d="M52.2375 46.9787C52.2375 47.5428 51.7935 48 51.2459 48C50.6983 48 50.2543 47.5428 50.2543 46.9787C50.2543 46.4147 50.6983 45.9575 51.2459 45.9575C51.7935 45.9575 52.2375 46.4147 52.2375 46.9787Z" fill="#4A399D"/>
<path d="M52.2375 43.9149C52.2375 44.4789 51.7935 44.9362 51.2459 44.9362C50.6983 44.9362 50.2543 44.4789 50.2543 43.9149C50.2543 43.3509 50.6983 42.8936 51.2459 42.8936C51.7935 42.8936 52.2375 43.3509 52.2375 43.9149Z" fill="#4A399D"/>
<path d="M52.2375 40.8511C52.2375 41.4151 51.7935 41.8724 51.2459 41.8724C50.6983 41.8724 50.2543 41.4151 50.2543 40.8511C50.2543 40.2871 50.6983 39.8298 51.2459 39.8298C51.7935 39.8298 52.2375 40.2871 52.2375 40.8511Z" fill="#4A399D"/>
<path d="M55.2123 46.9787C55.2123 47.5428 54.7683 48 54.2207 48C53.673 48 53.2291 47.5428 53.2291 46.9787C53.2291 46.4147 53.673 45.9575 54.2207 45.9575C54.7683 45.9575 55.2123 46.4147 55.2123 46.9787Z" fill="#4A399D"/>
<path d="M55.2123 43.9149C55.2123 44.4789 54.7683 44.9362 54.2207 44.9362C53.673 44.9362 53.2291 44.4789 53.2291 43.9149C53.2291 43.3509 53.673 42.8936 54.2207 42.8936C54.7683 42.8936 55.2123 43.3509 55.2123 43.9149Z" fill="#4A399D"/>
<path d="M55.2123 40.8511C55.2123 41.4151 54.7683 41.8724 54.2207 41.8724C53.673 41.8724 53.2291 41.4151 53.2291 40.8511C53.2291 40.2871 53.673 39.8298 54.2207 39.8298C54.7683 39.8298 55.2123 40.2871 55.2123 40.8511Z" fill="#4A399D"/>
<path d="M58.1871 46.9787C58.1871 47.5428 57.7431 48 57.1955 48C56.6478 48 56.2039 47.5428 56.2039 46.9787C56.2039 46.4147 56.6478 45.9575 57.1955 45.9575C57.7431 45.9575 58.1871 46.4147 58.1871 46.9787Z" fill="#4A399D"/>
<path d="M58.1871 43.9149C58.1871 44.4789 57.7431 44.9362 57.1955 44.9362C56.6478 44.9362 56.2039 44.4789 56.2039 43.9149C56.2039 43.3509 56.6478 42.8936 57.1955 42.8936C57.7431 42.8936 58.1871 43.3509 58.1871 43.9149Z" fill="#4A399D"/>
<path d="M58.1871 40.8511C58.1871 41.4151 57.7431 41.8724 57.1955 41.8724C56.6478 41.8724 56.2039 41.4151 56.2039 40.8511C56.2039 40.2871 56.6478 39.8298 57.1955 39.8298C57.7431 39.8298 58.1871 40.2871 58.1871 40.8511Z" fill="#4A399D"/>
<path d="M61.1619 46.9787C61.1619 47.5428 60.7179 48 60.1703 48C59.6226 48 59.1787 47.5428 59.1787 46.9787C59.1787 46.4147 59.6226 45.9575 60.1703 45.9575C60.7179 45.9575 61.1619 46.4147 61.1619 46.9787Z" fill="#4A399D"/>
<path d="M61.1619 43.9149C61.1619 44.4789 60.7179 44.9362 60.1703 44.9362C59.6226 44.9362 59.1787 44.4789 59.1787 43.9149C59.1787 43.3509 59.6226 42.8936 60.1703 42.8936C60.7179 42.8936 61.1619 43.3509 61.1619 43.9149Z" fill="#4A399D"/>
<path d="M61.1619 40.8511C61.1619 41.4151 60.7179 41.8724 60.1703 41.8724C59.6226 41.8724 59.1787 41.4151 59.1787 40.8511C59.1787 40.2871 59.6226 39.8298 60.1703 39.8298C60.7179 39.8298 61.1619 40.2871 61.1619 40.8511Z" fill="#4A399D"/>
<path d="M64.1367 46.9787C64.1367 47.5428 63.6927 48 63.1451 48C62.5974 48 62.1535 47.5428 62.1535 46.9787C62.1535 46.4147 62.5974 45.9575 63.1451 45.9575C63.6927 45.9575 64.1367 46.4147 64.1367 46.9787Z" fill="#4A399D"/>
<path d="M64.1367 43.9149C64.1367 44.4789 63.6927 44.9362 63.1451 44.9362C62.5974 44.9362 62.1535 44.4789 62.1535 43.9149C62.1535 43.3509 62.5974 42.8936 63.1451 42.8936C63.6927 42.8936 64.1367 43.3509 64.1367 43.9149Z" fill="#4A399D"/>
<path d="M64.1367 40.8511C64.1367 41.4151 63.6927 41.8724 63.1451 41.8724C62.5974 41.8724 62.1535 41.4151 62.1535 40.8511C62.1535 40.2871 62.5974 39.8298 63.1451 39.8298C63.6927 39.8298 64.1367 40.2871 64.1367 40.8511Z" fill="#4A399D"/>
<path d="M67.1115 46.9787C67.1115 47.5428 66.6675 48 66.1199 48C65.5722 48 65.1283 47.5428 65.1283 46.9787C65.1283 46.4147 65.5722 45.9575 66.1199 45.9575C66.6675 45.9575 67.1115 46.4147 67.1115 46.9787Z" fill="#4A399D"/>
<path d="M67.1115 43.9149C67.1115 44.4789 66.6675 44.9362 66.1199 44.9362C65.5722 44.9362 65.1283 44.4789 65.1283 43.9149C65.1283 43.3509 65.5722 42.8936 66.1199 42.8936C66.6675 42.8936 67.1115 43.3509 67.1115 43.9149Z" fill="#4A399D"/>
<path d="M67.1115 40.8511C67.1115 41.4151 66.6675 41.8724 66.1199 41.8724C65.5722 41.8724 65.1283 41.4151 65.1283 40.8511C65.1283 40.2871 65.5722 39.8298 66.1199 39.8298C66.6675 39.8298 67.1115 40.2871 67.1115 40.8511Z" fill="#4A399D"/>
<path d="M70.0862 46.9787C70.0862 47.5428 69.6423 48 69.0946 48C68.547 48 68.103 47.5428 68.103 46.9787C68.103 46.4147 68.547 45.9575 69.0946 45.9575C69.6423 45.9575 70.0862 46.4147 70.0862 46.9787Z" fill="#4A399D"/>
<path d="M70.0862 43.9149C70.0862 44.4789 69.6423 44.9362 69.0946 44.9362C68.547 44.9362 68.103 44.4789 68.103 43.9149C68.103 43.3509 68.547 42.8936 69.0946 42.8936C69.6423 42.8936 70.0862 43.3509 70.0862 43.9149Z" fill="#4A399D"/>
<path d="M70.0862 40.8511C70.0862 41.4151 69.6423 41.8724 69.0946 41.8724C68.547 41.8724 68.103 41.4151 68.103 40.8511C68.103 40.2871 68.547 39.8298 69.0946 39.8298C69.6423 39.8298 70.0862 40.2871 70.0862 40.8511Z" fill="#4A399D"/>
<path d="M73.061 46.9787C73.061 47.5428 72.6171 48 72.0694 48C71.5218 48 71.0778 47.5428 71.0778 46.9787C71.0778 46.4147 71.5218 45.9575 72.0694 45.9575C72.6171 45.9575 73.061 46.4147 73.061 46.9787Z" fill="#4A399D"/>
<path d="M73.061 43.9149C73.061 44.4789 72.6171 44.9362 72.0694 44.9362C71.5218 44.9362 71.0778 44.4789 71.0778 43.9149C71.0778 43.3509 71.5218 42.8936 72.0694 42.8936C72.6171 42.8936 73.061 43.3509 73.061 43.9149Z" fill="#4A399D"/>
<path d="M73.061 40.8511C73.061 41.4151 72.6171 41.8724 72.0694 41.8724C71.5218 41.8724 71.0778 41.4151 71.0778 40.8511C71.0778 40.2871 71.5218 39.8298 72.0694 39.8298C72.6171 39.8298 73.061 40.2871 73.061 40.8511Z" fill="#4A399D"/>
<path d="M76.0358 46.9787C76.0358 47.5428 75.5919 48 75.0442 48C74.4966 48 74.0526 47.5428 74.0526 46.9787C74.0526 46.4147 74.4966 45.9575 75.0442 45.9575C75.5919 45.9575 76.0358 46.4147 76.0358 46.9787Z" fill="#4A399D"/>
<path d="M76.0358 43.9149C76.0358 44.4789 75.5919 44.9362 75.0442 44.9362C74.4966 44.9362 74.0526 44.4789 74.0526 43.9149C74.0526 43.3509 74.4966 42.8936 75.0442 42.8936C75.5919 42.8936 76.0358 43.3509 76.0358 43.9149Z" fill="#4A399D"/>
<path d="M76.0358 40.8511C76.0358 41.4151 75.5919 41.8724 75.0442 41.8724C74.4966 41.8724 74.0526 41.4151 74.0526 40.8511C74.0526 40.2871 74.4966 39.8298 75.0442 39.8298C75.5919 39.8298 76.0358 40.2871 76.0358 40.8511Z" fill="#4A399D"/>
<path d="M4.65774 46.9787C4.65774 47.5428 4.21379 48 3.66614 48C3.1185 48 2.67455 47.5428 2.67455 46.9787C2.67455 46.4147 3.1185 45.9575 3.66614 45.9575C4.21379 45.9575 4.65774 46.4147 4.65774 46.9787Z" fill="#4A399D"/>
<path d="M4.65774 43.9149C4.65774 44.4789 4.21379 44.9362 3.66614 44.9362C3.1185 44.9362 2.67455 44.4789 2.67455 43.9149C2.67455 43.3509 3.1185 42.8936 3.66614 42.8936C4.21379 42.8936 4.65774 43.3509 4.65774 43.9149Z" fill="#4A399D"/>
<path d="M4.65774 40.8511C4.65774 41.4151 4.21379 41.8724 3.66614 41.8724C3.1185 41.8724 2.67455 41.4151 2.67455 40.8511C2.67455 40.2871 3.1185 39.8298 3.66614 39.8298C4.21379 39.8298 4.65774 40.2871 4.65774 40.8511Z" fill="#4A399D"/>
<path d="M7.63253 46.9787C7.63253 47.5428 7.18858 48 6.64093 48C6.09329 48 5.64934 47.5428 5.64934 46.9787C5.64934 46.4147 6.09329 45.9575 6.64093 45.9575C7.18858 45.9575 7.63253 46.4147 7.63253 46.9787Z" fill="#4A399D"/>
<path d="M7.63253 43.9149C7.63253 44.4789 7.18858 44.9362 6.64093 44.9362C6.09329 44.9362 5.64934 44.4789 5.64934 43.9149C5.64934 43.3509 6.09329 42.8936 6.64093 42.8936C7.18858 42.8936 7.63253 43.3509 7.63253 43.9149Z" fill="#4A399D"/>
<path d="M7.63253 40.8511C7.63253 41.4151 7.18858 41.8724 6.64093 41.8724C6.09329 41.8724 5.64934 41.4151 5.64934 40.8511C5.64934 40.2871 6.09329 39.8298 6.64093 39.8298C7.18858 39.8298 7.63253 40.2871 7.63253 40.8511Z" fill="#4A399D"/>
<path d="M10.6073 46.9787C10.6073 47.5428 10.1634 48 9.61572 48C9.06808 48 8.62413 47.5428 8.62413 46.9787C8.62413 46.4147 9.06808 45.9575 9.61572 45.9575C10.1634 45.9575 10.6073 46.4147 10.6073 46.9787Z" fill="#4A399D"/>
<path d="M10.6073 43.9149C10.6073 44.4789 10.1634 44.9362 9.61572 44.9362C9.06808 44.9362 8.62413 44.4789 8.62413 43.9149C8.62413 43.3509 9.06808 42.8936 9.61572 42.8936C10.1634 42.8936 10.6073 43.3509 10.6073 43.9149Z" fill="#4A399D"/>
<path d="M10.6073 40.8511C10.6073 41.4151 10.1634 41.8724 9.61572 41.8724C9.06808 41.8724 8.62413 41.4151 8.62413 40.8511C8.62413 40.2871 9.06808 39.8298 9.61572 39.8298C10.1634 39.8298 10.6073 40.2871 10.6073 40.8511Z" fill="#4A399D"/>
<path d="M13.5821 46.9787C13.5821 47.5428 13.1382 48 12.5905 48C12.0429 48 11.5989 47.5428 11.5989 46.9787C11.5989 46.4147 12.0429 45.9575 12.5905 45.9575C13.1382 45.9575 13.5821 46.4147 13.5821 46.9787Z" fill="#4A399D"/>
<path d="M13.5821 43.9149C13.5821 44.4789 13.1382 44.9362 12.5905 44.9362C12.0429 44.9362 11.5989 44.4789 11.5989 43.9149C11.5989 43.3509 12.0429 42.8936 12.5905 42.8936C13.1382 42.8936 13.5821 43.3509 13.5821 43.9149Z" fill="#4A399D"/>
<path d="M13.5821 40.8511C13.5821 41.4151 13.1382 41.8724 12.5905 41.8724C12.0429 41.8724 11.5989 41.4151 11.5989 40.8511C11.5989 40.2871 12.0429 39.8298 12.5905 39.8298C13.1382 39.8298 13.5821 40.2871 13.5821 40.8511Z" fill="#4A399D"/>
<path d="M16.5569 46.9787C16.5569 47.5428 16.1129 48 15.5653 48C15.0177 48 14.5737 47.5428 14.5737 46.9787C14.5737 46.4147 15.0177 45.9575 15.5653 45.9575C16.1129 45.9575 16.5569 46.4147 16.5569 46.9787Z" fill="#4A399D"/>
<path d="M16.5569 43.9149C16.5569 44.4789 16.1129 44.9362 15.5653 44.9362C15.0177 44.9362 14.5737 44.4789 14.5737 43.9149C14.5737 43.3509 15.0177 42.8936 15.5653 42.8936C16.1129 42.8936 16.5569 43.3509 16.5569 43.9149Z" fill="#4A399D"/>
<path d="M16.5569 40.8511C16.5569 41.4151 16.1129 41.8724 15.5653 41.8724C15.0177 41.8724 14.5737 41.4151 14.5737 40.8511C14.5737 40.2871 15.0177 39.8298 15.5653 39.8298C16.1129 39.8298 16.5569 40.2871 16.5569 40.8511Z" fill="#4A399D"/>
<path d="M19.5317 46.9787C19.5317 47.5428 19.0877 48 18.5401 48C17.9924 48 17.5485 47.5428 17.5485 46.9787C17.5485 46.4147 17.9924 45.9575 18.5401 45.9575C19.0877 45.9575 19.5317 46.4147 19.5317 46.9787Z" fill="#4A399D"/>
<path d="M19.5317 43.9149C19.5317 44.4789 19.0877 44.9362 18.5401 44.9362C17.9924 44.9362 17.5485 44.4789 17.5485 43.9149C17.5485 43.3509 17.9924 42.8936 18.5401 42.8936C19.0877 42.8936 19.5317 43.3509 19.5317 43.9149Z" fill="#4A399D"/>
<path d="M19.5317 40.8511C19.5317 41.4151 19.0877 41.8724 18.5401 41.8724C17.9924 41.8724 17.5485 41.4151 17.5485 40.8511C17.5485 40.2871 17.9924 39.8298 18.5401 39.8298C19.0877 39.8298 19.5317 40.2871 19.5317 40.8511Z" fill="#4A399D"/>
<path d="M0.691353 41.8724C1.239 41.8724 1.68295 41.4151 1.68295 40.8511C1.68295 40.2871 1.239 39.8298 0.691353 39.8298C0.422488 39.8298 0.178615 39.94 0 40.119V41.5832C0.178615 41.7622 0.422488 41.8724 0.691353 41.8724Z" fill="#4A399D"/>
<path d="M0.691353 44.9362C1.239 44.9362 1.68295 44.4789 1.68295 43.9149C1.68295 43.3509 1.239 42.8936 0.691353 42.8936C0.422488 42.8936 0.178615 43.0039 0 43.1828V44.647C0.178615 44.826 0.422488 44.9362 0.691353 44.9362Z" fill="#4A399D"/>
<path d="M0.691353 48C1.239 48 1.68295 47.5428 1.68295 46.9787C1.68295 46.4147 1.239 45.9575 0.691353 45.9575C0.422488 45.9575 0.178615 46.0677 0 46.2466V47.7108C0.178615 47.8898 0.422488 48 0.691353 48Z" fill="#4A399D"/>
</svg>
