<svg width="521" height="96" viewBox="0 0 521 96" fill="none" xmlns="http://www.w3.org/2000/svg">
<g clip-path="url(#clip0_661_5995)">
<mask id="path-1-outside-1_661_5995" maskUnits="userSpaceOnUse" x="5" y="26" width="507" height="45" fill="black">
<rect fill="white" x="5" y="26" width="507" height="45"/>
<path d="M10 66V31H40V36H20V46H40V51H45V61H40V66H10ZM20 61H35V51H20V61ZM52 66V31H87V36H62V46H82V51H62V61H87V66H52ZM99 66V61H94V56H104V61H119V51H104V46H119V36H104V41H94V36H99V31H124V36H129V46H124V51H129V61H124V66H99ZM141 66V61H136V36H141V31H166V36H171V61H166V66H141ZM146 61H161V36H146V61ZM178 66V31H213V66H203V36H188V66H178ZM220 66V41H225V36H230V31H245V36H250V41H255V66H245V56H230V66H220ZM230 51H245V41H240V36H235V41H230V51ZM272 66V61H267V56H262V41H267V36H272V31H292V36H297V41H287V36H277V41H272V56H277V61H287V56H297V61H292V66H272ZM304 66V31H314V46H329V31H339V66H329V51H314V66H304ZM351 66V61H346V36H351V31H376V36H381V61H376V66H351ZM356 61H371V36H356V61ZM398 66V61H393V56H388V41H393V36H398V31H418V36H423V41H413V36H403V41H398V56H403V61H413V56H423V61H418V66H398ZM445 66V36H435V31H465V36H455V66H445ZM472 66V31H482V41H502V46H507V61H502V66H472ZM482 61H497V46H482V61Z"/>
</mask>
<path d="M10 66H5V71H10V66ZM10 31V26H5V31H10ZM40 31H45V26H40V31ZM40 36V41H45V36H40ZM20 36V31H15V36H20ZM20 46H15V51H20V46ZM40 46H45V41H40V46ZM40 51H35V56H40V51ZM45 51H50V46H45V51ZM45 61V66H50V61H45ZM40 61V56H35V61H40ZM40 66V71H45V66H40ZM20 61H15V66H20V61ZM35 61V66H40V61H35ZM35 51H40V46H35V51ZM20 51V46H15V51H20ZM15 66V31H5V66H15ZM10 36H40V26H10V36ZM35 31V36H45V31H35ZM40 31H20V41H40V31ZM15 36V46H25V36H15ZM20 51H40V41H20V51ZM35 46V51H45V46H35ZM40 56H45V46H40V56ZM40 51V61H50V51H40ZM45 56H40V66H45V56ZM35 61V66H45V61H35ZM40 61H10V71H40V61ZM20 66H35V56H20V66ZM40 61V51H30V61H40ZM35 46H20V56H35V46ZM15 51V61H25V51H15ZM52 66H47V71H52V66ZM52 31V26H47V31H52ZM87 31H92V26H87V31ZM87 36V41H92V36H87ZM62 36V31H57V36H62ZM62 46H57V51H62V46ZM82 46H87V41H82V46ZM82 51V56H87V51H82ZM62 51V46H57V51H62ZM62 61H57V66H62V61ZM87 61H92V56H87V61ZM87 66V71H92V66H87ZM57 66V31H47V66H57ZM52 36H87V26H52V36ZM82 31V36H92V31H82ZM87 31H62V41H87V31ZM57 36V46H67V36H57ZM62 51H82V41H62V51ZM77 46V51H87V46H77ZM82 46H62V56H82V46ZM57 51V61H67V51H57ZM62 66H87V56H62V66ZM82 61V66H92V61H82ZM87 61H52V71H87V61ZM99 66H94V71H99V66ZM99 61H104V56H99V61ZM94 61H89V66H94V61ZM94 56V51H89V56H94ZM104 56H109V51H104V56ZM104 61H99V66H104V61ZM119 61V66H124V61H119ZM119 51H124V46H119V51ZM104 51H99V56H104V51ZM104 46V41H99V46H104ZM119 46V51H124V46H119ZM119 36H124V31H119V36ZM104 36V31H99V36H104ZM104 41V46H109V41H104ZM94 41H89V46H94V41ZM94 36V31H89V36H94ZM99 36V41H104V36H99ZM99 31V26H94V31H99ZM124 31H129V26H124V31ZM124 36H119V41H124V36ZM129 36H134V31H129V36ZM129 46V51H134V46H129ZM124 46V41H119V46H124ZM124 51H119V56H124V51ZM129 51H134V46H129V51ZM129 61V66H134V61H129ZM124 61V56H119V61H124ZM124 66V71H129V66H124ZM104 66V61H94V66H104ZM99 56H94V66H99V56ZM99 61V56H89V61H99ZM94 61H104V51H94V61ZM99 56V61H109V56H99ZM104 66H119V56H104V66ZM124 61V51H114V61H124ZM119 46H104V56H119V46ZM109 51V46H99V51H109ZM104 51H119V41H104V51ZM124 46V36H114V46H124ZM119 31H104V41H119V31ZM99 36V41H109V36H99ZM104 36H94V46H104V36ZM99 41V36H89V41H99ZM94 41H99V31H94V41ZM104 36V31H94V36H104ZM99 36H124V26H99V36ZM119 31V36H129V31H119ZM124 41H129V31H124V41ZM124 36V46H134V36H124ZM129 41H124V51H129V41ZM119 46V51H129V46H119ZM124 56H129V46H124V56ZM124 51V61H134V51H124ZM129 56H124V66H129V56ZM119 61V66H129V61H119ZM124 61H99V71H124V61ZM141 66H136V71H141V66ZM141 61H146V56H141V61ZM136 61H131V66H136V61ZM136 36V31H131V36H136ZM141 36V41H146V36H141ZM141 31V26H136V31H141ZM166 31H171V26H166V31ZM166 36H161V41H166V36ZM171 36H176V31H171V36ZM171 61V66H176V61H171ZM166 61V56H161V61H166ZM166 66V71H171V66H166ZM146 61H141V66H146V61ZM161 61V66H166V61H161ZM161 36H166V31H161V36ZM146 36V31H141V36H146ZM146 66V61H136V66H146ZM141 56H136V66H141V56ZM141 61V36H131V61H141ZM136 41H141V31H136V41ZM146 36V31H136V36H146ZM141 36H166V26H141V36ZM161 31V36H171V31H161ZM166 41H171V31H166V41ZM166 36V61H176V36H166ZM171 56H166V66H171V56ZM161 61V66H171V61H161ZM166 61H141V71H166V61ZM146 66H161V56H146V66ZM166 61V36H156V61H166ZM161 31H146V41H161V31ZM141 36V61H151V36H141ZM178 66H173V71H178V66ZM178 31V26H173V31H178ZM213 31H218V26H213V31ZM213 66V71H218V66H213ZM203 66H198V71H203V66ZM203 36H208V31H203V36ZM188 36V31H183V36H188ZM188 66V71H193V66H188ZM183 66V31H173V66H183ZM178 36H213V26H178V36ZM208 31V66H218V31H208ZM213 61H203V71H213V61ZM208 66V36H198V66H208ZM203 31H188V41H203V31ZM183 36V66H193V36H183ZM188 61H178V71H188V61ZM220 66H215V71H220V66ZM220 41V36H215V41H220ZM225 41V46H230V41H225ZM225 36V31H220V36H225ZM230 36V41H235V36H230ZM230 31V26H225V31H230ZM245 31H250V26H245V31ZM245 36H240V41H245V36ZM250 36H255V31H250V36ZM250 41H245V46H250V41ZM255 41H260V36H255V41ZM255 66V71H260V66H255ZM245 66H240V71H245V66ZM245 56H250V51H245V56ZM230 56V51H225V56H230ZM230 66V71H235V66H230ZM230 51H225V56H230V51ZM245 51V56H250V51H245ZM245 41H250V36H245V41ZM240 41H235V46H240V41ZM240 36H245V31H240V36ZM235 36V31H230V36H235ZM235 41V46H240V41H235ZM230 41V36H225V41H230ZM225 66V41H215V66H225ZM220 46H225V36H220V46ZM230 41V36H220V41H230ZM225 41H230V31H225V41ZM235 36V31H225V36H235ZM230 36H245V26H230V36ZM240 31V36H250V31H240ZM245 41H250V31H245V41ZM245 36V41H255V36H245ZM250 46H255V36H250V46ZM250 41V66H260V41H250ZM255 61H245V71H255V61ZM250 66V56H240V66H250ZM245 51H230V61H245V51ZM225 56V66H235V56H225ZM230 61H220V71H230V61ZM230 56H245V46H230V56ZM250 51V41H240V51H250ZM245 36H240V46H245V36ZM245 41V36H235V41H245ZM240 31H235V41H240V31ZM230 36V41H240V36H230ZM235 36H230V46H235V36ZM225 41V51H235V41H225ZM272 66H267V71H272V66ZM272 61H277V56H272V61ZM267 61H262V66H267V61ZM267 56H272V51H267V56ZM262 56H257V61H262V56ZM262 41V36H257V41H262ZM267 41V46H272V41H267ZM267 36V31H262V36H267ZM272 36V41H277V36H272ZM272 31V26H267V31H272ZM292 31H297V26H292V31ZM292 36H287V41H292V36ZM297 36H302V31H297V36ZM297 41V46H302V41H297ZM287 41H282V46H287V41ZM287 36H292V31H287V36ZM277 36V31H272V36H277ZM277 41V46H282V41H277ZM272 41V36H267V41H272ZM272 56H267V61H272V56ZM277 56H282V51H277V56ZM277 61H272V66H277V61ZM287 61V66H292V61H287ZM287 56V51H282V56H287ZM297 56H302V51H297V56ZM297 61V66H302V61H297ZM292 61V56H287V61H292ZM292 66V71H297V66H292ZM277 66V61H267V66H277ZM272 56H267V66H272V56ZM272 61V56H262V61H272ZM267 51H262V61H267V51ZM267 56V41H257V56H267ZM262 46H267V36H262V46ZM272 41V36H262V41H272ZM267 41H272V31H267V41ZM277 36V31H267V36H277ZM272 36H292V26H272V36ZM287 31V36H297V31H287ZM292 41H297V31H292V41ZM292 36V41H302V36H292ZM297 36H287V46H297V36ZM292 41V36H282V41H292ZM287 31H277V41H287V31ZM272 36V41H282V36H272ZM277 36H272V46H277V36ZM267 41V56H277V41H267ZM272 61H277V51H272V61ZM272 56V61H282V56H272ZM277 66H287V56H277V66ZM292 61V56H282V61H292ZM287 61H297V51H287V61ZM292 56V61H302V56H292ZM297 56H292V66H297V56ZM287 61V66H297V61H287ZM292 61H272V71H292V61ZM304 66H299V71H304V66ZM304 31V26H299V31H304ZM314 31H319V26H314V31ZM314 46H309V51H314V46ZM329 46V51H334V46H329ZM329 31V26H324V31H329ZM339 31H344V26H339V31ZM339 66V71H344V66H339ZM329 66H324V71H329V66ZM329 51H334V46H329V51ZM314 51V46H309V51H314ZM314 66V71H319V66H314ZM309 66V31H299V66H309ZM304 36H314V26H304V36ZM309 31V46H319V31H309ZM314 51H329V41H314V51ZM334 46V31H324V46H334ZM329 36H339V26H329V36ZM334 31V66H344V31H334ZM339 61H329V71H339V61ZM334 66V51H324V66H334ZM329 46H314V56H329V46ZM309 51V66H319V51H309ZM314 61H304V71H314V61ZM351 66H346V71H351V66ZM351 61H356V56H351V61ZM346 61H341V66H346V61ZM346 36V31H341V36H346ZM351 36V41H356V36H351ZM351 31V26H346V31H351ZM376 31H381V26H376V31ZM376 36H371V41H376V36ZM381 36H386V31H381V36ZM381 61V66H386V61H381ZM376 61V56H371V61H376ZM376 66V71H381V66H376ZM356 61H351V66H356V61ZM371 61V66H376V61H371ZM371 36H376V31H371V36ZM356 36V31H351V36H356ZM356 66V61H346V66H356ZM351 56H346V66H351V56ZM351 61V36H341V61H351ZM346 41H351V31H346V41ZM356 36V31H346V36H356ZM351 36H376V26H351V36ZM371 31V36H381V31H371ZM376 41H381V31H376V41ZM376 36V61H386V36H376ZM381 56H376V66H381V56ZM371 61V66H381V61H371ZM376 61H351V71H376V61ZM356 66H371V56H356V66ZM376 61V36H366V61H376ZM371 31H356V41H371V31ZM351 36V61H361V36H351ZM398 66H393V71H398V66ZM398 61H403V56H398V61ZM393 61H388V66H393V61ZM393 56H398V51H393V56ZM388 56H383V61H388V56ZM388 41V36H383V41H388ZM393 41V46H398V41H393ZM393 36V31H388V36H393ZM398 36V41H403V36H398ZM398 31V26H393V31H398ZM418 31H423V26H418V31ZM418 36H413V41H418V36ZM423 36H428V31H423V36ZM423 41V46H428V41H423ZM413 41H408V46H413V41ZM413 36H418V31H413V36ZM403 36V31H398V36H403ZM403 41V46H408V41H403ZM398 41V36H393V41H398ZM398 56H393V61H398V56ZM403 56H408V51H403V56ZM403 61H398V66H403V61ZM413 61V66H418V61H413ZM413 56V51H408V56H413ZM423 56H428V51H423V56ZM423 61V66H428V61H423ZM418 61V56H413V61H418ZM418 66V71H423V66H418ZM403 66V61H393V66H403ZM398 56H393V66H398V56ZM398 61V56H388V61H398ZM393 51H388V61H393V51ZM393 56V41H383V56H393ZM388 46H393V36H388V46ZM398 41V36H388V41H398ZM393 41H398V31H393V41ZM403 36V31H393V36H403ZM398 36H418V26H398V36ZM413 31V36H423V31H413ZM418 41H423V31H418V41ZM418 36V41H428V36H418ZM423 36H413V46H423V36ZM418 41V36H408V41H418ZM413 31H403V41H413V31ZM398 36V41H408V36H398ZM403 36H398V46H403V36ZM393 41V56H403V41H393ZM398 61H403V51H398V61ZM398 56V61H408V56H398ZM403 66H413V56H403V66ZM418 61V56H408V61H418ZM413 61H423V51H413V61ZM418 56V61H428V56H418ZM423 56H418V66H423V56ZM413 61V66H423V61H413ZM418 61H398V71H418V61ZM445 66H440V71H445V66ZM445 36H450V31H445V36ZM435 36H430V41H435V36ZM435 31V26H430V31H435ZM465 31H470V26H465V31ZM465 36V41H470V36H465ZM455 36V31H450V36H455ZM455 66V71H460V66H455ZM450 66V36H440V66H450ZM445 31H435V41H445V31ZM440 36V31H430V36H440ZM435 36H465V26H435V36ZM460 31V36H470V31H460ZM465 31H455V41H465V31ZM450 36V66H460V36H450ZM455 61H445V71H455V61ZM472 66H467V71H472V66ZM472 31V26H467V31H472ZM482 31H487V26H482V31ZM482 41H477V46H482V41ZM502 41H507V36H502V41ZM502 46H497V51H502V46ZM507 46H512V41H507V46ZM507 61V66H512V61H507ZM502 61V56H497V61H502ZM502 66V71H507V66H502ZM482 61H477V66H482V61ZM497 61V66H502V61H497ZM497 46H502V41H497V46ZM482 46V41H477V46H482ZM477 66V31H467V66H477ZM472 36H482V26H472V36ZM477 31V41H487V31H477ZM482 46H502V36H482V46ZM497 41V46H507V41H497ZM502 51H507V41H502V51ZM502 46V61H512V46H502ZM507 56H502V66H507V56ZM497 61V66H507V61H497ZM502 61H472V71H502V61ZM482 66H497V56H482V66ZM502 61V46H492V61H502ZM497 41H482V51H497V41ZM477 46V61H487V46H477Z" fill="white" mask="url(#path-1-outside-1_661_5995)"/>
</g>
<defs>
<clipPath id="clip0_661_5995">
<rect width="521" height="96" fill="white"/>
</clipPath>
</defs>
</svg>
