<svg width="353" height="588" viewBox="0 0 353 588" fill="none" xmlns="http://www.w3.org/2000/svg">
<g clip-path="url(#clip0_589_4576)">
<rect width="353" height="588" fill="#EBE965"/>
<g filter="url(#filter0_f_589_4576)">
<path d="M197.5 18.036C164.271 71.554 177 178.036 177 178.036C177 178.036 427.2 361.836 472 209.036C516.8 56.2359 450.333 -38.964 411.5 -67.464C372.667 -95.964 244.971 -58.421 197.5 18.036Z" fill="#4A399D"/>
<path d="M-186.355 -102.964C-237.188 -69.464 -155.5 333.536 5 202.036C110.223 115.826 210.5 -21.9641 210.5 -21.9641C210.5 -21.9641 105.335 -192.687 -1.5 -194.964C-82.1183 -196.682 -135.521 -136.464 -186.355 -102.964Z" fill="#9283DB"/>
<path d="M-206.927 513.536C-104.927 504.536 90.6727 517.336 57.0727 640.536C23.4727 763.736 -89.2606 743.869 -141.427 718.536C-170.094 681.202 -223.327 587.936 -206.927 513.536Z" fill="#9283DB"/>
<path d="M225 448.036C127.5 302.036 60.3727 101.936 -22.4273 243.536C-105.227 385.136 -31.9273 451.536 15.0727 467.036C89.7394 444.869 298.1 498.136 342.5 536.536C386.9 574.936 207.406 597.869 136.073 648.536C78.7393 697.202 1.27269 789.536 150.073 769.536C298.873 749.536 423.073 585.202 466.573 505.536C510.073 425.869 322.5 594.036 225 448.036Z" fill="#DFDC01"/>
</g>
</g>
<defs>
<filter id="filter0_f_589_4576" x="-410" y="-395" width="1096.95" height="1367.33" filterUnits="userSpaceOnUse" color-interpolation-filters="sRGB">
<feFlood flood-opacity="0" result="BackgroundImageFix"/>
<feBlend mode="normal" in="SourceGraphic" in2="BackgroundImageFix" result="shape"/>
<feGaussianBlur stdDeviation="100" result="effect1_foregroundBlur_589_4576"/>
</filter>
<clipPath id="clip0_589_4576">
<rect width="353" height="588" fill="white"/>
</clipPath>
</defs>
</svg>
