<svg width="521" height="96" viewBox="0 0 521 96" fill="none" xmlns="http://www.w3.org/2000/svg">
<g clip-path="url(#clip0_661_5989)">
<mask id="path-1-outside-1_661_5989" maskUnits="userSpaceOnUse" x="5" y="22.5" width="297" height="45" fill="black">
<rect fill="white" x="5" y="22.5" width="297" height="45"/>
<path d="M20 62.5V57.5H15V52.5H10V37.5H15V32.5H20V27.5H40V32.5H45V37.5H35V32.5H25V37.5H20V52.5H25V57.5H35V52.5H45V57.5H40V62.5H20ZM52 62.5V27.5H62V47.5H67V42.5H72V37.5H77V27.5H87V62.5H77V47.5H72V52.5H67V57.5H62V62.5H52ZM104 62.5V57.5H99V52.5H94V37.5H99V32.5H104V27.5H124V32.5H129V37.5H119V32.5H109V37.5H104V52.5H109V57.5H119V52.5H129V57.5H124V62.5H104ZM151 62.5V32.5H141V27.5H171V32.5H161V62.5H151ZM178 62.5V27.5H213V32.5H188V42.5H208V47.5H188V57.5H213V62.5H178ZM220 62.5V27.5H230V32.5H235V37.5H240V32.5H245V27.5H255V62.5H245V42.5H240V52.5H235V42.5H230V62.5H220ZM262 62.5V27.5H272V37.5H282V62.5H262ZM287 62.5V27.5H297V62.5H287ZM272 57.5H277V42.5H272V57.5Z"/>
</mask>
<path d="M20 62.5H15V67.5H20V62.5ZM20 57.5H25V52.5H20V57.5ZM15 57.5H10V62.5H15V57.5ZM15 52.5H20V47.5H15V52.5ZM10 52.5H5V57.5H10V52.5ZM10 37.5V32.5H5V37.5H10ZM15 37.5V42.5H20V37.5H15ZM15 32.5V27.5H10V32.5H15ZM20 32.5V37.5H25V32.5H20ZM20 27.5V22.5H15V27.5H20ZM40 27.5H45V22.5H40V27.5ZM40 32.5H35V37.5H40V32.5ZM45 32.5H50V27.5H45V32.5ZM45 37.5V42.5H50V37.5H45ZM35 37.5H30V42.5H35V37.5ZM35 32.5H40V27.5H35V32.5ZM25 32.5V27.5H20V32.5H25ZM25 37.5V42.5H30V37.5H25ZM20 37.5V32.5H15V37.5H20ZM20 52.5H15V57.5H20V52.5ZM25 52.5H30V47.5H25V52.5ZM25 57.5H20V62.5H25V57.5ZM35 57.5V62.5H40V57.5H35ZM35 52.5V47.5H30V52.5H35ZM45 52.5H50V47.5H45V52.5ZM45 57.5V62.5H50V57.5H45ZM40 57.5V52.5H35V57.5H40ZM40 62.5V67.5H45V62.5H40ZM25 62.5V57.5H15V62.5H25ZM20 52.5H15V62.5H20V52.5ZM20 57.5V52.5H10V57.5H20ZM15 47.5H10V57.5H15V47.5ZM15 52.5V37.5H5V52.5H15ZM10 42.5H15V32.5H10V42.5ZM20 37.5V32.5H10V37.5H20ZM15 37.5H20V27.5H15V37.5ZM25 32.5V27.5H15V32.5H25ZM20 32.5H40V22.5H20V32.5ZM35 27.5V32.5H45V27.5H35ZM40 37.5H45V27.5H40V37.5ZM40 32.5V37.5H50V32.5H40ZM45 32.5H35V42.5H45V32.5ZM40 37.5V32.5H30V37.5H40ZM35 27.5H25V37.5H35V27.5ZM20 32.5V37.5H30V32.5H20ZM25 32.5H20V42.5H25V32.5ZM15 37.5V52.5H25V37.5H15ZM20 57.5H25V47.5H20V57.5ZM20 52.5V57.5H30V52.5H20ZM25 62.5H35V52.5H25V62.5ZM40 57.5V52.5H30V57.5H40ZM35 57.5H45V47.5H35V57.5ZM40 52.5V57.5H50V52.5H40ZM45 52.5H40V62.5H45V52.5ZM35 57.5V62.5H45V57.5H35ZM40 57.5H20V67.5H40V57.5ZM52 62.5H47V67.5H52V62.5ZM52 27.5V22.5H47V27.5H52ZM62 27.5H67V22.5H62V27.5ZM62 47.5H57V52.5H62V47.5ZM67 47.5V52.5H72V47.5H67ZM67 42.5V37.5H62V42.5H67ZM72 42.5V47.5H77V42.5H72ZM72 37.5V32.5H67V37.5H72ZM77 37.5V42.5H82V37.5H77ZM77 27.5V22.5H72V27.5H77ZM87 27.5H92V22.5H87V27.5ZM87 62.5V67.5H92V62.5H87ZM77 62.5H72V67.5H77V62.5ZM77 47.5H82V42.5H77V47.5ZM72 47.5V42.5H67V47.5H72ZM72 52.5V57.5H77V52.5H72ZM67 52.5V47.5H62V52.5H67ZM67 57.5V62.5H72V57.5H67ZM62 57.5V52.5H57V57.5H62ZM62 62.5V67.5H67V62.5H62ZM57 62.5V27.5H47V62.5H57ZM52 32.5H62V22.5H52V32.5ZM57 27.5V47.5H67V27.5H57ZM62 52.5H67V42.5H62V52.5ZM72 47.5V42.5H62V47.5H72ZM67 47.5H72V37.5H67V47.5ZM77 42.5V37.5H67V42.5H77ZM72 42.5H77V32.5H72V42.5ZM82 37.5V27.5H72V37.5H82ZM77 32.5H87V22.5H77V32.5ZM82 27.5V62.5H92V27.5H82ZM87 57.5H77V67.5H87V57.5ZM82 62.5V47.5H72V62.5H82ZM77 42.5H72V52.5H77V42.5ZM67 47.5V52.5H77V47.5H67ZM72 47.5H67V57.5H72V47.5ZM62 52.5V57.5H72V52.5H62ZM67 52.5H62V62.5H67V52.5ZM57 57.5V62.5H67V57.5H57ZM62 57.5H52V67.5H62V57.5ZM104 62.5H99V67.5H104V62.5ZM104 57.5H109V52.5H104V57.5ZM99 57.5H94V62.5H99V57.5ZM99 52.5H104V47.5H99V52.5ZM94 52.5H89V57.5H94V52.5ZM94 37.5V32.5H89V37.5H94ZM99 37.5V42.5H104V37.5H99ZM99 32.5V27.5H94V32.5H99ZM104 32.5V37.5H109V32.5H104ZM104 27.5V22.5H99V27.5H104ZM124 27.5H129V22.5H124V27.5ZM124 32.5H119V37.5H124V32.5ZM129 32.5H134V27.5H129V32.5ZM129 37.5V42.5H134V37.5H129ZM119 37.5H114V42.5H119V37.5ZM119 32.5H124V27.5H119V32.5ZM109 32.5V27.5H104V32.5H109ZM109 37.5V42.5H114V37.5H109ZM104 37.5V32.5H99V37.5H104ZM104 52.5H99V57.5H104V52.5ZM109 52.5H114V47.5H109V52.5ZM109 57.5H104V62.5H109V57.5ZM119 57.5V62.5H124V57.5H119ZM119 52.5V47.5H114V52.5H119ZM129 52.5H134V47.5H129V52.5ZM129 57.5V62.5H134V57.5H129ZM124 57.5V52.5H119V57.5H124ZM124 62.5V67.5H129V62.5H124ZM109 62.5V57.5H99V62.5H109ZM104 52.5H99V62.5H104V52.5ZM104 57.5V52.5H94V57.5H104ZM99 47.5H94V57.5H99V47.5ZM99 52.5V37.5H89V52.5H99ZM94 42.5H99V32.5H94V42.5ZM104 37.5V32.5H94V37.5H104ZM99 37.5H104V27.5H99V37.5ZM109 32.5V27.5H99V32.5H109ZM104 32.5H124V22.5H104V32.5ZM119 27.5V32.5H129V27.5H119ZM124 37.5H129V27.5H124V37.5ZM124 32.5V37.5H134V32.5H124ZM129 32.5H119V42.5H129V32.5ZM124 37.5V32.5H114V37.5H124ZM119 27.5H109V37.5H119V27.5ZM104 32.5V37.5H114V32.5H104ZM109 32.5H104V42.5H109V32.5ZM99 37.5V52.5H109V37.5H99ZM104 57.5H109V47.5H104V57.5ZM104 52.5V57.5H114V52.5H104ZM109 62.5H119V52.5H109V62.5ZM124 57.5V52.5H114V57.5H124ZM119 57.5H129V47.5H119V57.5ZM124 52.5V57.5H134V52.5H124ZM129 52.5H124V62.5H129V52.5ZM119 57.5V62.5H129V57.5H119ZM124 57.5H104V67.5H124V57.5ZM151 62.5H146V67.5H151V62.5ZM151 32.5H156V27.5H151V32.5ZM141 32.5H136V37.5H141V32.5ZM141 27.5V22.5H136V27.5H141ZM171 27.5H176V22.5H171V27.5ZM171 32.5V37.5H176V32.5H171ZM161 32.5V27.5H156V32.5H161ZM161 62.5V67.5H166V62.5H161ZM156 62.5V32.5H146V62.5H156ZM151 27.5H141V37.5H151V27.5ZM146 32.5V27.5H136V32.5H146ZM141 32.5H171V22.5H141V32.5ZM166 27.5V32.5H176V27.5H166ZM171 27.5H161V37.5H171V27.5ZM156 32.5V62.5H166V32.5H156ZM161 57.5H151V67.5H161V57.5ZM178 62.5H173V67.5H178V62.5ZM178 27.5V22.5H173V27.5H178ZM213 27.5H218V22.5H213V27.5ZM213 32.5V37.5H218V32.5H213ZM188 32.5V27.5H183V32.5H188ZM188 42.5H183V47.5H188V42.5ZM208 42.5H213V37.5H208V42.5ZM208 47.5V52.5H213V47.5H208ZM188 47.5V42.5H183V47.5H188ZM188 57.5H183V62.5H188V57.5ZM213 57.5H218V52.5H213V57.5ZM213 62.5V67.5H218V62.5H213ZM183 62.5V27.5H173V62.5H183ZM178 32.5H213V22.5H178V32.5ZM208 27.5V32.5H218V27.5H208ZM213 27.5H188V37.5H213V27.5ZM183 32.5V42.5H193V32.5H183ZM188 47.5H208V37.5H188V47.5ZM203 42.5V47.5H213V42.5H203ZM208 42.5H188V52.5H208V42.5ZM183 47.5V57.5H193V47.5H183ZM188 62.5H213V52.5H188V62.5ZM208 57.5V62.5H218V57.5H208ZM213 57.5H178V67.5H213V57.5ZM220 62.5H215V67.5H220V62.5ZM220 27.5V22.5H215V27.5H220ZM230 27.5H235V22.5H230V27.5ZM230 32.5H225V37.5H230V32.5ZM235 32.5H240V27.5H235V32.5ZM235 37.5H230V42.5H235V37.5ZM240 37.5V42.5H245V37.5H240ZM240 32.5V27.5H235V32.5H240ZM245 32.5V37.5H250V32.5H245ZM245 27.5V22.5H240V27.5H245ZM255 27.5H260V22.5H255V27.5ZM255 62.5V67.5H260V62.5H255ZM245 62.5H240V67.5H245V62.5ZM245 42.5H250V37.5H245V42.5ZM240 42.5V37.5H235V42.5H240ZM240 52.5V57.5H245V52.5H240ZM235 52.5H230V57.5H235V52.5ZM235 42.5H240V37.5H235V42.5ZM230 42.5V37.5H225V42.5H230ZM230 62.5V67.5H235V62.5H230ZM225 62.5V27.5H215V62.5H225ZM220 32.5H230V22.5H220V32.5ZM225 27.5V32.5H235V27.5H225ZM230 37.5H235V27.5H230V37.5ZM230 32.5V37.5H240V32.5H230ZM235 42.5H240V32.5H235V42.5ZM245 37.5V32.5H235V37.5H245ZM240 37.5H245V27.5H240V37.5ZM250 32.5V27.5H240V32.5H250ZM245 32.5H255V22.5H245V32.5ZM250 27.5V62.5H260V27.5H250ZM255 57.5H245V67.5H255V57.5ZM250 62.5V42.5H240V62.5H250ZM245 37.5H240V47.5H245V37.5ZM235 42.5V52.5H245V42.5H235ZM240 47.5H235V57.5H240V47.5ZM240 52.5V42.5H230V52.5H240ZM235 37.5H230V47.5H235V37.5ZM225 42.5V62.5H235V42.5H225ZM230 57.5H220V67.5H230V57.5ZM262 62.5H257V67.5H262V62.5ZM262 27.5V22.5H257V27.5H262ZM272 27.5H277V22.5H272V27.5ZM272 37.5H267V42.5H272V37.5ZM282 37.5H287V32.5H282V37.5ZM282 62.5V67.5H287V62.5H282ZM287 62.5H282V67.5H287V62.5ZM287 27.5V22.5H282V27.5H287ZM297 27.5H302V22.5H297V27.5ZM297 62.5V67.5H302V62.5H297ZM272 57.5H267V62.5H272V57.5ZM277 57.5V62.5H282V57.5H277ZM277 42.5H282V37.5H277V42.5ZM272 42.5V37.5H267V42.5H272ZM267 62.5V27.5H257V62.5H267ZM262 32.5H272V22.5H262V32.5ZM267 27.5V37.5H277V27.5H267ZM272 42.5H282V32.5H272V42.5ZM277 37.5V62.5H287V37.5H277ZM282 57.5H262V67.5H282V57.5ZM292 62.5V27.5H282V62.5H292ZM287 32.5H297V22.5H287V32.5ZM292 27.5V62.5H302V27.5H292ZM297 57.5H287V67.5H297V57.5ZM272 62.5H277V52.5H272V62.5ZM282 57.5V42.5H272V57.5H282ZM277 37.5H272V47.5H277V37.5ZM267 42.5V57.5H277V42.5H267Z" fill="white" mask="url(#path-1-outside-1_661_5989)"/>
</g>
<defs>
<clipPath id="clip0_661_5989">
<rect width="521" height="96" fill="white"/>
</clipPath>
</defs>
</svg>
