<svg width="116" height="116" viewBox="0 0 116 116" fill="none" xmlns="http://www.w3.org/2000/svg">
<circle cx="58" cy="58" r="58" fill="#2D2650"/>
<path d="M48.4853 79.0588V76.2353V73.4118H51.3015H54.1324V76.2353V79.0588H51.3015H48.4853ZM52.0147 79.0588V76.2353V73.4118H54.8309H57.6618V76.2353V79.0588H54.8309H52.0147ZM55.5441 79.0588V76.2353V73.4118H58.3603H61.1912V76.2353V79.0588H58.3603H55.5441ZM59.0735 79.0588V76.2353V73.4118H61.8897H64.7206V76.2353V79.0588H61.8897H59.0735ZM62.6029 79.0588V76.2353V73.4118H65.4191H68.25V76.2353V79.0588H65.4191H62.6029ZM52.0147 75.5294V72.7059V69.8824H54.8309H57.6618V72.7059V75.5294H54.8309H52.0147ZM53.7794 72V69.1765V66.3529H56.5956H59.4265V69.1765V72H56.5956H53.7794ZM55.5441 68.4706V65.6471V62.8235H58.3603H61.1912V65.6471V68.4706H58.3603H55.5441ZM57.3088 64.9412V62.1176V59.2941H60.125H62.9559V62.1176V64.9412H60.125H57.3088ZM59.0735 61.4118V58.5882V55.7647H61.8897H64.7206V58.5882V61.4118H61.8897H59.0735ZM60.8382 57.8824V55.0588V52.2353H63.6544H66.4853V55.0588V57.8824H63.6544H60.8382ZM48.4853 54.3529V51.5294V48.7059H51.3015H54.1324V51.5294V54.3529H51.3015H48.4853ZM62.6029 54.3529V51.5294V48.7059H65.4191H68.25V51.5294V54.3529H65.4191H62.6029ZM48.4853 50.8235V48V45.1765H51.3015H54.1324V48V50.8235H51.3015H48.4853ZM62.6029 50.8235V48V45.1765H65.4191H68.25V48V50.8235H65.4191H62.6029ZM48.4853 47.2941V44.4706V41.6471H51.3015H54.1324V44.4706V47.2941H51.3015H48.4853ZM62.6029 47.2941V44.4706V41.6471H65.4191H68.25V44.4706V47.2941H65.4191H62.6029ZM52.0147 43.7647V40.9412V38.1176H54.8309H57.6618V40.9412V43.7647H54.8309H52.0147ZM55.5441 43.7647V40.9412V38.1176H58.3603H61.1912V40.9412V43.7647H58.3603H55.5441ZM59.0735 43.7647V40.9412V38.1176H61.8897H64.7206V40.9412V43.7647H61.8897H59.0735Z" fill="white"/>
</svg>
