<svg width="120" height="120" viewBox="0 0 120 120" fill="none" xmlns="http://www.w3.org/2000/svg">
<g clip-path="url(#clip0_988_5136)">
<path fill-rule="evenodd" clip-rule="evenodd" d="M30.2885 30.5445C40.1902 27.2751 50.0983 24.9968 60.0257 25C69.9467 25 79.8613 27.2815 89.7823 30.5445C92.8782 40.4461 95 50.3317 95 60.2365C94.9936 70.1349 92.8653 80.0204 89.7823 89.9092C79.8613 92.9148 69.9467 95.0064 60.0257 95C50.0983 95 40.1902 92.9083 30.2885 89.9092C27.1668 80.0237 24.9904 70.1349 25 60.2365C25.0065 50.3317 27.1668 40.4461 30.2885 30.5445ZM88.8661 31.6708H32.2624V88.0106L52.6574 68.2331L46.3337 61.897L38.2709 70.1317V37.3698H70.683L55.1874 52.8803L77.0065 75.0326H88.8661L67.2045 53.3533L88.8661 31.6708ZM66.8637 38.8114H55.0074L39.8237 52.8964L76.6626 89.2978H88.8436L52.6348 52.8964L66.8637 38.8114Z" fill="black"/>
</g>
<defs>
<clipPath id="clip0_988_5136">
<rect width="120" height="120" fill="white"/>
</clipPath>
</defs>
</svg>
