<svg width="120" height="120" viewBox="0 0 120 120" fill="none" xmlns="http://www.w3.org/2000/svg">
<g clip-path="url(#clip0_988_5144)">
<g clip-path="url(#clip1_988_5144)">
<path d="M105.479 67.9378L103.328 63.6679L101.174 67.9378H105.479ZM57.2306 57.7188L52.9263 59.853L57.2306 61.9887V57.7188ZM18.3418 62.5344L20.4947 66.8043L22.6489 62.5344H18.3418ZM116.796 53.4383C116.077 53.4383 115.378 53.9814 115.378 54.8066C115.378 55.692 116.097 56.1931 116.796 56.1931C117.577 56.1931 118.246 55.6723 118.246 54.8367C118.246 53.9814 117.546 53.4383 116.806 53.4383H116.796ZM110.865 57.8041V56.1355H114.444C113.805 55.5413 113.805 54.7462 113.805 54.5141C113.805 53.3492 114.648 51.7698 116.777 51.7698C118.804 51.7698 119.818 53.1668 119.818 54.5849C119.818 55.3707 119.433 55.9741 119.027 56.205H119.624V57.8041H110.865ZM116.837 63.4041C117.353 63.4041 118.246 63.0225 118.246 62.0163C118.246 61.4234 117.961 61.06 117.618 60.8488C117.394 60.7086 117.151 60.6376 116.897 60.6179C116.644 60.5983 116.392 60.6481 116.158 60.7582C115.773 60.9393 115.378 61.321 115.378 62.0269C115.378 62.9831 116.188 63.4042 116.825 63.4042L116.837 63.4041ZM119.624 58.948V60.6179H119.015C119.566 60.9196 119.818 61.6136 119.818 62.2669C119.818 64.0377 118.419 65.0741 116.806 65.0741C114.961 65.0741 113.805 63.757 113.805 62.2669C113.805 61.3524 114.251 60.8397 114.596 60.6179H113.998V58.948H119.624ZM110.865 67.9378V66.2679H119.624V67.9378H110.865Z" fill="#D52B1E"/>
<path d="M74.4612 70.1954L75.7175 72.9031C81.6801 68.3785 82.7777 63.3255 78.8965 57.9103C75.8219 53.6193 79.2059 49.8033 80.2243 48.8116L77.9418 47C76.4501 48.624 72.5358 53.6994 75.9582 58.8036C79.2748 63.7478 78.9309 66.4279 74.4612 70.1954ZM28.1365 70.1954L29.3929 72.9031C35.3554 68.3785 36.4531 63.3255 32.5706 57.9103C29.4973 53.6193 32.8799 49.8033 33.8982 48.8116L31.6171 47C30.1242 48.624 26.2098 53.6994 29.6349 58.8036C32.9501 63.7478 32.6062 66.4279 28.1365 70.1954ZM107.103 51.7698L103.328 58.258L99.5495 51.7698H96.4764L103.328 63.542L110.179 51.7698H107.103ZM45.522 52.6867C44.4455 52.0597 43.1273 51.7698 41.3724 51.7698H37.5243V67.9378H40.6002V54.8198H41.3725C43.5015 54.8198 44.9615 55.3405 44.9615 57.2387C44.9615 59.0109 43.2026 59.7875 41.1648 59.8505C41.1027 59.8518 40.8739 59.8518 40.7219 59.8531L42.7649 62.7483C43.7752 62.5712 44.6824 62.2458 45.4402 61.7854C45.4957 61.7499 45.5513 61.712 45.6067 61.6751C47.1526 60.6612 48.0372 59.0555 48.0372 57.2387C48.0372 55.2473 47.1433 53.6312 45.522 52.6867ZM69.87 61.6751C71.4145 60.6612 72.2992 59.0555 72.2992 57.2387C72.2992 55.2474 71.4052 53.6312 69.7825 52.6867C68.7088 52.0597 67.3891 51.7698 65.6342 51.7698H61.786V67.9378H64.8619V54.8198H65.6342C67.7633 54.8198 69.2246 55.3405 69.2246 57.2387C69.2246 59.0109 67.4657 59.7875 65.428 59.8505C65.3632 59.8518 65.137 59.8518 64.985 59.8531L70.6912 67.9378H74.2894L69.87 61.6751ZM90.6459 59.853L96.352 51.7697H92.7525L87.0477 59.853L92.7525 67.9377H96.352L90.6459 59.853ZM86.9248 51.7698H83.8502V67.9378H86.9248V51.7698ZM6.6623 59.853L12.3684 51.7697H8.77027L3.06408 59.853L8.77027 67.9377H12.3684L6.6623 59.853ZM2.94101 51.7698H-0.134766V67.9378H2.94113V51.7698H2.94101ZM59.415 54.8198V51.7698H49.7299V67.9378H59.415V64.8878H52.8032V54.8198H59.415ZM28.3866 67.9378H25.3107L20.4945 57.6926L15.6797 67.9378H12.6025L20.4946 51.1505L28.3866 67.9378Z" fill="#006D55"/>
</g>
</g>
<defs>
<clipPath id="clip0_988_5144">
<rect width="120" height="120" fill="white"/>
</clipPath>
<clipPath id="clip1_988_5144">
<rect width="120" height="25.9031" fill="white" transform="translate(-0.158203 47)"/>
</clipPath>
</defs>
</svg>
