<svg width="120" height="120" viewBox="0 0 120 120" fill="none" xmlns="http://www.w3.org/2000/svg">
<g clip-path="url(#clip0_988_5148)">
<path d="M55.0425 93.4687C49.1833 92.2552 43.7162 89.5488 39.4242 85.737C28.4053 75.9509 24.9999 60.5773 30.8209 46.8987C32.2504 43.5394 34.5743 40.1301 37.4538 37.1683L39.9924 34.5573L40.1715 49.8398C40.3429 64.4685 40.3815 65.2051 41.0731 67.0485C42.4577 70.7366 43.9416 73.0841 46.4966 75.6285C53.0961 82.201 62.7765 83.8416 71.006 79.7817C78.7407 75.9659 83.6169 67.6684 83.0503 59.2871C82.6695 53.6573 80.7761 49.5294 76.6889 45.4161C73.5977 42.3059 69.9613 40.2741 66.0024 39.4458C61.9742 38.6032 62.1676 38.4801 62.1676 41.8894V44.8329L64.3758 45.2397C72.9281 46.8157 78.5843 55.2136 76.8016 63.6892C76.2324 66.3959 74.9622 68.7865 72.9238 70.9883C69.8259 74.3343 65.4672 75.9336 61.6614 75.9266C55.3683 75.9142 50.1136 72.3385 47.567 67.0501C47.567 67.0501 46.9001 65.5389 46.6853 64.6045C45.4245 59.1117 46.2308 47.5489 46.2308 47.5489L46.1331 30.6418L47.1312 30.1256C47.68 29.8418 48.2066 29.6094 48.3013 29.6094C48.3956 29.6094 48.5157 37.375 48.568 46.866C48.568 46.866 47.3559 59.3075 48.8535 64.0753C49.0696 64.7633 49.4801 65.94 49.4801 65.94C50.7929 68.6151 52.8974 70.968 55.6318 72.2632C57.7072 73.2462 58.7523 73.6914 61.8228 73.6914C63.8293 73.6914 65.6066 73.0578 67.6517 72.1174C70.0627 71.0087 72.8281 68.0689 73.8501 65.3848C76.6659 57.9896 72.745 50.0332 65.1918 47.8147C62.1049 46.908 62.168 46.8583 62.168 50.215V53.1468L63.6495 53.5433C68.9909 54.9718 70.6205 62.1309 66.4276 65.8093C64.946 67.1092 63.6112 67.6834 61.2763 67.6834C58.781 67.6834 56.3861 66.1731 55.1546 63.8569C54.415 62.4654 54.3526 61.1459 54.3526 60.541C54.3526 54.9575 54.2316 44.9149 54.2316 44.9149L54.1315 27.6893L54.8985 27.4989C55.32 27.3935 57.025 27.1344 58.6863 26.9223C64.3218 26.2034 72.659 28.0474 78.2602 31.2523C85.8964 35.6213 91.6743 43.1269 94.0803 51.8023C94.9079 54.7864 95 55.6537 95 60.4543C95 65.2331 94.9056 66.1298 94.0956 69.0482C90.8237 80.8391 82.5001 89.2677 70.5989 92.8424C68.0939 93.595 66.9208 93.7384 62.5011 93.8328C58.9344 93.9088 56.6225 93.7961 55.0425 93.4687Z" fill="#C60C30"/>
</g>
<defs>
<clipPath id="clip0_988_5148">
<rect width="70" height="70.1122" fill="white" transform="translate(25 25)"/>
</clipPath>
</defs>
</svg>
