<svg width="120" height="120" viewBox="0 0 120 120" fill="none" xmlns="http://www.w3.org/2000/svg">
<g clip-path="url(#clip0_988_5152)">
<path d="M7.13148 66.2844V64.1334C7.13148 62.5113 6.9313 62.0367 6.31167 60.6883L3.06775 53.6154H0.771484L4.92662 62.6571V66.2844H7.13148ZM8.57148 59.7399L11.2687 53.6149H9.02737L6.33018 59.7399H8.57148ZM31.607 66.4667C32.6276 66.4667 33.4659 65.9928 34.0491 65.0992L34.1584 66.2844H36.1631V53.6154H33.9947V58.1907C33.4479 57.3701 32.6461 56.9331 31.6984 56.9331C29.6023 56.9331 28.1444 58.7011 28.1444 61.7636C28.1444 64.7896 29.5659 66.4667 31.607 66.4667ZM44.9292 65.6646V63.8967C44.2547 64.3521 43.1248 64.7532 42.0677 64.7532C40.4819 64.7532 39.8808 64.0061 39.7894 62.4742H45.0201V61.3261C45.0201 58.1357 43.6171 56.9331 41.4481 56.9331C38.8053 56.9331 37.5481 58.9563 37.5481 61.7271C37.5481 64.9175 39.1154 66.4667 41.8855 66.4667C43.2705 66.4667 44.2911 66.1021 44.9292 65.6646ZM17.6472 60.0315C17.6472 57.8076 16.5173 56.969 14.221 56.969C12.7995 56.969 11.6517 57.5709 10.9956 58.0448V59.9227C11.6881 59.3573 12.7451 58.7011 13.9659 58.7011C15.0044 58.7011 15.4782 59.0657 15.4782 60.05V60.6334H15.1322C11.8154 60.6334 10.3395 61.7092 10.3395 63.623C10.3395 65.3909 11.4694 66.4123 13.1461 66.4123C14.4212 66.4123 14.9685 65.9928 15.3874 65.5553H15.4782C15.4967 65.792 15.5696 66.1021 15.6425 66.2844H17.7565C17.6838 65.5393 17.6473 64.7911 17.6472 64.0425V60.0321V60.0315ZM21.5836 59.7034C21.9846 59.2115 22.6221 58.7925 23.4061 58.7925C24.1715 58.7925 24.5175 59.1201 24.5175 59.8133V66.2844H26.6864V59.594C26.6864 57.7711 25.9575 56.969 24.1894 56.969C22.8958 56.969 22.1304 57.4436 21.693 57.8811H21.5836L21.5287 57.1149H19.4147V66.2844H21.5836V59.7034ZM51.5988 66.2844H54.0414L51.0526 61.5628L53.6399 57.1149H51.4715L49.9042 59.8857L48.1547 57.1149H45.7126L48.4827 61.5084L45.6033 66.2844H47.8081L49.6491 63.1855L51.5988 66.2844ZM32.2451 58.6467C33.4115 58.6467 33.9947 59.5761 33.9947 61.6907C33.9947 63.8238 33.375 64.7532 32.1537 64.7532C30.9689 64.7532 30.3857 63.8417 30.3857 61.7636C30.3857 59.594 31.0053 58.6461 32.2451 58.6461V58.6467ZM41.4117 58.6467C42.4872 58.6467 42.8152 59.5396 42.8152 60.6883V60.8706H39.79C39.8444 59.4123 40.3732 58.6467 41.4117 58.6467ZM15.4788 64.0969C15.2051 64.498 14.6948 64.8261 13.9294 64.8261C13.0182 64.8261 12.5623 64.2977 12.5623 63.4956C12.5623 62.4378 13.3098 62.0738 15.1687 62.0738H15.4782V64.0969H15.4788Z" fill="#262626"/>
<path d="M65.8878 68.3878C63.7973 68.3374 62.9702 66.9396 62.7179 65.5901C62.5805 64.8564 62.6405 63.6365 62.7179 63.2007C62.8429 62.4911 63.0448 61.4708 63.2685 60.2874C63.5882 58.5912 64.4371 57.6265 66.2702 57.2821L69.268 56.71C69.3476 56.2646 69.4979 55.0856 69.361 54.3592C69.1059 52.9946 68.0551 51.5828 65.9214 51.5609C61.2745 51.5609 57.4766 55.3262 57.4766 59.9744C57.4766 64.6225 61.2409 68.3878 65.8878 68.3878Z" fill="url(#paint0_linear_988_5152)"/>
<path d="M65.8874 51.5609C67.9773 51.6114 69.0119 53.012 69.2642 54.3615C69.4016 55.0951 69.1347 56.3128 69.0573 56.7481C68.9323 57.4576 68.7304 58.4779 68.5067 59.6614C68.187 61.3575 67.3375 62.3223 65.505 62.6667L62.7153 63.2147C62.6356 63.6595 62.3738 64.8626 62.5106 65.589C62.7657 66.9531 63.7201 68.366 65.8538 68.3878C70.5007 68.3878 74.2986 64.6225 74.2986 59.9744C74.2986 55.3262 70.5343 51.5609 65.8874 51.5609Z" fill="url(#paint1_linear_988_5152)"/>
<path d="M82.6793 66.4668C84.0459 66.4668 84.9756 65.9748 85.5403 65.5918V63.8238C84.8113 64.3522 84.0094 64.7532 82.8431 64.7532C80.8384 64.7532 79.8907 63.1311 79.8907 59.9592C79.8907 56.6959 80.8019 55.1467 82.9524 55.1467C83.955 55.1467 84.8842 55.5842 85.5403 56.0032V54.2347C84.9571 53.8157 84.0094 53.4326 82.8431 53.4326C79.4718 53.4326 77.6494 55.9118 77.6494 59.9592C77.6494 64.1155 79.5447 66.4668 82.6793 66.4668ZM89.17 53.6149H87.0016V66.2845H89.17V53.6149ZM94.6692 56.9332C92.2821 56.9332 90.6234 58.6282 90.6234 61.7092C90.6234 64.7717 92.2821 66.4668 94.6692 66.4668C97.0569 66.4668 98.715 64.7712 98.715 61.6907C98.715 58.6282 97.0569 56.9332 94.6692 56.9332ZM94.6692 64.7532C93.4664 64.7532 92.8653 63.8238 92.8653 61.7092C92.8653 59.5761 93.4664 58.6467 94.6692 58.6467C95.872 58.6467 96.4737 59.5761 96.4737 61.6907C96.4737 63.8238 95.872 64.7532 94.6692 64.7532ZM105.183 63.6959C104.782 64.1878 104.144 64.6074 103.361 64.6074C102.595 64.6074 102.249 64.2793 102.249 63.5865V57.1149H100.08V63.8053C100.08 65.6282 100.809 66.4303 102.577 66.4303C103.871 66.4303 104.637 65.9563 105.074 65.5188H105.183L105.238 66.2845H107.352V57.1149H105.183V63.6959ZM112.275 66.4668C113.296 66.4668 114.134 65.9928 114.717 65.0993L114.826 66.2845H116.831V53.6149H114.662V58.1907C114.115 57.3701 113.314 56.9332 112.366 56.9332C110.27 56.9332 108.812 58.7011 108.812 61.7636C108.812 64.7897 110.234 66.4668 112.275 66.4668ZM112.913 58.6467C114.079 58.6467 114.662 59.5761 114.662 61.6907C114.662 63.8238 114.043 64.7532 112.822 64.7532C111.637 64.7532 111.054 63.8418 111.054 61.7636C111.054 59.5941 111.673 58.6462 112.913 58.6462V58.6467Z" fill="#262626"/>
</g>
<defs>
<linearGradient id="paint0_linear_988_5152" x1="57.4766" y1="68.3878" x2="70.7189" y2="52.5073" gradientUnits="userSpaceOnUse">
<stop stop-color="#D2DFFF"/>
<stop offset="1" stop-color="#4E7FFF"/>
</linearGradient>
<linearGradient id="paint1_linear_988_5152" x1="74.2986" y1="51.5609" x2="60.8489" y2="66.9719" gradientUnits="userSpaceOnUse">
<stop stop-color="#D2DFFF"/>
<stop offset="1" stop-color="#4E7FFF"/>
</linearGradient>
<clipPath id="clip0_988_5152">
<rect width="120" height="17.9487" fill="white" transform="translate(0 51)"/>
</clipPath>
</defs>
</svg>
