<svg width="120" height="120" viewBox="0 0 120 120" fill="none" xmlns="http://www.w3.org/2000/svg">
<path fill-rule="evenodd" clip-rule="evenodd" d="M92 38H76V30H72V26H68V22H52V26H48V30H44V38H28H20V46V90V98H28H92H100V90V46V38H92ZM68 30H52V38H68V30Z" fill="#2D2650"/>
<path d="M59 76.375V78.5H61V76.375H63V74.25H65V72.125H67V70H69V67.875H71V65.75H73V63.625H75V61.5H71.5H69.5V63.625H67.5V65.75H65.5V67.875H63.3V70H60H56.4V67.875H54.4V65.75H52.4V63.625H50.4V61.5H49.5H45V63.625H47V65.75H49V67.875H51V70H53V72.125H55V74.25H57V76.375H59Z" fill="#DFDC01"/>
</svg>
