<svg width="360" height="268" viewBox="0 0 360 268" fill="none" xmlns="http://www.w3.org/2000/svg">
<path d="M12.4082 0.438965H0V86.4968H1.63265V2.64558H10.7755V41.7026H24.6531V2.64558H33.7959V86.4968H35.4286V0.438965H23.0204V39.496H12.4082V0.438965Z" fill="#EBE965"/>
<path d="M10.7755 86.4968H12.4082V56.2662H23.0204V86.4968H24.6531V54.0596H10.7755V86.4968Z" fill="#EBE965"/>
<path d="M60.7347 0.438965V8.16211H55.0204V87.3795H60.7347V86.4968H62.3673V85.1729H56.6531V10.5894H62.5306V2.64558H83.102V10.5894H88.8163V85.1729H83.2653V86.4968H84.7347V87.3795H90.6122V8.16211H84.7347V0.438965H60.7347Z" fill="#EBE965"/>
<path fill-rule="evenodd" clip-rule="evenodd" d="M79.6735 80.539V15.2233H65.9592V80.539H79.6735ZM67.5918 78.3324H78.0408V17.4299H67.5918V78.3324Z" fill="#EBE965"/>
<path d="M139.918 0.438965H110.041V86.4968H111.837L111.673 2.64558H138.286V10.3687H143.837V46.3365H138.286V49.4257H143.837V85.1729H138.286V86.4968H139.918V87.3795H145.633V8.16211H139.918V0.438965Z" fill="#EBE965"/>
<path fill-rule="evenodd" clip-rule="evenodd" d="M120.98 15.2233H134.694V41.4819H120.98V15.2233ZM133.061 17.4299H122.612V39.2753H133.061V17.4299Z" fill="#EBE965"/>
<path fill-rule="evenodd" clip-rule="evenodd" d="M120.98 54.2803H134.694V80.539H120.98V54.2803ZM133.061 56.4869H122.612V78.3324H133.061V56.4869Z" fill="#EBE965"/>
<path d="M170.939 0.438965V8.16211H165.224V87.3795H170.939V86.4968H172.571V85.1729H166.857V10.5894H172.735V2.64558H193.306V10.5894H199.02V85.1729H193.469V86.4968H194.939V87.3795H200.816V8.16211H194.939V0.438965H170.939Z" fill="#EBE965"/>
<path fill-rule="evenodd" clip-rule="evenodd" d="M189.878 80.539V15.2233H176.163V80.539H189.878ZM177.796 78.3324H188.245V17.4299H177.796V78.3324Z" fill="#EBE965"/>
<path d="M225.959 0.438965V8.16211H220.245V87.3795H225.959V86.4968H227.592V85.1729H221.878V10.5894H227.755V2.64558H248.327V10.5894H254.041V30.6695H244.898V15.2233H231.184V80.539H244.898V64.872H254.041V85.1729H248.49V86.4968H249.959V87.3795H255.837V62.8861H243.265V78.3324H232.816V17.4299H243.265V32.8762H255.837V8.16211H249.959V0.438965H225.959Z" fill="#EBE965"/>
<path d="M304.98 0.438965H269.551V17.2092H280.98V86.4968H282.776V15.0026H271.184V2.64558H303.347V15.0026H291.755V86.4968H293.551V17.2092H304.98V0.438965Z" fill="#EBE965"/>
<path d="M331.265 0.438965H318.857V86.4968H320.327V2.64558H329.633V57.1489H331.918V49.4257H334.857V41.7026H337.633V33.7588H340.571V26.0357H343.51V18.3125H349.224V2.64558H358.367V86.4968H360V0.438965H347.592V16.1059H341.878V23.829H338.939V31.7729H336.163V39.496H333.224V47.2191H331.265V0.438965Z" fill="#EBE965"/>
<path d="M329.633 86.4968H331.265V79.6563H336.98V71.9332H339.918V63.9894H342.857V56.2662H345.633V48.5431H347.592V86.4968H349.224V38.3927H346.776V46.3365H344V54.0596H341.061V61.7828H338.122V69.7266H335.347V77.4497H329.633V86.4968Z" fill="#EBE965"/>
<path d="M35.4286 86.4968H33.7959H24.6531H23.0204V125.554H12.4082V86.4968H10.7755H1.63265H0V172.555H12.4082V142.324H23.0204V172.555H35.4286V86.4968Z" fill="#FBFBFB"/>
<path fill-rule="evenodd" clip-rule="evenodd" d="M84.7347 87.3795V86.4968H83.2653H62.3673H60.7347V87.3795V94.22H55.0204V173.437H60.7347V172.555H62.3673H83.2653H84.7347V173.437H90.6122V94.22H84.7347V87.3795ZM67.5918 164.17H78.0408V103.267H67.5918V164.17Z" fill="#FBFBFB"/>
<path fill-rule="evenodd" clip-rule="evenodd" d="M139.918 87.3795V86.4968H138.286H111.837H110.041L109.878 172.555H111.673H138.286H139.755V173.437H145.633V94.22H139.918V87.3795ZM133.061 103.708H122.612V125.554H133.061V103.708ZM133.061 142.324H122.612V164.17H133.061V142.324Z" fill="#FBFBFB"/>
<path fill-rule="evenodd" clip-rule="evenodd" d="M194.939 87.3795V86.4968H193.469H172.571H170.939V87.3795V94.22H165.224V173.437H170.939V172.555H172.571H193.469H194.939V173.437H200.816V94.22H194.939V87.3795ZM177.796 164.17H188.245V103.267H177.796V164.17Z" fill="#FBFBFB"/>
<path d="M249.959 87.3795V86.4968H248.49H227.592H225.959V87.3795V94.22H220.245V173.437H225.959V172.555H227.592H248.49H249.959V173.437H255.837V148.944H243.265V164.17H232.816V103.267H243.265V118.934H255.837V94.22H249.959V87.3795Z" fill="#FBFBFB"/>
<path d="M293.551 86.4968H291.755H282.776H280.98H269.551V103.267H280.98V172.555H293.551V103.267H304.98V86.4968H293.551Z" fill="#FBFBFB"/>
<path d="M360 86.4968H358.367H349.224H347.592V102.164H341.878V109.887H338.939V117.831H336.163V125.554H333.224V133.277H331.265V86.4968H329.633H320.327H318.857V172.555H331.265V165.714H336.98V157.991H339.918V150.047H342.857V142.324H345.633V134.601H347.592V172.555H360V86.4968Z" fill="#FBFBFB"/>
<path d="M35.4286 172.555H23.0204V211.612H12.4082V172.555H0V267.439H12.4082V228.603H23.0204V267.439H35.4286V172.555Z" fill="#F5F5F5"/>
<path fill-rule="evenodd" clip-rule="evenodd" d="M84.7347 173.437V172.555H83.2653H62.3673H60.7347V173.437V180.278H55.0204V259.495H60.7347V267.439H84.7347V259.495H90.6122V180.278H84.7347V173.437ZM67.5918 250.448H78.0408V189.546H67.5918V250.448Z" fill="#F5F5F5"/>
<path fill-rule="evenodd" clip-rule="evenodd" d="M139.755 173.437V172.555H138.286H111.673H109.878V267.439H139.592V259.495H145.469V180.278H139.755V173.437ZM133.061 189.766H122.612V211.612H133.061V189.766ZM133.061 228.603H122.612V250.448H133.061V228.603Z" fill="#F5F5F5"/>
<path fill-rule="evenodd" clip-rule="evenodd" d="M194.939 173.437V172.555H193.469H172.571H170.939V173.437V180.278H165.224V259.495H170.939V267.439H194.939V259.495H200.816V180.278H194.939V173.437ZM177.796 250.448H188.245V189.546H177.796V250.448Z" fill="#F5F5F5"/>
<path d="M249.959 173.437V172.555H248.49H227.592H225.959V173.437V180.278H220.245V259.495H225.959V267.439H249.959V259.495H255.837V235.002H243.265V250.448H232.816V189.546H243.265V204.992H255.837V180.278H249.959V173.437Z" fill="#F5F5F5"/>
<path d="M280.98 172.555H269.551V189.325H280.98V267.439H293.551V189.325H304.98V172.555H293.551H280.98Z" fill="#F5F5F5"/>
<path d="M331.265 172.555H318.857V267.439H331.265V251.772H336.98V244.049H339.918V236.105H342.857V228.382H345.633V220.659H347.592V267.439H360V172.555H347.592V188.222H341.878V195.945H338.939V203.889H336.163V211.612H333.224V219.335H331.265V172.555Z" fill="#F5F5F5"/>
</svg>
