<svg width="68" height="64" viewBox="0 0 68 64" fill="none" xmlns="http://www.w3.org/2000/svg">
<path d="M66 32C66 49.6731 51.6731 64 34 64C16.3269 64 2 49.6731 2 32C2 14.3269 16.3269 0 34 0C51.6731 0 66 14.3269 66 32ZM21.2 32C21.2 39.0692 26.9308 44.8 34 44.8C41.0692 44.8 46.8 39.0692 46.8 32C46.8 24.9308 41.0692 19.2 34 19.2C26.9308 19.2 21.2 24.9308 21.2 32Z" fill="#DFDC01"/>
<g clip-path="url(#clip0_696_6352)">
<path fill-rule="evenodd" clip-rule="evenodd" d="M52.2343 13.2633L51.5645 13.8162L51.0013 13.155L47.4574 16.1159L48.0219 16.7873L47.3491 17.3491L51.4451 22.2325L52.7858 21.119L53.3483 21.7801L56.2178 19.3718L55.6494 18.7005L56.3261 18.1387L52.2343 13.2633ZM49.5702 16.9228L49.4935 16.9871L48.8995 17.4848L51.5811 20.6849L52.0984 20.2513L49.9147 17.6454L49.8504 17.5687L49.927 17.5045L50.5977 16.9424L50.6744 16.8783L50.7385 16.9549L53.4843 20.2315L54.6724 19.236L54.1746 18.642L54.1104 18.5653L54.187 18.5011L54.781 18.0033L52.0995 14.8033L51.5055 15.3011L51.4288 15.3653L51.3646 15.2887L50.8668 14.6947L49.0073 16.2529L49.5059 16.8462L49.5702 16.9228Z" fill="#4A399D"/>
<path d="M51.2683 16.3804L51.1917 16.4447L51.256 16.5213L52.9419 18.5333L53.0062 18.6099L53.0828 18.5457L53.7535 17.9837L53.8301 17.9195L53.7659 17.8429L52.0799 15.8308L52.0157 15.7542L51.939 15.8185L51.2683 16.3804Z" fill="#4A399D"/>
<path fill-rule="evenodd" clip-rule="evenodd" d="M59.1127 23.469L58.2709 23.6827L58.0441 22.8443L53.575 24.0076L53.7986 24.8558L52.9503 25.0763L54.5677 31.2416L56.2556 30.8074L56.4817 31.6455L60.1051 30.6938L59.8779 29.844L60.7298 29.6251L59.1127 23.469ZM55.1406 25.6398L55.0439 25.6651L54.2941 25.8614L55.3517 29.9003L56.0047 29.7292L55.1434 26.4402L55.1181 26.3435L55.2148 26.3181L56.0613 26.0964L56.158 26.0712L56.1833 26.1678L57.2663 30.3034L58.7658 29.9108L58.5694 29.1611L58.5441 29.0643L58.6408 29.039L59.3905 28.8426L58.3329 24.8038L57.5832 25.0001L57.4865 25.0255L57.4612 24.9287L57.2648 24.179L54.9178 24.7936L55.1152 25.543L55.1406 25.6398Z" fill="#4A399D"/>
<path d="M56.9077 25.8747L56.811 25.9001L56.8364 25.9968L57.5013 28.5362L57.5267 28.633L57.6234 28.6076L58.4698 28.386L58.5666 28.3606L58.5412 28.2639L57.8763 25.7245L57.851 25.6278L57.7542 25.6531L56.9077 25.8747Z" fill="#4A399D"/>
<path fill-rule="evenodd" clip-rule="evenodd" d="M37.795 10.8089L37.3246 12.0242L40.9976 13.4724L41.4425 12.323L41.6087 11.8937L41.8666 11.9954L41.2556 13.5741L44.9045 15.0129L45.3497 13.8629L47.2544 8.94032L43.6058 7.50137L42.994 9.0826L42.7361 8.98089L43.348 7.39998L41.9338 6.84237L41.8309 6.80152L39.6753 5.95107L37.795 10.8089ZM41.2608 9.63618L41.8805 8.03542L40.3339 7.42563L38.804 11.3782L40.3505 11.9877L40.9596 10.4143L43.3194 11.3447L42.7102 12.9186L44.2757 13.5359L45.8057 9.58314L44.2401 8.96584L43.8156 10.0631L43.6206 10.5666L41.2608 9.63618Z" fill="#4A399D"/>
<path d="M29.7011 9.15543L29.9522 10.8878L32.551 10.5112L32.1746 7.91356L30.4485 8.16369L30.5739 9.02895L29.7011 9.15543Z" fill="#4A399D"/>
<path fill-rule="evenodd" clip-rule="evenodd" d="M34.1891 12.1701L34.6827 12.0985L34.5576 11.2353L35.4067 11.1122L34.3653 3.935L27.1931 4.97435L27.3297 5.84892L26.4564 5.97547L27.3696 12.2769L28.2428 12.1504L28.3679 13.0136L34.1891 12.1701ZM33.4107 10.3866L33.5346 11.2415L29.2285 11.8655L29.1047 11.0106L28.2264 11.1379L27.5995 6.81208L28.4585 6.6876L28.3335 5.82544L33.526 5.07298L33.647 5.90808L29.3213 6.53421L29.5757 8.29017L30.4485 8.16369L30.3231 7.29844L32.9166 6.92261L33.0422 7.78912L33.5693 7.71273L33.9016 7.66458L34.2778 10.261L33.4107 10.3866Z" fill="#4A399D"/>
<path d="M19.2768 13.9743L20.2754 15.4121L22.4321 13.914L20.9348 11.7582L19.5023 12.7532L18.778 13.2563L19.2768 13.9743Z" fill="#4A399D"/>
<path fill-rule="evenodd" clip-rule="evenodd" d="M24.6388 14.6662L25.0484 14.3817L24.5508 13.6653L25.2668 13.1555L22.6286 9.35335L21.921 9.86672L21.4197 9.14041L17.7216 11.6923L16.1832 12.7703L16.6625 13.4933L15.9378 13.9967L18.5855 17.8086L19.3102 17.3053L19.8078 18.0217L24.6388 14.6662ZM23.1456 13.4185L23.6384 14.1279L20.0648 16.61L19.572 15.9006L18.8431 16.4068L17.3449 14.2497L18.0615 13.753L17.5698 13.0242L21.1559 10.5401L21.6554 11.2593L22.0929 10.9554L22.3686 10.7639L23.8652 12.9186L23.1456 13.4185Z" fill="#4A399D"/>
<path d="M15.632 47.071L17.0676 46.0693L15.5648 43.9157L13.4123 45.4178L14.4103 46.8481L14.915 47.5713L15.632 47.071Z" fill="#4A399D"/>
<path fill-rule="evenodd" clip-rule="evenodd" d="M16.3123 41.7075L16.0269 41.2985L15.3115 41.7976L14.8001 41.0827L11.0038 43.7292L11.5187 44.4357L10.7934 44.9385L13.3534 48.6311L14.4347 50.1671L15.1567 49.6863L15.6616 50.4099L19.4678 47.754L18.9629 47.0303L19.6782 46.5312L16.3123 41.7075ZM15.0677 43.2034L15.7762 42.7091L18.266 46.2772L17.5576 46.7716L18.0654 47.4993L15.9116 49.0023L15.4133 48.2868L14.6856 48.78L12.1937 45.1993L12.9118 44.6983L12.607 44.2615L12.4148 43.9861L14.5663 42.4848L15.0677 43.2034Z" fill="#4A399D"/>
<path fill-rule="evenodd" clip-rule="evenodd" d="M17.3682 21.4885L16.6088 21.0702L17.0211 20.3213L12.9561 18.0819L12.5441 18.8298L11.7799 18.4088L11.3543 19.1814L8.27415 24.7695L14.6106 28.2616L16.4191 24.9787L15.6722 24.5672L16.9333 22.278L17.3682 21.4885ZM10.4068 24.788L9.65029 24.371L10.4889 22.8495L11.2452 23.2661L11.6672 22.5L12.4286 22.9195L12.0066 23.6855L13.5431 24.532L14.3925 22.9945L14.8073 22.2414L12.5076 20.9745L11.6672 22.5L10.9111 22.0835L11.7506 20.5605L12.1775 19.7834L12.9355 20.2003L13.3535 19.4416L15.6503 20.7069L15.2356 21.4681L15.9989 21.8886L15.5781 22.666L14.31 24.9544L15.0768 25.3769L14.2385 26.8986L13.4674 26.4839L12.7006 26.0612L10.4068 24.788Z" fill="#4A399D"/>
<path fill-rule="evenodd" clip-rule="evenodd" d="M11.8796 36.0967L11.761 34.3449L9.15533 34.5207L9.2712 36.2734L11.8796 36.0967Z" fill="#4A399D"/>
<path fill-rule="evenodd" clip-rule="evenodd" d="M10.1337 38.0938L10.1933 38.974L11.0555 38.9156L11.1157 39.805L14.8775 39.5503L14.6227 35.7868L13.7497 35.8459L13.6489 34.3572L14.5219 34.298L14.2676 30.5614L10.5245 30.8108L10.5833 31.668L7.08357 31.9008L7.33529 35.6405L7.51493 38.2711L8.36285 38.2137L10.1337 38.0938ZM9.87958 32.7206L9.00598 32.7792L8.1625 32.8363L8.45986 37.2242L11.071 37.047L11.1363 37.9208L11.9956 37.8637L12.0579 38.7287L13.812 38.6109L13.6937 36.8694L12.8246 36.9283L12.5867 33.415L13.4482 33.3571L13.3381 31.618L11.5844 31.7367L11.6436 32.6112L9.87958 32.7206Z" fill="#4A399D"/>
<path fill-rule="evenodd" clip-rule="evenodd" d="M18.1763 53.3823L25.3956 57.1711L28.3675 51.5075L25.0274 49.7545L23.405 52.8694L22.8585 52.5825L24.4906 49.4728L21.1486 47.7188L18.1763 53.3823ZM26.9995 51.9409L24.9676 55.8111L19.5476 52.9665L21.5789 49.0961L23.1317 49.9111L21.5088 53.0033L23.8316 54.2223L25.4545 51.1301L26.9995 51.9409Z" fill="#4A399D"/>
</g>
<defs>
<clipPath id="clip0_696_6352">
<rect width="56" height="56" fill="white" transform="matrix(0 1 -1 0 62 4)"/>
</clipPath>
</defs>
</svg>
